<svg xmlns="http://www.w3.org/2000/svg" viewBox="0 0 192 192" role="img"><rect width="192" height="192" fill="#0F172A"/><path d="M48.56 68.57L48.56 68.57L48.56 70.12Q45.92 70.20 44.57 70.70Q43.21 71.21 42.75 72.56Q42.28 73.92 42.28 76.79L42.28 76.79L42.28 115.21Q42.28 118.00 42.75 119.40Q43.21 120.79 44.57 121.22Q45.92 121.64 48.56 121.64L48.56 121.64L54.21 121.64Q57.85 121.64 60.14 120.87Q62.42 120.09 63.78 118.43Q65.14 116.76 65.83 113.97Q66.53 111.19 66.92 107.16L66.92 107.16L68.70 107.16Q68.47 109.56 68.47 113.51L68.47 113.51Q68.47 114.98 68.58 117.73Q68.70 120.48 69.01 123.43L69.01 123.43Q65.06 123.27 60.10 123.23Q55.14 123.19 51.27 123.19L51.27 123.19Q49.56 123.19 46.89 123.19Q44.22 123.19 41.12 123.23Q38.02 123.27 34.84 123.31Q31.67 123.35 28.80 123.43L28.80 123.43L28.80 121.88Q31.43 121.72 32.79 121.26Q34.15 120.79 34.61 119.40Q35.08 118.00 35.08 115.21L35.08 115.21L35.08 76.79Q35.08 73.92 34.61 72.56Q34.15 71.21 32.79 70.70Q31.43 70.20 28.80 70.12L28.80 70.12L28.80 68.57Q30.43 68.65 33.06 68.73Q35.70 68.81 38.72 68.81L38.72 68.81Q41.43 68.81 44.10 68.73Q46.77 68.65 48.56 68.57Z" fill="#FFFFFF"/><path d="M88.94 75.78L88.94 75.78Q91.15 75.78 92.60 76.27Q94.05 76.77 94.98 77.52L94.98 77.52Q95.74 78.10 96.20 78.80Q96.67 79.50 96.90 80.20Q97.13 80.89 97.13 81.53L97.13 81.53Q97.13 82.98 96.12 83.80Q95.10 84.61 93.88 84.61L93.88 84.61Q92.72 84.61 91.79 83.86Q90.86 83.10 90.86 81.71L90.86 81.71Q90.86 80.43 91.73 79.53Q92.60 78.63 93.94 78.51L93.94 78.51Q93.70 77.75 92.51 77.20Q91.32 76.65 89.52 76.65L89.52 76.65Q86.56 76.65 84.67 78.42Q82.78 80.20 82.78 83.57L82.78 83.57Q82.78 85.19 83.39 86.88Q84.00 88.56 85.74 90.19L85.74 90.19Q86.73 90.02 87.78 89.93Q88.82 89.84 89.35 89.84L89.35 89.84Q90.39 89.84 91.03 90.19Q91.67 90.54 91.67 91.18L91.67 91.18Q91.67 91.70 91.24 91.99Q90.80 92.28 90.04 92.28L90.04 92.28Q88.94 92.28 87.72 91.79Q86.50 91.29 85.80 91.00L85.80 91.00Q82.43 91.99 80.34 94.23Q78.25 96.46 78.25 100.53L78.25 100.53Q78.25 104.54 80.34 107.33Q82.43 110.12 85.95 111.60Q89.46 113.08 93.82 113.08L93.82 113.08Q96.90 113.08 99.66 112.36Q102.42 111.63 104.54 110.24Q106.66 108.84 107.88 106.89Q109.10 104.95 109.10 102.45L109.10 102.45Q109.10 101.35 108.64 99.63Q108.17 97.92 106.72 96.26Q105.27 94.61 102.25 93.68L102.25 93.68L102.94 93.09Q107.19 94.37 108.99 97.19Q110.79 100.01 110.79 103.50L110.79 103.50Q110.79 106.98 108.70 110.18Q106.60 113.37 102.65 115.38Q98.70 117.38 93.07 117.38L93.07 117.38Q89.29 117.38 85.89 116.40Q82.49 115.41 79.88 113.52Q77.26 111.63 75.75 108.96Q74.24 106.28 74.24 102.91L74.24 102.91Q74.24 99.78 75.46 97.54Q76.68 95.30 78.48 93.85Q80.28 92.40 82.08 91.61Q83.88 90.83 84.99 90.54L84.99 90.54Q83.07 89.67 81.76 88.48Q80.46 87.28 79.79 85.86Q79.12 84.44 79.12 83.04L79.12 83.04Q79.12 81.65 79.76 80.34Q80.40 79.03 81.62 77.99Q82.84 76.94 84.67 76.36Q86.50 75.78 88.94 75.78ZM110.09 74.62L110.09 74.62Q113.69 74.62 116.13 76.68Q118.57 78.74 118.57 82.46L118.57 82.46Q118.57 84.44 117.85 85.98Q117.12 87.52 115.87 88.68Q114.62 89.84 113.05 90.60L113.05 90.60Q111.72 91.24 109.54 91.99Q107.36 92.75 104.89 93.50Q102.42 94.26 100.18 94.98Q97.95 95.71 96.55 96.23L96.55 96.23Q94.40 97.05 92.92 98.24Q91.44 99.43 91.44 101.29L91.44 101.29Q91.44 102.80 92.31 103.84Q93.18 104.89 94.43 105.41Q95.68 105.94 96.78 105.94L96.78 105.94Q97.31 105.94 98.09 105.79Q98.88 105.65 99.52 105.36Q100.15 105.06 100.27 104.66L100.27 104.66Q99.34 104.48 98.44 103.82Q97.54 103.15 97.54 101.69L97.54 101.69Q97.54 100.30 98.47 99.49Q99.40 98.67 100.74 98.67L100.74 98.67Q102.13 98.67 102.97 99.54Q103.82 100.42 103.82 101.81L103.82 101.81Q103.82 103.44 102.74 104.57Q101.67 105.70 100.07 106.26Q98.47 106.81 96.90 106.81L96.90 106.81Q95.27 106.81 93.59 106.11Q91.90 105.41 90.80 103.93Q89.70 102.45 89.70 100.01L89.70 100.01Q89.70 97.98 90.60 96.41Q91.50 94.84 93.30 93.62Q95.10 92.40 97.71 91.53L97.71 91.53Q99.46 90.94 101.96 90.25Q104.45 89.55 107.10 88.74Q109.74 87.92 111.89 86.94L111.89 86.94Q114.80 85.60 115.84 84.20Q116.89 82.81 116.89 81.36L116.89 81.36Q116.89 79.67 115.96 78.36Q115.03 77.06 113.49 76.27Q111.95 75.49 110.15 75.49L110.15 75.49Q109.45 75.49 108.99 75.60Q108.52 75.72 108.41 76.01L108.41 76.01Q109.22 76.42 109.63 77.17Q110.03 77.93 110.03 78.68L110.03 78.68Q110.03 79.90 109.07 80.72Q108.12 81.53 106.78 81.53L106.78 81.53Q105.67 81.53 104.69 80.81Q103.70 80.08 103.70 78.63L103.70 78.63Q103.70 77.12 104.72 76.24Q105.73 75.37 107.21 74.99Q108.70 74.62 110.09 74.62Z" fill="#CC9A14"/><path d="M161.65 68.57L161.65 68.57Q161.34 71.29 161.22 73.84Q161.11 76.40 161.11 77.72L161.11 77.72Q161.11 79.11 161.19 80.39Q161.26 81.67 161.34 82.52L161.34 82.52L159.56 82.52Q159.09 77.95 158.24 75.28Q157.39 72.60 155.34 71.48Q153.28 70.36 149.18 70.36L149.18 70.36L142.75 70.36Q140.11 70.36 138.76 70.78Q137.40 71.21 136.94 72.56Q136.47 73.92 136.47 76.79L136.47 76.79L136.47 115.21Q136.47 118.00 136.94 119.40Q137.40 120.79 138.76 121.22Q140.11 121.64 142.75 121.64L142.75 121.64L148.40 121.64Q153.28 121.64 155.80 120.33Q158.32 119.01 159.44 116.03Q160.57 113.04 161.11 107.93L161.11 107.93L162.89 107.93Q162.66 110.02 162.66 113.51L162.66 113.51Q162.66 114.98 162.77 117.73Q162.89 120.48 163.20 123.43L163.20 123.43Q159.25 123.27 154.29 123.23Q149.33 123.19 145.46 123.19L145.46 123.19Q143.75 123.19 141.08 123.19Q138.41 123.19 135.31 123.23Q132.21 123.27 129.03 123.31Q125.86 123.35 122.99 123.43L122.99 123.43L122.99 121.88Q125.62 121.72 126.98 121.26Q128.34 120.79 128.80 119.40Q129.27 118.00 129.27 115.21L129.27 115.21L129.27 76.79Q129.27 73.92 128.80 72.56Q128.34 71.21 126.98 70.70Q125.62 70.20 122.99 70.12L122.99 70.12L122.99 68.57Q125.86 68.65 129.03 68.69Q132.21 68.73 135.31 68.77Q138.41 68.81 141.08 68.81Q143.75 68.81 145.46 68.81L145.46 68.81Q149.02 68.81 153.55 68.77Q158.09 68.73 161.65 68.57ZM134.15 95.07L148.32 95.07Q148.32 95.07 148.32 95.85Q148.32 96.62 148.32 96.62L148.32 96.62L134.15 96.62Q134.15 96.62 134.15 95.85Q134.15 95.07 134.15 95.07L134.15 95.07ZM148.79 84.84L150.57 84.84Q150.26 89.26 150.30 91.58Q150.34 93.91 150.34 95.85L150.34 95.85Q150.34 97.78 150.42 100.11Q150.49 102.43 150.80 106.85L150.80 106.85L149.02 106.85Q148.71 104.37 148.29 102.00Q147.86 99.64 146.43 98.13Q144.99 96.62 141.58 96.62L141.58 96.62L141.58 95.07Q144.14 95.07 145.50 94.02Q146.85 92.98 147.47 91.35Q148.09 89.72 148.32 87.98Q148.56 86.24 148.79 84.84L148.79 84.84Z" fill="#FFFFFF"/></svg>
