<svg xmlns="http://www.w3.org/2000/svg" viewBox="0 0 512 512" role="img"><rect width="512" height="512" fill="#0F172A"/><path d="M138.17 187.03L138.17 187.03L138.17 190.92Q131.55 191.12 128.14 192.39Q124.73 193.65 123.56 197.06Q122.39 200.47 122.39 207.68L122.39 207.68L122.39 306.66Q122.39 312.70 123.27 315.62Q124.15 318.54 126.78 319.52Q129.41 320.49 134.67 320.49L134.67 320.49L144.21 320.49Q150.84 320.49 156.68 317.37Q162.53 314.26 167.20 308.51Q171.88 302.76 175.00 294.77Q178.11 286.78 179.67 277.04L179.67 277.04L184.15 277.04Q183.57 283.67 183.57 294.19L183.57 294.19Q183.57 298.67 183.76 307.24Q183.96 315.81 184.93 324.97L184.93 324.97Q175.00 324.58 162.53 324.48Q150.06 324.39 140.32 324.39L140.32 324.39L127.85 324.39Q120.25 324.39 111.48 324.48Q102.71 324.58 93.75 324.68Q84.79 324.78 76.80 324.97L76.80 324.97L76.80 321.08Q83.03 320.69 86.15 319.52Q89.27 318.35 90.34 314.84Q91.41 311.33 91.41 304.32L91.41 304.32L91.41 207.68Q91.41 200.47 90.34 197.06Q89.27 193.65 86.05 192.39Q82.84 191.12 76.80 190.92L76.80 190.92L76.80 187.03Q81.67 187.22 89.95 187.42Q98.23 187.61 107.58 187.61L107.58 187.61Q116.16 187.61 124.44 187.42Q132.72 187.22 138.17 187.03Z" fill="#FFFFFF"/><path d="M237.44 203.98L237.44 203.98Q243.14 203.98 246.65 204.78Q250.15 205.59 252.64 207.05L252.64 207.05Q254.98 208.07 256.95 209.68Q258.92 211.29 260.24 213.62Q261.55 215.96 261.55 218.88L261.55 218.88Q261.55 223.27 258.19 225.90Q254.83 228.53 250.30 228.53L250.30 228.53Q245.92 228.53 242.78 226.34Q239.63 224.14 239.63 219.47L239.63 219.47Q239.63 215.82 242.26 212.82Q244.89 209.82 248.99 209.09L248.99 209.09Q247.96 207.92 245.26 207.19Q242.56 206.46 239.34 206.46L239.34 206.46Q231.74 206.46 226.41 211.21Q221.08 215.96 221.08 225.61L221.08 225.61Q221.08 228.97 222.24 232.77Q223.41 236.57 226.77 240.51L226.77 240.51Q229.26 239.93 231.38 239.63Q233.50 239.34 234.96 239.34L234.96 239.34Q237.59 239.34 238.98 240.44Q240.36 241.53 240.36 243.29L240.36 243.29Q240.36 244.60 239.20 245.48Q238.03 246.36 236.27 246.36L236.27 246.36Q233.79 246.36 231.16 244.97Q228.53 243.58 226.92 242.56L226.92 242.56Q220.05 246.06 215.74 251.54Q211.43 257.02 211.43 266.23L211.43 266.23Q211.43 275.87 216.69 282.08Q221.95 288.29 231.52 291.44Q241.10 294.58 254.10 294.58L254.10 294.58Q261.41 294.58 268.57 292.97Q275.73 291.36 281.50 288.15Q287.27 284.93 290.78 280.18Q294.29 275.43 294.29 269.15L294.29 269.15Q294.29 266.81 293.63 263.23Q292.97 259.65 290.49 256L290.49 256Q288.15 252.79 283.18 250.59L283.18 250.59Q280.26 251.47 277.04 252.35L277.04 252.35Q273.83 253.22 270.83 254.10Q267.84 254.98 265.64 255.56L265.64 255.56Q254.25 258.05 248.11 261.19Q241.97 264.33 241.97 269.74L241.97 269.74Q241.97 273.39 244.38 276.02Q246.79 278.65 250.45 280.11Q254.10 281.57 257.75 281.57L257.75 281.57Q258.78 281.57 259.95 281.35Q261.11 281.13 262.14 280.77Q263.16 280.40 263.60 280.11L263.60 280.11Q259.95 278.94 258.12 276.38Q256.29 273.83 256.29 270.47L256.29 270.47Q256.29 265.79 259.65 263.31Q263.01 260.82 267.98 260.82L267.98 260.82Q273.24 260.82 276.24 263.60Q279.23 266.37 279.23 270.76L279.23 270.76Q279.23 275.29 276.46 278.28Q273.68 281.28 269.01 282.67Q264.33 284.06 258.48 284.06L258.48 284.06Q252.79 284.06 247.74 282.01Q242.70 279.96 239.71 275.80Q236.71 271.64 236.71 265.35L236.71 265.35Q236.71 257.61 240.66 252.42Q244.60 247.23 251.98 243.80Q259.36 240.36 269.44 238.46L269.44 238.46Q272.51 237.73 276.24 236.78Q279.96 235.83 283.91 234.81Q287.86 233.79 291.22 232.62L291.22 232.62Q301.74 229.99 307.51 226.77Q313.28 223.56 313.28 218.15L313.28 218.15Q313.28 214.21 310.87 211.21Q308.46 208.22 304.66 206.54Q300.86 204.86 296.77 204.86L296.77 204.86Q295.45 204.86 294.36 205.00Q293.26 205.15 292.53 205.59L292.53 205.59Q296.18 206.90 297.94 209.53Q299.69 212.16 299.69 214.79L299.69 214.79Q299.69 219.32 296.33 221.73Q292.97 224.14 288.00 224.14Q283.03 224.14 279.82 221.59Q276.60 219.03 276.60 214.50L276.60 214.50Q276.60 210.55 278.87 207.85Q281.13 205.15 285.23 203.69Q289.32 202.23 294.87 202.23L294.87 202.23Q305.24 202.23 311.67 207.63Q318.10 213.04 318.10 222.83L318.10 222.83Q318.10 230.28 314.52 235.40Q310.94 240.51 304.29 243.73Q297.65 246.94 288.44 248.84L288.44 248.84Q287.27 249.28 285.81 249.72L285.81 249.72Q291.80 252.49 295.31 258.19L295.31 258.19Q299.40 265.06 299.40 273.97L299.40 273.97Q299.40 284.20 293.12 292.31Q286.83 300.42 275.51 305.10Q264.18 309.77 248.99 309.77L248.99 309.77Q236.86 309.77 226.99 307.29Q217.13 304.81 210.04 300.06Q202.96 295.31 199.08 288.59Q195.21 281.86 195.21 273.39L195.21 273.39Q195.21 265.21 198.65 259.43Q202.08 253.66 207.05 249.94Q212.02 246.21 216.98 244.16Q221.95 242.12 224.88 241.39L224.88 241.39Q220.35 239.49 216.62 236.93Q212.89 234.37 210.63 230.87Q208.36 227.36 208.36 222.98L208.36 222.98Q208.36 218.30 210.85 214.72Q213.33 211.14 217.50 208.80Q221.66 206.46 226.85 205.22Q232.04 203.98 237.44 203.98Z" fill="#CC9A14"/><path d="M431.30 187.03L431.30 187.03Q430.52 195.60 430.23 203.59Q429.94 211.58 429.94 215.86L429.94 215.86Q429.94 219.76 430.13 223.27Q430.33 226.77 430.52 229.11L430.52 229.11L426.04 229.11Q424.09 214.89 420.00 206.61Q415.91 198.33 409.38 194.92Q402.86 191.51 394.09 191.51L394.09 191.51L386.10 191.51Q380.45 191.51 377.53 192.48Q374.61 193.46 373.63 196.38Q372.66 199.30 372.66 205.34L372.66 205.34L372.66 253.66L378.89 253.66Q384.74 253.66 388.83 251.23Q392.92 248.79 395.55 244.80Q398.18 240.80 399.74 236.32Q401.30 231.84 402.08 227.94L402.08 227.94L406.56 227.94Q405.78 239.05 405.88 244.89Q405.97 250.74 405.97 255.61Q405.97 260.48 406.17 266.33Q406.36 272.17 407.14 283.28L407.14 283.28L402.66 283.28Q401.69 276.46 399.06 270.61Q396.43 264.77 391.56 261.16Q386.69 257.56 378.89 257.56L378.89 257.56L372.66 257.56L372.66 306.66Q372.66 312.70 373.63 315.62Q374.61 318.54 377.53 319.52Q380.45 320.49 386.10 320.49L386.10 320.49L395.65 320.49Q404.42 320.49 411.14 316.69Q417.86 312.89 422.63 303.73Q427.41 294.58 429.94 278.99L429.94 278.99L434.42 278.99Q433.84 285.23 433.84 295.36L433.84 295.36Q433.84 299.84 434.03 308.02Q434.23 316.20 435.20 324.97L435.20 324.97Q425.26 324.58 412.79 324.48Q400.32 324.39 390.58 324.39L390.58 324.39L378.11 324.39Q370.51 324.39 361.75 324.48Q352.98 324.58 344.02 324.68Q335.05 324.78 327.07 324.97L327.07 324.97L327.07 321.08Q333.30 320.69 336.42 319.52Q339.54 318.35 340.61 314.84Q341.68 311.33 341.68 304.32L341.68 304.32L341.68 207.68Q341.68 200.47 340.61 197.06Q339.54 193.65 336.32 192.39Q333.11 191.12 327.07 190.92L327.07 190.92L327.07 187.03Q335.05 187.22 344.02 187.32Q352.98 187.42 361.75 187.52Q370.51 187.61 378.11 187.61L378.11 187.61L390.58 187.61Q399.55 187.61 410.94 187.52Q422.34 187.42 431.30 187.03Z" fill="#FFFFFF"/></svg>
