<svg xmlns="http://www.w3.org/2000/svg" viewBox="0 0 512 512" role="img"><rect width="512" height="512" fill="#0F172A"/><path d="M129.48 182.86L129.48 182.86L129.48 187.00Q122.46 187.20 118.84 188.54Q115.23 189.89 113.99 193.50Q112.75 197.12 112.75 204.76L112.75 204.76L112.75 307.24Q112.75 314.67 113.99 318.39Q115.23 322.11 118.84 323.25Q122.46 324.38 129.48 324.38L129.48 324.38L144.56 324.38Q154.28 324.38 160.37 322.32Q166.46 320.25 170.08 315.81Q173.70 311.37 175.55 303.93Q177.41 296.49 178.45 285.75L178.45 285.75L183.20 285.75Q182.58 292.16 182.58 302.69L182.58 302.69Q182.58 306.62 182.89 313.95Q183.20 321.29 184.03 329.14L184.03 329.14Q173.49 328.72 160.27 328.62Q147.04 328.52 136.71 328.52L136.71 328.52Q132.17 328.52 125.04 328.52Q117.91 328.52 109.65 328.62Q101.39 328.72 92.91 328.83Q84.44 328.93 76.80 329.14L76.80 329.14L76.80 325.00Q83.82 324.59 87.44 323.35Q91.06 322.11 92.30 318.39Q93.53 314.67 93.53 307.24L93.53 307.24L93.53 204.76Q93.53 197.12 92.30 193.50Q91.06 189.89 87.44 188.54Q83.82 187.20 76.80 187.00L76.80 187.00L76.80 182.86Q81.14 183.07 88.16 183.28Q95.19 183.48 103.24 183.48L103.24 183.48Q110.48 183.48 117.60 183.28Q124.73 183.07 129.48 182.86Z" fill="#FFFFFF"/><path d="M237.17 202.08L237.17 202.08Q243.06 202.08 246.94 203.39Q250.81 204.71 253.29 206.73L253.29 206.73Q255.30 208.28 256.54 210.13Q257.78 211.99 258.40 213.85Q259.02 215.71 259.02 217.42L259.02 217.42Q259.02 221.29 256.31 223.46Q253.60 225.63 250.34 225.63L250.34 225.63Q247.25 225.63 244.77 223.62Q242.29 221.60 242.29 217.88L242.29 217.88Q242.29 214.47 244.61 212.07Q246.94 209.67 250.50 209.36L250.50 209.36Q249.88 207.35 246.70 205.87Q243.53 204.40 238.72 204.40L238.72 204.40Q230.82 204.40 225.78 209.13Q220.75 213.85 220.75 222.84L220.75 222.84Q220.75 227.18 222.38 231.67Q224.00 236.17 228.65 240.50L228.65 240.50Q231.29 240.04 234.07 239.81Q236.86 239.58 238.26 239.58L238.26 239.58Q241.05 239.58 242.75 240.50Q244.46 241.43 244.46 243.14L244.46 243.14Q244.46 244.53 243.29 245.31Q242.13 246.08 240.12 246.08L240.12 246.08Q237.17 246.08 233.92 244.77Q230.67 243.45 228.81 242.67L228.81 242.67Q219.82 245.31 214.24 251.27Q208.66 257.24 208.66 268.09L208.66 268.09Q208.66 278.78 214.24 286.22Q219.82 293.65 229.19 297.60Q238.57 301.56 250.19 301.56L250.19 301.56Q258.40 301.56 265.76 299.62Q273.12 297.68 278.78 293.96Q284.43 290.24 287.69 285.05Q290.94 279.86 290.94 273.20L290.94 273.20Q290.94 270.26 289.70 265.68Q288.46 261.11 284.59 256.70Q280.71 252.28 272.66 249.80L272.66 249.80L274.52 248.25Q285.83 251.66 290.63 259.18Q295.43 266.69 295.43 275.99L295.43 275.99Q295.43 285.29 289.86 293.81Q284.28 302.33 273.74 307.68Q263.21 313.02 248.18 313.02L248.18 313.02Q238.10 313.02 229.04 310.39Q219.97 307.75 213.00 302.72Q206.03 297.68 202.00 290.55Q197.97 283.43 197.97 274.44L197.97 274.44Q197.97 266.07 201.23 260.11Q204.48 254.14 209.28 250.27Q214.09 246.39 218.89 244.30Q223.69 242.21 226.64 241.43L226.64 241.43Q221.52 239.11 218.04 235.93Q214.55 232.76 212.77 228.96Q210.99 225.16 210.99 221.45L210.99 221.45Q210.99 217.73 212.69 214.24Q214.40 210.75 217.65 207.97Q220.90 205.18 225.78 203.63Q230.67 202.08 237.17 202.08ZM293.58 198.98L293.58 198.98Q303.18 198.98 309.69 204.48Q316.20 209.98 316.20 219.90L316.20 219.90Q316.20 225.16 314.26 229.27Q312.32 233.38 308.99 236.48Q305.66 239.58 301.48 241.59L301.48 241.59Q297.91 243.29 292.10 245.31Q286.29 247.32 279.71 249.34Q273.12 251.35 267.16 253.29Q261.19 255.23 257.47 256.62L257.47 256.62Q251.74 258.79 247.79 261.97Q243.84 265.14 243.84 270.10L243.84 270.10Q243.84 274.13 246.16 276.92Q248.48 279.71 251.82 281.10Q255.15 282.50 258.09 282.50L258.09 282.50Q259.49 282.50 261.58 282.11Q263.67 281.72 265.37 280.95Q267.08 280.17 267.39 279.09L267.39 279.09Q264.91 278.62 262.51 276.84Q260.11 275.06 260.11 271.19L260.11 271.19Q260.11 267.47 262.59 265.30Q265.06 263.13 268.63 263.13L268.63 263.13Q272.35 263.13 274.59 265.45Q276.84 267.78 276.84 271.50L276.84 271.50Q276.84 275.83 273.97 278.86Q271.11 281.88 266.85 283.35Q262.59 284.82 258.40 284.82L258.40 284.82Q254.06 284.82 249.57 282.96Q245.08 281.10 242.13 277.15Q239.19 273.20 239.19 266.69L239.19 266.69Q239.19 261.27 241.59 257.08Q243.99 252.90 248.79 249.65Q253.60 246.39 260.57 244.07L260.57 244.07Q265.22 242.52 271.88 240.66Q278.55 238.80 285.60 236.63Q292.65 234.46 298.38 231.83L298.38 231.83Q306.13 228.26 308.92 224.55Q311.70 220.83 311.70 216.95L311.70 216.95Q311.70 212.46 309.23 208.97Q306.75 205.49 302.64 203.39Q298.53 201.30 293.73 201.30L293.73 201.30Q291.87 201.30 290.63 201.61Q289.39 201.92 289.08 202.70L289.08 202.70Q291.25 203.78 292.34 205.80Q293.42 207.81 293.42 209.82L293.42 209.82Q293.42 213.08 290.86 215.25Q288.31 217.42 284.74 217.42L284.74 217.42Q281.80 217.42 279.17 215.48Q276.53 213.54 276.53 209.67L276.53 209.67Q276.53 205.64 279.24 203.32Q281.95 200.99 285.91 199.99Q289.86 198.98 293.58 198.98Z" fill="#CC9A14"/><path d="M431.07 182.86L431.07 182.86Q430.24 190.09 429.93 196.91Q429.62 203.73 429.62 207.24L429.62 207.24Q429.62 210.96 429.83 214.37Q430.03 217.78 430.24 220.05L430.24 220.05L425.49 220.05Q424.25 207.86 421.98 200.73Q419.70 193.61 414.23 190.61Q408.76 187.62 397.81 187.62L397.81 187.62L380.66 187.62Q373.63 187.62 370.02 188.75Q366.40 189.89 365.16 193.50Q363.92 197.12 363.92 204.76L363.92 204.76L363.92 307.24Q363.92 314.67 365.16 318.39Q366.40 322.11 370.02 323.25Q373.63 324.38 380.66 324.38L380.66 324.38L395.74 324.38Q408.76 324.38 415.47 320.87Q422.18 317.36 425.18 309.41Q428.18 301.45 429.62 287.82L429.62 287.82L434.37 287.82Q433.75 293.39 433.75 302.69L433.75 302.69Q433.75 306.62 434.06 313.95Q434.37 321.29 435.20 329.14L435.20 329.14Q424.66 328.72 411.44 328.62Q398.22 328.52 387.89 328.52L387.89 328.52Q383.34 328.52 376.22 328.52Q369.09 328.52 360.82 328.62Q352.56 328.72 344.09 328.83Q335.62 328.93 327.97 329.14L327.97 329.14L327.97 325.00Q335.00 324.59 338.61 323.35Q342.23 322.11 343.47 318.39Q344.71 314.67 344.71 307.24L344.71 307.24L344.71 204.76Q344.71 197.12 343.47 193.50Q342.23 189.89 338.61 188.54Q335.00 187.20 327.97 187.00L327.97 187.00L327.97 182.86Q335.62 183.07 344.09 183.17Q352.56 183.28 360.82 183.38Q369.09 183.48 376.22 183.48Q383.34 183.48 387.89 183.48L387.89 183.48Q397.39 183.48 409.48 183.38Q421.56 183.28 431.07 182.86ZM357.72 253.52L395.53 253.52Q395.53 253.52 395.53 255.59Q395.53 257.65 395.53 257.65L395.53 257.65L357.72 257.65Q357.72 257.65 357.72 255.59Q357.72 253.52 357.72 253.52L357.72 253.52ZM396.77 226.25L401.52 226.25Q400.70 238.03 400.80 244.22Q400.90 250.42 400.90 255.59L400.90 255.59Q400.90 260.75 401.11 266.95Q401.32 273.15 402.14 284.92L402.14 284.92L397.39 284.92Q396.57 278.31 395.43 272.01Q394.29 265.71 390.47 261.68Q386.65 257.65 377.56 257.65L377.56 257.65L377.56 253.52Q384.38 253.52 387.99 250.73Q391.61 247.94 393.26 243.60Q394.91 239.27 395.53 234.62Q396.15 229.97 396.77 226.25L396.77 226.25Z" fill="#FFFFFF"/></svg>
