<svg xmlns="http://www.w3.org/2000/svg" viewBox="0 0 192 192" role="img"><rect width="192" height="192" fill="#0F172A"/><path d="M51.81 70.14L51.81 70.14L51.81 71.60Q49.33 71.67 48.05 72.14Q46.77 72.62 46.34 73.90Q45.90 75.18 45.90 77.88L45.90 77.88L45.90 115.00Q45.90 117.26 46.23 118.36Q46.55 119.45 47.54 119.82Q48.53 120.18 50.50 120.18L50.50 120.18L54.08 120.18Q56.56 120.18 58.76 119.01Q60.95 117.85 62.70 115.69Q64.45 113.54 65.62 110.54Q66.79 107.54 67.38 103.89L67.38 103.89L69.06 103.89Q68.84 106.37 68.84 110.32L68.84 110.32Q68.84 112.00 68.91 115.22Q68.98 118.43 69.35 121.86L69.35 121.86Q65.62 121.72 60.95 121.68Q56.27 121.65 52.62 121.65L52.62 121.65L47.94 121.65Q45.09 121.65 41.81 121.68Q38.52 121.72 35.16 121.75Q31.80 121.79 28.80 121.86L28.80 121.86L28.80 120.40Q31.14 120.26 32.31 119.82Q33.48 119.38 33.88 118.07Q34.28 116.75 34.28 114.12L34.28 114.12L34.28 77.88Q34.28 75.18 33.88 73.90Q33.48 72.62 32.27 72.14Q31.06 71.67 28.80 71.60L28.80 71.60L28.80 70.14Q30.63 70.21 33.73 70.28Q36.84 70.35 40.34 70.35L40.34 70.35Q43.56 70.35 46.66 70.28Q49.77 70.21 51.81 70.14Z" fill="#FFFFFF"/><path d="M89.04 76.49L89.04 76.49Q91.18 76.49 92.49 76.79Q93.81 77.09 94.74 77.64L94.74 77.64Q95.62 78.03 96.36 78.63Q97.10 79.23 97.59 80.11Q98.08 80.99 98.08 82.08L98.08 82.08Q98.08 83.73 96.82 84.71Q95.56 85.70 93.86 85.70L93.86 85.70Q92.22 85.70 91.04 84.88Q89.86 84.05 89.86 82.30L89.86 82.30Q89.86 80.93 90.85 79.81Q91.84 78.68 93.37 78.41L93.37 78.41Q92.99 77.97 91.97 77.70Q90.96 77.42 89.75 77.42L89.75 77.42Q86.90 77.42 84.90 79.20Q82.90 80.99 82.90 84.60L82.90 84.60Q82.90 85.86 83.34 87.29Q83.78 88.71 85.04 90.19L85.04 90.19Q85.97 89.97 86.77 89.86Q87.56 89.75 88.11 89.75L88.11 89.75Q89.10 89.75 89.62 90.16Q90.14 90.58 90.14 91.23L90.14 91.23Q90.14 91.73 89.70 92.05Q89.26 92.38 88.60 92.38L88.60 92.38Q87.67 92.38 86.68 91.86Q85.70 91.34 85.10 90.96L85.10 90.96Q82.52 92.27 80.90 94.33Q79.29 96.38 79.29 99.84L79.29 99.84Q79.29 103.45 81.26 105.78Q83.23 108.11 86.82 109.29Q90.41 110.47 95.29 110.47L95.29 110.47Q98.03 110.47 100.71 109.86Q103.40 109.26 105.56 108.06Q107.73 106.85 109.04 105.07Q110.36 103.29 110.36 100.93L110.36 100.93Q110.36 100.06 110.11 98.71Q109.86 97.37 108.93 96L108.93 96Q108.06 94.79 106.19 93.97L106.19 93.97Q105.10 94.30 103.89 94.63L103.89 94.63Q102.69 94.96 101.56 95.29Q100.44 95.62 99.62 95.84L99.62 95.84Q95.34 96.77 93.04 97.95Q90.74 99.12 90.74 101.15L90.74 101.15Q90.74 102.52 91.64 103.51Q92.55 104.49 93.92 105.04Q95.29 105.59 96.66 105.59L96.66 105.59Q97.04 105.59 97.48 105.51Q97.92 105.43 98.30 105.29Q98.69 105.15 98.85 105.04L98.85 105.04Q97.48 104.60 96.79 103.64Q96.11 102.69 96.11 101.42L96.11 101.42Q96.11 99.67 97.37 98.74Q98.63 97.81 100.49 97.81L100.49 97.81Q102.47 97.81 103.59 98.85Q104.71 99.89 104.71 101.53L104.71 101.53Q104.71 103.23 103.67 104.36Q102.63 105.48 100.88 106.00Q99.12 106.52 96.93 106.52L96.93 106.52Q94.79 106.52 92.90 105.75Q91.01 104.99 89.89 103.43Q88.77 101.86 88.77 99.51L88.77 99.51Q88.77 96.60 90.25 94.66Q91.73 92.71 94.49 91.42Q97.26 90.14 101.04 89.42L101.04 89.42Q102.19 89.15 103.59 88.79Q104.99 88.44 106.47 88.05Q107.95 87.67 109.21 87.23L109.21 87.23Q113.15 86.25 115.32 85.04Q117.48 83.83 117.48 81.81L117.48 81.81Q117.48 80.33 116.58 79.20Q115.67 78.08 114.25 77.45Q112.82 76.82 111.29 76.82L111.29 76.82Q110.80 76.82 110.38 76.88Q109.97 76.93 109.70 77.09L109.70 77.09Q111.07 77.59 111.73 78.57Q112.38 79.56 112.38 80.55L112.38 80.55Q112.38 82.25 111.12 83.15Q109.86 84.05 108.00 84.05Q106.14 84.05 104.93 83.10Q103.73 82.14 103.73 80.44L103.73 80.44Q103.73 78.96 104.58 77.94Q105.43 76.93 106.96 76.38Q108.49 75.83 110.58 75.83L110.58 75.83Q114.47 75.83 116.88 77.86Q119.29 79.89 119.29 83.56L119.29 83.56Q119.29 86.36 117.95 88.27Q116.60 90.19 114.11 91.40Q111.62 92.60 108.17 93.31L108.17 93.31Q107.73 93.48 107.18 93.64L107.18 93.64Q109.43 94.68 110.74 96.82L110.74 96.82Q112.27 99.40 112.27 102.74L112.27 102.74Q112.27 106.58 109.92 109.62Q107.56 112.66 103.32 114.41Q99.07 116.17 93.37 116.17L93.37 116.17Q88.82 116.17 85.12 115.23Q81.42 114.30 78.77 112.52Q76.11 110.74 74.66 108.22Q73.20 105.70 73.20 102.52L73.20 102.52Q73.20 99.45 74.49 97.29Q75.78 95.12 77.64 93.73Q79.51 92.33 81.37 91.56Q83.23 90.79 84.33 90.52L84.33 90.52Q82.63 89.81 81.23 88.85Q79.83 87.89 78.99 86.57Q78.14 85.26 78.14 83.62L78.14 83.62Q78.14 81.86 79.07 80.52Q80.00 79.18 81.56 78.30Q83.12 77.42 85.07 76.96Q87.01 76.49 89.04 76.49Z" fill="#CC9A14"/><path d="M161.74 70.14L161.74 70.14Q161.45 73.35 161.34 76.35Q161.23 79.34 161.23 80.95L161.23 80.95Q161.23 82.41 161.30 83.73Q161.37 85.04 161.45 85.92L161.45 85.92L159.77 85.92Q159.04 80.58 157.50 77.48Q155.97 74.37 153.52 73.09Q151.07 71.82 147.78 71.82L147.78 71.82L144.79 71.82Q142.67 71.82 141.57 72.18Q140.48 72.55 140.11 73.64Q139.75 74.74 139.75 77.00L139.75 77.00L139.75 95.12L142.08 95.12Q144.28 95.12 145.81 94.21Q147.35 93.30 148.33 91.80Q149.32 90.30 149.90 88.62Q150.49 86.94 150.78 85.48L150.78 85.48L152.46 85.48Q152.17 89.64 152.20 91.84Q152.24 94.03 152.24 95.85Q152.24 97.68 152.31 99.87Q152.39 102.06 152.68 106.23L152.68 106.23L151.00 106.23Q150.63 103.67 149.65 101.48Q148.66 99.29 146.83 97.94Q145.01 96.58 142.08 96.58L142.08 96.58L139.75 96.58L139.75 115.00Q139.75 117.26 140.11 118.36Q140.48 119.45 141.57 119.82Q142.67 120.18 144.79 120.18L144.79 120.18L148.37 120.18Q151.66 120.18 154.18 118.76Q156.70 117.33 158.49 113.90Q160.28 110.47 161.23 104.62L161.23 104.62L162.91 104.62Q162.69 106.96 162.69 110.76L162.69 110.76Q162.69 112.44 162.76 115.51Q162.83 118.58 163.20 121.86L163.20 121.86Q159.47 121.72 154.80 121.68Q150.12 121.65 146.47 121.65L146.47 121.65L141.79 121.65Q138.94 121.65 135.66 121.68Q132.37 121.72 129.01 121.75Q125.65 121.79 122.65 121.86L122.65 121.86L122.65 120.40Q124.99 120.26 126.16 119.82Q127.33 119.38 127.73 118.07Q128.13 116.75 128.13 114.12L128.13 114.12L128.13 77.88Q128.13 75.18 127.73 73.90Q127.33 72.62 126.12 72.14Q124.91 71.67 122.65 71.60L122.65 71.60L122.65 70.14Q125.65 70.21 129.01 70.25Q132.37 70.28 135.66 70.32Q138.94 70.35 141.79 70.35L141.79 70.35L146.47 70.35Q149.83 70.35 154.10 70.32Q158.38 70.28 161.74 70.14Z" fill="#FFFFFF"/></svg>
