<svg xmlns="http://www.w3.org/2000/svg" viewBox="0 0 512 512" role="img"><rect width="512" height="512" fill="#0F172A"/><path d="M123.81 190.74L123.81 190.74L123.81 194.42Q117.54 194.61 114.32 195.81Q111.09 197.00 109.99 200.23Q108.88 203.46 108.88 210.28L108.88 210.28L108.88 301.72Q108.88 308.36 109.99 311.68Q111.09 315.00 114.32 316.01Q117.54 317.02 123.81 317.02L123.81 317.02L137.27 317.02Q145.94 317.02 151.37 315.18Q156.81 313.34 160.04 309.37Q163.27 305.41 164.93 298.77Q166.58 292.13 167.51 282.55L167.51 282.55L171.75 282.55Q171.19 288.26 171.19 297.67L171.19 297.67Q171.19 301.17 171.47 307.71Q171.75 314.26 172.48 321.26L172.48 321.26Q163.08 320.90 151.28 320.80Q139.48 320.71 130.27 320.71L130.27 320.71Q126.21 320.71 119.85 320.71Q113.49 320.71 106.11 320.80Q98.74 320.90 91.18 320.99Q83.62 321.08 76.80 321.26L76.80 321.26L76.80 317.58Q83.07 317.21 86.29 316.10Q89.52 315.00 90.63 311.68Q91.73 308.36 91.73 301.72L91.73 301.72L91.73 210.28Q91.73 203.46 90.63 200.23Q89.52 197.00 86.29 195.81Q83.07 194.61 76.80 194.42L76.80 194.42L76.80 190.74Q80.67 190.92 86.94 191.10Q93.21 191.29 100.40 191.29L100.40 191.29Q106.85 191.29 113.21 191.10Q119.57 190.92 123.81 190.74Z" fill="#FFFFFF"/><path d="M234.06 191.84L234.06 191.84Q241.07 191.84 245.68 193.41Q250.28 194.98 253.23 197.37L253.23 197.37Q255.63 199.22 257.11 201.43Q258.58 203.64 259.32 205.85Q260.06 208.07 260.06 210.09L260.06 210.09Q260.06 214.70 256.83 217.28Q253.60 219.87 249.73 219.87L249.73 219.87Q246.04 219.87 243.09 217.47Q240.14 215.07 240.14 210.65L240.14 210.65Q240.14 206.59 242.91 203.73Q245.68 200.88 249.92 200.51L249.92 200.51Q249.18 198.11 245.40 196.36Q241.62 194.61 235.90 194.61L235.90 194.61Q226.50 194.61 220.51 200.23Q214.52 205.85 214.52 216.55L214.52 216.55Q214.52 221.71 216.45 227.06Q218.39 232.40 223.92 237.56L223.92 237.56Q227.06 237.01 230.37 236.73Q233.69 236.46 235.35 236.46L235.35 236.46Q238.67 236.46 240.70 237.56Q242.73 238.67 242.73 240.70L242.73 240.70Q242.73 242.36 241.34 243.28Q239.96 244.20 237.56 244.20L237.56 244.20Q234.06 244.20 230.19 242.63Q226.32 241.07 224.11 240.14L224.11 240.14Q213.41 243.28 206.78 250.38Q200.14 257.47 200.14 270.38L200.14 270.38Q200.14 283.10 206.78 291.95Q213.41 300.80 224.57 305.50Q235.72 310.20 249.55 310.20L249.55 310.20Q259.32 310.20 268.08 307.90Q276.83 305.59 283.56 301.17Q290.29 296.74 294.16 290.57Q298.03 284.39 298.03 276.46L298.03 276.46Q298.03 272.96 296.56 267.52Q295.08 262.08 290.48 256.83Q285.87 251.58 276.28 248.63L276.28 248.63L278.49 246.78Q291.95 250.84 297.67 259.78Q303.38 268.72 303.38 279.78L303.38 279.78Q303.38 290.84 296.74 300.98Q290.11 311.12 277.57 317.48Q265.03 323.85 247.15 323.85L247.15 323.85Q235.17 323.85 224.38 320.71Q213.60 317.58 205.30 311.59Q197.00 305.59 192.21 297.11Q187.42 288.63 187.42 277.94L187.42 277.94Q187.42 267.98 191.29 260.89Q195.16 253.79 200.88 249.18Q206.59 244.57 212.31 242.08Q218.02 239.59 221.52 238.67L221.52 238.67Q215.44 235.90 211.29 232.13Q207.14 228.35 205.02 223.83Q202.90 219.31 202.90 214.89L202.90 214.89Q202.90 210.46 204.93 206.31Q206.96 202.17 210.83 198.85Q214.70 195.53 220.51 193.69Q226.32 191.84 234.06 191.84ZM301.17 188.15L301.17 188.15Q312.60 188.15 320.34 194.70Q328.09 201.24 328.09 213.04L328.09 213.04Q328.09 219.31 325.78 224.20Q323.48 229.08 319.51 232.77Q315.55 236.46 310.57 238.85L310.57 238.85Q306.33 240.88 299.42 243.28Q292.50 245.68 284.67 248.07Q276.83 250.47 269.73 252.77Q262.64 255.08 258.21 256.74L258.21 256.74Q251.39 259.32 246.69 263.10Q241.99 266.88 241.99 272.78L241.99 272.78Q241.99 277.57 244.75 280.89Q247.52 284.21 251.48 285.87Q255.45 287.53 258.95 287.53L258.95 287.53Q260.61 287.53 263.10 287.07Q265.59 286.60 267.61 285.68Q269.64 284.76 270.01 283.47L270.01 283.47Q267.06 282.92 264.20 280.80Q261.35 278.68 261.35 274.07L261.35 274.07Q261.35 269.64 264.30 267.06Q267.25 264.48 271.49 264.48L271.49 264.48Q275.91 264.48 278.58 267.25Q281.26 270.01 281.26 274.44L281.26 274.44Q281.26 279.60 277.85 283.19Q274.44 286.79 269.37 288.54Q264.30 290.29 259.32 290.29L259.32 290.29Q254.16 290.29 248.81 288.08Q243.46 285.87 239.96 281.17Q236.46 276.46 236.46 268.72L236.46 268.72Q236.46 262.27 239.32 257.29Q242.17 252.31 247.89 248.44Q253.60 244.57 261.90 241.80L261.90 241.80Q267.43 239.96 275.36 237.75Q283.29 235.54 291.67 232.95Q300.06 230.37 306.88 227.24L306.88 227.24Q316.10 223.00 319.42 218.57Q322.74 214.15 322.74 209.54L322.74 209.54Q322.74 204.19 319.79 200.05Q316.84 195.90 311.95 193.41Q307.07 190.92 301.35 190.92L301.35 190.92Q299.14 190.92 297.67 191.29Q296.19 191.66 295.82 192.58L295.82 192.58Q298.40 193.87 299.69 196.27Q300.98 198.66 300.98 201.06L300.98 201.06Q300.98 204.93 297.94 207.51Q294.90 210.09 290.66 210.09L290.66 210.09Q287.16 210.09 284.02 207.79Q280.89 205.48 280.89 200.88L280.89 200.88Q280.89 196.08 284.12 193.32Q287.34 190.55 292.04 189.35Q296.74 188.15 301.17 188.15Z" fill="#CC9A14"/><path d="M431.51 190.74L431.51 190.74Q430.78 197.19 430.50 203.27Q430.22 209.36 430.22 212.49L430.22 212.49Q430.22 215.81 430.41 218.85Q430.59 221.89 430.78 223.92L430.78 223.92L426.53 223.92Q425.43 213.04 423.40 206.68Q421.37 200.32 416.49 197.65Q411.60 194.98 401.83 194.98L401.83 194.98L386.53 194.98Q380.26 194.98 377.03 195.99Q373.81 197.00 372.70 200.23Q371.60 203.46 371.60 210.28L371.60 210.28L371.60 301.72Q371.60 308.36 372.70 311.68Q373.81 315.00 377.03 316.01Q380.26 317.02 386.53 317.02L386.53 317.02L399.99 317.02Q411.60 317.02 417.59 313.89Q423.59 310.76 426.26 303.66Q428.93 296.56 430.22 284.39L430.22 284.39L434.46 284.39Q433.91 289.37 433.91 297.67L433.91 297.67Q433.91 301.17 434.19 307.71Q434.46 314.26 435.20 321.26L435.20 321.26Q425.80 320.90 414.00 320.80Q402.20 320.71 392.98 320.71L392.98 320.71Q388.93 320.71 382.56 320.71Q376.20 320.71 368.83 320.80Q361.46 320.90 353.90 320.99Q346.34 321.08 339.52 321.26L339.52 321.26L339.52 317.58Q345.78 317.21 349.01 316.10Q352.24 315.00 353.34 311.68Q354.45 308.36 354.45 301.72L354.45 301.72L354.45 210.28Q354.45 203.46 353.34 200.23Q352.24 197.00 349.01 195.81Q345.78 194.61 339.52 194.42L339.52 194.42L339.52 190.74Q346.34 190.92 353.90 191.01Q361.46 191.10 368.83 191.20Q376.20 191.29 382.56 191.29Q388.93 191.29 392.98 191.29L392.98 191.29Q401.46 191.29 412.25 191.20Q423.03 191.10 431.51 190.74ZM366.06 253.79L399.80 253.79Q399.80 253.79 399.80 255.63Q399.80 257.47 399.80 257.47L399.80 257.47L366.06 257.47Q366.06 257.47 366.06 255.63Q366.06 253.79 366.06 253.79L366.06 253.79ZM400.91 229.45L405.15 229.45Q404.41 239.96 404.50 245.49Q404.60 251.02 404.60 255.63L404.60 255.63Q404.60 260.24 404.78 265.77Q404.96 271.30 405.70 281.81L405.70 281.81L401.46 281.81Q400.72 275.91 399.71 270.29Q398.70 264.67 395.29 261.07Q391.87 257.47 383.76 257.47L383.76 257.47L383.76 253.79Q389.85 253.79 393.07 251.30Q396.30 248.81 397.77 244.94Q399.25 241.07 399.80 236.92Q400.36 232.77 400.91 229.45L400.91 229.45Z" fill="#FFFFFF"/></svg>
