<svg xmlns="http://www.w3.org/2000/svg" viewBox="0 0 512 512" role="img"><rect width="512" height="512" fill="#0F172A"/><path d="M129.48 182.86L129.48 182.86L129.48 187.00Q122.46 187.20 118.84 188.54Q115.23 189.89 113.99 193.50Q112.75 197.12 112.75 204.76L112.75 204.76L112.75 307.24Q112.75 314.67 113.99 318.39Q115.23 322.11 118.84 323.25Q122.46 324.38 129.48 324.38L129.48 324.38L144.56 324.38Q154.28 324.38 160.37 322.32Q166.46 320.25 170.08 315.81Q173.70 311.37 175.55 303.93Q177.41 296.49 178.45 285.75L178.45 285.75L183.20 285.75Q182.58 292.16 182.58 302.69L182.58 302.69Q182.58 306.62 182.89 313.95Q183.20 321.29 184.03 329.14L184.03 329.14Q173.49 328.72 160.27 328.62Q147.04 328.52 136.71 328.52L136.71 328.52Q132.17 328.52 125.04 328.52Q117.91 328.52 109.65 328.62Q101.39 328.72 92.91 328.83Q84.44 328.93 76.80 329.14L76.80 329.14L76.80 325.00Q83.82 324.59 87.44 323.35Q91.06 322.11 92.30 318.39Q93.53 314.67 93.53 307.24L93.53 307.24L93.53 204.76Q93.53 197.12 92.30 193.50Q91.06 189.89 87.44 188.54Q83.82 187.20 76.80 187.00L76.80 187.00L76.80 182.86Q81.14 183.07 88.16 183.28Q95.19 183.48 103.24 183.48L103.24 183.48Q110.48 183.48 117.60 183.28Q124.73 183.07 129.48 182.86Z" fill="#FFFFFF"/><path d="M258.79 202.08L258.79 202.08Q264.68 202.08 268.55 203.39Q272.42 204.71 274.90 206.73L274.90 206.73Q276.92 208.28 278.16 210.13Q279.40 211.99 280.02 213.85Q280.64 215.71 280.64 217.42L280.64 217.42Q280.64 221.29 277.93 223.46Q275.21 225.63 271.96 225.63L271.96 225.63Q268.86 225.63 266.38 223.62Q263.90 221.60 263.90 217.88L263.90 217.88Q263.90 214.47 266.23 212.07Q268.55 209.67 272.11 209.36L272.11 209.36Q271.50 207.35 268.32 205.87Q265.14 204.40 260.34 204.40L260.34 204.40Q252.44 204.40 247.40 209.13Q242.36 213.85 242.36 222.84L242.36 222.84Q242.36 227.18 243.99 231.67Q245.62 236.17 250.27 240.50L250.27 240.50Q252.90 240.04 255.69 239.81Q258.48 239.58 259.87 239.58L259.87 239.58Q262.66 239.58 264.37 240.50Q266.07 241.43 266.07 243.14L266.07 243.14Q266.07 244.53 264.91 245.31Q263.75 246.08 261.73 246.08L261.73 246.08Q258.79 246.08 255.54 244.77Q252.28 243.45 250.42 242.67L250.42 242.67Q241.43 245.31 235.86 251.27Q230.28 257.24 230.28 268.09L230.28 268.09Q230.28 278.78 235.86 286.22Q241.43 293.65 250.81 297.60Q260.18 301.56 271.80 301.56L271.80 301.56Q280.02 301.56 287.38 299.62Q294.74 297.68 300.39 293.96Q306.05 290.24 309.30 285.05Q312.56 279.86 312.56 273.20L312.56 273.20Q312.56 270.26 311.32 265.68Q310.08 261.11 306.20 256.70Q302.33 252.28 294.27 249.80L294.27 249.80L296.13 248.25Q307.44 251.66 312.25 259.18Q317.05 266.69 317.05 275.99L317.05 275.99Q317.05 285.29 311.47 293.81Q305.89 302.33 295.36 307.68Q284.82 313.02 269.79 313.02L269.79 313.02Q259.72 313.02 250.65 310.39Q241.59 307.75 234.62 302.72Q227.64 297.68 223.62 290.55Q219.59 283.43 219.59 274.44L219.59 274.44Q219.59 266.07 222.84 260.11Q226.09 254.14 230.90 250.27Q235.70 246.39 240.50 244.30Q245.31 242.21 248.25 241.43L248.25 241.43Q243.14 239.11 239.65 235.93Q236.17 232.76 234.38 228.96Q232.60 225.16 232.60 221.45L232.60 221.45Q232.60 217.73 234.31 214.24Q236.01 210.75 239.27 207.97Q242.52 205.18 247.40 203.63Q252.28 202.08 258.79 202.08ZM315.19 198.98L315.19 198.98Q324.80 198.98 331.31 204.48Q337.81 209.98 337.81 219.90L337.81 219.90Q337.81 225.16 335.88 229.27Q333.94 233.38 330.61 236.48Q327.28 239.58 323.09 241.59L323.09 241.59Q319.53 243.29 313.72 245.31Q307.91 247.32 301.32 249.34Q294.74 251.35 288.77 253.29Q282.81 255.23 279.09 256.62L279.09 256.62Q273.35 258.79 269.40 261.97Q265.45 265.14 265.45 270.10L265.45 270.10Q265.45 274.13 267.78 276.92Q270.10 279.71 273.43 281.10Q276.76 282.50 279.71 282.50L279.71 282.50Q281.10 282.50 283.19 282.11Q285.29 281.72 286.99 280.95Q288.69 280.17 289.00 279.09L289.00 279.09Q286.53 278.62 284.12 276.84Q281.72 275.06 281.72 271.19L281.72 271.19Q281.72 267.47 284.20 265.30Q286.68 263.13 290.24 263.13L290.24 263.13Q293.96 263.13 296.21 265.45Q298.46 267.78 298.46 271.50L298.46 271.50Q298.46 275.83 295.59 278.86Q292.72 281.88 288.46 283.35Q284.20 284.82 280.02 284.82L280.02 284.82Q275.68 284.82 271.19 282.96Q266.69 281.10 263.75 277.15Q260.80 273.20 260.80 266.69L260.80 266.69Q260.80 261.27 263.21 257.08Q265.61 252.90 270.41 249.65Q275.21 246.39 282.19 244.07L282.19 244.07Q286.84 242.52 293.50 240.66Q300.16 238.80 307.21 236.63Q314.26 234.46 319.99 231.83L319.99 231.83Q327.74 228.26 330.53 224.55Q333.32 220.83 333.32 216.95L333.32 216.95Q333.32 212.46 330.84 208.97Q328.36 205.49 324.26 203.39Q320.15 201.30 315.35 201.30L315.35 201.30Q313.49 201.30 312.25 201.61Q311.01 201.92 310.70 202.70L310.70 202.70Q312.87 203.78 313.95 205.80Q315.04 207.81 315.04 209.82L315.04 209.82Q315.04 213.08 312.48 215.25Q309.92 217.42 306.36 217.42L306.36 217.42Q303.41 217.42 300.78 215.48Q298.15 213.54 298.15 209.67L298.15 209.67Q298.15 205.64 300.86 203.32Q303.57 200.99 307.52 199.99Q311.47 198.98 315.19 198.98Z" fill="#CC9A14"/><path d="M431.07 182.86L431.07 182.86Q430.24 190.09 429.93 196.91Q429.62 203.73 429.62 207.24L429.62 207.24Q429.62 210.96 429.83 214.37Q430.03 217.78 430.24 220.05L430.24 220.05L425.49 220.05Q424.25 207.86 421.98 200.73Q419.70 193.61 414.23 190.61Q408.76 187.62 397.81 187.62L397.81 187.62L380.66 187.62Q373.63 187.62 370.02 188.75Q366.40 189.89 365.16 193.50Q363.92 197.12 363.92 204.76L363.92 204.76L363.92 307.24Q363.92 314.67 365.16 318.39Q366.40 322.11 370.02 323.25Q373.63 324.38 380.66 324.38L380.66 324.38L395.74 324.38Q408.76 324.38 415.47 320.87Q422.18 317.36 425.18 309.41Q428.18 301.45 429.62 287.82L429.62 287.82L434.37 287.82Q433.75 293.39 433.75 302.69L433.75 302.69Q433.75 306.62 434.06 313.95Q434.37 321.29 435.20 329.14L435.20 329.14Q424.66 328.72 411.44 328.62Q398.22 328.52 387.89 328.52L387.89 328.52Q383.34 328.52 376.22 328.52Q369.09 328.52 360.82 328.62Q352.56 328.72 344.09 328.83Q335.62 328.93 327.97 329.14L327.97 329.14L327.97 325.00Q335.00 324.59 338.61 323.35Q342.23 322.11 343.47 318.39Q344.71 314.67 344.71 307.24L344.71 307.24L344.71 204.76Q344.71 197.12 343.47 193.50Q342.23 189.89 338.61 188.54Q335.00 187.20 327.97 187.00L327.97 187.00L327.97 182.86Q335.62 183.07 344.09 183.17Q352.56 183.28 360.82 183.38Q369.09 183.48 376.22 183.48Q383.34 183.48 387.89 183.48L387.89 183.48Q397.39 183.48 409.48 183.38Q421.56 183.28 431.07 182.86ZM357.72 253.52L395.53 253.52Q395.53 253.52 395.53 255.59Q395.53 257.65 395.53 257.65L395.53 257.65L357.72 257.65Q357.72 257.65 357.72 255.59Q357.72 253.52 357.72 253.52L357.72 253.52ZM396.77 226.25L401.52 226.25Q400.70 238.03 400.80 244.22Q400.90 250.42 400.90 255.59L400.90 255.59Q400.90 260.75 401.11 266.95Q401.32 273.15 402.14 284.92L402.14 284.92L397.39 284.92Q396.57 278.31 395.43 272.01Q394.29 265.71 390.47 261.68Q386.65 257.65 377.56 257.65L377.56 257.65L377.56 253.52Q384.38 253.52 387.99 250.73Q391.61 247.94 393.26 243.60Q394.91 239.27 395.53 234.62Q396.15 229.97 396.77 226.25L396.77 226.25Z" fill="#FFFFFF"/></svg>
