<svg xmlns="http://www.w3.org/2000/svg" viewBox="0 0 192 192" role="img"><rect width="192" height="192" fill="#0F172A"/><path d="M46.43 71.53L46.43 71.53L46.43 72.91Q44.08 72.98 42.87 73.43Q41.66 73.88 41.24 75.09Q40.83 76.30 40.83 78.85L40.83 78.85L40.83 113.15Q40.83 115.63 41.24 116.88Q41.66 118.12 42.87 118.50Q44.08 118.88 46.43 118.88L46.43 118.88L51.48 118.88Q54.73 118.88 56.77 118.19Q58.80 117.50 60.01 116.01Q61.22 114.53 61.85 112.04Q62.47 109.55 62.81 105.96L62.81 105.96L64.40 105.96Q64.20 108.10 64.20 111.62L64.20 111.62Q64.20 112.94 64.30 115.39Q64.40 117.85 64.68 120.47L64.68 120.47Q61.16 120.34 56.73 120.30Q52.31 120.27 48.85 120.27L48.85 120.27Q47.33 120.27 44.94 120.27Q42.56 120.27 39.79 120.30Q37.03 120.34 34.19 120.37Q31.36 120.40 28.80 120.47L28.80 120.47L28.80 119.09Q31.15 118.95 32.36 118.54Q33.57 118.12 33.99 116.88Q34.40 115.63 34.40 113.15L34.40 113.15L34.40 78.85Q34.40 76.30 33.99 75.09Q33.57 73.88 32.36 73.43Q31.15 72.98 28.80 72.91L28.80 72.91L28.80 71.53Q30.25 71.60 32.60 71.66Q34.95 71.73 37.65 71.73L37.65 71.73Q40.07 71.73 42.45 71.66Q44.84 71.60 46.43 71.53Z" fill="#FFFFFF"/><path d="M87.77 71.94L87.77 71.94Q90.40 71.94 92.13 72.53Q93.86 73.12 94.96 74.01L94.96 74.01Q95.86 74.71 96.41 75.54Q96.97 76.37 97.24 77.20Q97.52 78.02 97.52 78.79L97.52 78.79Q97.52 80.51 96.31 81.48Q95.10 82.45 93.65 82.45L93.65 82.45Q92.27 82.45 91.16 81.55Q90.05 80.65 90.05 78.99L90.05 78.99Q90.05 77.47 91.09 76.40Q92.13 75.33 93.72 75.19L93.72 75.19Q93.44 74.29 92.02 73.63Q90.61 72.98 88.46 72.98L88.46 72.98Q84.94 72.98 82.69 75.09Q80.44 77.20 80.44 81.20L80.44 81.20Q80.44 83.14 81.17 85.15Q81.90 87.15 83.97 89.09L83.97 89.09Q85.15 88.88 86.39 88.78Q87.63 88.67 88.26 88.67L88.26 88.67Q89.50 88.67 90.26 89.09Q91.02 89.50 91.02 90.26L91.02 90.26Q91.02 90.88 90.50 91.23Q89.99 91.58 89.09 91.58L89.09 91.58Q87.77 91.58 86.32 90.99Q84.87 90.40 84.04 90.05L84.04 90.05Q80.03 91.23 77.54 93.89Q75.05 96.55 75.05 101.39L75.05 101.39Q75.05 106.16 77.54 109.48Q80.03 112.80 84.21 114.56Q88.40 116.33 93.58 116.33L93.58 116.33Q97.24 116.33 100.53 115.46Q103.81 114.60 106.34 112.94Q108.86 111.28 110.31 108.96Q111.76 106.65 111.76 103.67L111.76 103.67Q111.76 102.36 111.21 100.32Q110.66 98.28 108.93 96.31Q107.20 94.34 103.60 93.23L103.60 93.23L104.43 92.54Q109.48 94.06 111.62 97.42Q113.77 100.77 113.77 104.92L113.77 104.92Q113.77 109.07 111.28 112.87Q108.79 116.67 104.09 119.06Q99.39 121.44 92.68 121.44L92.68 121.44Q88.19 121.44 84.14 120.27Q80.10 119.09 76.99 116.84Q73.88 114.60 72.08 111.42Q70.28 108.24 70.28 104.23L70.28 104.23Q70.28 100.49 71.73 97.83Q73.19 95.17 75.33 93.44Q77.47 91.71 79.61 90.78Q81.76 89.85 83.07 89.50L83.07 89.50Q80.79 88.46 79.23 87.05Q77.68 85.63 76.88 83.94Q76.09 82.24 76.09 80.58L76.09 80.58Q76.09 78.92 76.85 77.37Q77.61 75.81 79.06 74.57Q80.51 73.32 82.69 72.63Q84.87 71.94 87.77 71.94ZM112.94 70.56L112.94 70.56Q117.22 70.56 120.13 73.01Q123.03 75.47 123.03 79.89L123.03 79.89Q123.03 82.24 122.17 84.07Q121.30 85.91 119.82 87.29Q118.33 88.67 116.46 89.57L116.46 89.57Q114.87 90.33 112.28 91.23Q109.69 92.13 106.75 93.03Q103.81 93.93 101.15 94.79Q98.49 95.65 96.83 96.28L96.83 96.28Q94.27 97.24 92.51 98.66Q90.75 100.08 90.75 102.29L90.75 102.29Q90.75 104.09 91.78 105.33Q92.82 106.58 94.31 107.20Q95.79 107.82 97.11 107.82L97.11 107.82Q97.73 107.82 98.66 107.65Q99.60 107.48 100.36 107.13Q101.12 106.79 101.25 106.30L101.25 106.30Q100.15 106.09 99.08 105.30Q98.00 104.50 98.00 102.78L98.00 102.78Q98.00 101.12 99.11 100.15Q100.22 99.18 101.81 99.18L101.81 99.18Q103.47 99.18 104.47 100.22Q105.47 101.25 105.47 102.91L105.47 102.91Q105.47 104.85 104.19 106.20Q102.91 107.55 101.01 108.20Q99.11 108.86 97.24 108.86L97.24 108.86Q95.31 108.86 93.30 108.03Q91.30 107.20 89.99 105.44Q88.67 103.67 88.67 100.77L88.67 100.77Q88.67 98.35 89.74 96.48Q90.81 94.62 92.96 93.17Q95.10 91.71 98.21 90.68L98.21 90.68Q100.29 89.99 103.26 89.16Q106.23 88.33 109.38 87.36Q112.52 86.39 115.08 85.21L115.08 85.21Q118.54 83.62 119.78 81.97Q121.03 80.31 121.03 78.58L121.03 78.58Q121.03 76.57 119.92 75.02Q118.81 73.46 116.98 72.53Q115.15 71.60 113.01 71.60L113.01 71.60Q112.18 71.60 111.62 71.73Q111.07 71.87 110.93 72.22L110.93 72.22Q111.90 72.70 112.39 73.60Q112.87 74.50 112.87 75.40L112.87 75.40Q112.87 76.85 111.73 77.82Q110.59 78.79 109.00 78.79L109.00 78.79Q107.68 78.79 106.51 77.92Q105.33 77.06 105.33 75.33L105.33 75.33Q105.33 73.53 106.54 72.49Q107.75 71.46 109.52 71.01Q111.28 70.56 112.94 70.56Z" fill="#FFFFFF" fill-opacity="0.4"/><path d="M161.82 71.53L161.82 71.53Q161.54 73.95 161.44 76.23Q161.33 78.51 161.33 79.68L161.33 79.68Q161.33 80.93 161.40 82.07Q161.47 83.21 161.54 83.97L161.54 83.97L159.95 83.97Q159.54 79.89 158.78 77.51Q158.01 75.12 156.18 74.12Q154.35 73.12 150.69 73.12L150.69 73.12L144.95 73.12Q142.60 73.12 141.39 73.50Q140.18 73.88 139.76 75.09Q139.35 76.30 139.35 78.85L139.35 78.85L139.35 113.15Q139.35 115.63 139.76 116.88Q140.18 118.12 141.39 118.50Q142.60 118.88 144.95 118.88L144.95 118.88L150.00 118.88Q154.35 118.88 156.60 117.71Q158.84 116.53 159.85 113.87Q160.85 111.21 161.33 106.65L161.33 106.65L162.92 106.65Q162.72 108.51 162.72 111.62L162.72 111.62Q162.72 112.94 162.82 115.39Q162.92 117.85 163.20 120.47L163.20 120.47Q159.67 120.34 155.25 120.30Q150.82 120.27 147.37 120.27L147.37 120.27Q145.85 120.27 143.46 120.27Q141.08 120.27 138.31 120.30Q135.55 120.34 132.71 120.37Q129.88 120.40 127.32 120.47L127.32 120.47L127.32 119.09Q129.67 118.95 130.88 118.54Q132.09 118.12 132.50 116.88Q132.92 115.63 132.92 113.15L132.92 113.15L132.92 78.85Q132.92 76.30 132.50 75.09Q132.09 73.88 130.88 73.43Q129.67 72.98 127.32 72.91L127.32 72.91L127.32 71.53Q129.88 71.60 132.71 71.63Q135.55 71.66 138.31 71.70Q141.08 71.73 143.46 71.73Q145.85 71.73 147.37 71.73L147.37 71.73Q150.55 71.73 154.59 71.70Q158.64 71.66 161.82 71.53ZM137.27 95.17L149.93 95.17Q149.93 95.17 149.93 95.86Q149.93 96.55 149.93 96.55L149.93 96.55L137.27 96.55Q137.27 96.55 137.27 95.86Q137.27 95.17 137.27 95.17L137.27 95.17ZM150.34 86.04L151.93 86.04Q151.65 89.99 151.69 92.06Q151.72 94.13 151.72 95.86L151.72 95.86Q151.72 97.59 151.79 99.66Q151.86 101.74 152.14 105.68L152.14 105.68L150.55 105.68Q150.27 103.47 149.89 101.36Q149.51 99.25 148.23 97.90Q146.95 96.55 143.91 96.55L143.91 96.55L143.91 95.17Q146.19 95.17 147.40 94.24Q148.61 93.30 149.17 91.85Q149.72 90.40 149.93 88.84Q150.13 87.29 150.34 86.04L150.34 86.04Z" fill="#FFFFFF"/></svg>
