<svg xmlns="http://www.w3.org/2000/svg" viewBox="0 0 192 192" role="img"><rect width="192" height="192" fill="#0F172A"/><path d="M48.56 68.57L48.56 68.57L48.56 70.12Q45.92 70.20 44.57 70.70Q43.21 71.21 42.75 72.56Q42.28 73.92 42.28 76.79L42.28 76.79L42.28 115.21Q42.28 118.00 42.75 119.40Q43.21 120.79 44.57 121.22Q45.92 121.64 48.56 121.64L48.56 121.64L54.21 121.64Q57.85 121.64 60.14 120.87Q62.42 120.09 63.78 118.43Q65.14 116.76 65.83 113.97Q66.53 111.19 66.92 107.16L66.92 107.16L68.70 107.16Q68.47 109.56 68.47 113.51L68.47 113.51Q68.47 114.98 68.58 117.73Q68.70 120.48 69.01 123.43L69.01 123.43Q65.06 123.27 60.10 123.23Q55.14 123.19 51.27 123.19L51.27 123.19Q49.56 123.19 46.89 123.19Q44.22 123.19 41.12 123.23Q38.02 123.27 34.84 123.31Q31.67 123.35 28.80 123.43L28.80 123.43L28.80 121.88Q31.43 121.72 32.79 121.26Q34.15 120.79 34.61 119.40Q35.08 118.00 35.08 115.21L35.08 115.21L35.08 76.79Q35.08 73.92 34.61 72.56Q34.15 71.21 32.79 70.70Q31.43 70.20 28.80 70.12L28.80 70.12L28.80 68.57Q30.43 68.65 33.06 68.73Q35.70 68.81 38.72 68.81L38.72 68.81Q41.43 68.81 44.10 68.73Q46.77 68.65 48.56 68.57Z" fill="#FFFFFF"/><path d="M97.05 75.78L97.05 75.78Q99.25 75.78 100.71 76.27Q102.16 76.77 103.09 77.52L103.09 77.52Q103.84 78.10 104.31 78.80Q104.77 79.50 105.01 80.20Q105.24 80.89 105.24 81.53L105.24 81.53Q105.24 82.98 104.22 83.80Q103.21 84.61 101.98 84.61L101.98 84.61Q100.82 84.61 99.89 83.86Q98.96 83.10 98.96 81.71L98.96 81.71Q98.96 80.43 99.84 79.53Q100.71 78.63 102.04 78.51L102.04 78.51Q101.81 77.75 100.62 77.20Q99.43 76.65 97.63 76.65L97.63 76.65Q94.66 76.65 92.78 78.42Q90.89 80.20 90.89 83.57L90.89 83.57Q90.89 85.19 91.50 86.88Q92.11 88.56 93.85 90.19L93.85 90.19Q94.84 90.02 95.88 89.93Q96.93 89.84 97.45 89.84L97.45 89.84Q98.50 89.84 99.14 90.19Q99.78 90.54 99.78 91.18L99.78 91.18Q99.78 91.70 99.34 91.99Q98.91 92.28 98.15 92.28L98.15 92.28Q97.05 92.28 95.83 91.79Q94.61 91.29 93.91 91.00L93.91 91.00Q90.54 91.99 88.45 94.23Q86.35 96.46 86.35 100.53L86.35 100.53Q86.35 104.54 88.45 107.33Q90.54 110.12 94.05 111.60Q97.57 113.08 101.93 113.08L101.93 113.08Q105.01 113.08 107.77 112.36Q110.53 111.63 112.65 110.24Q114.77 108.84 115.99 106.89Q117.21 104.95 117.21 102.45L117.21 102.45Q117.21 101.35 116.74 99.63Q116.28 97.92 114.83 96.26Q113.37 94.61 110.35 93.68L110.35 93.68L111.05 93.09Q115.29 94.37 117.09 97.19Q118.89 100.01 118.89 103.50L118.89 103.50Q118.89 106.98 116.80 110.18Q114.71 113.37 110.76 115.38Q106.81 117.38 101.17 117.38L101.17 117.38Q97.39 117.38 94.00 116.40Q90.60 115.41 87.98 113.52Q85.37 111.63 83.86 108.96Q82.35 106.28 82.35 102.91L82.35 102.91Q82.35 99.78 83.57 97.54Q84.79 95.30 86.59 93.85Q88.39 92.40 90.19 91.61Q91.99 90.83 93.09 90.54L93.09 90.54Q91.18 89.67 89.87 88.48Q88.56 87.28 87.89 85.86Q87.23 84.44 87.23 83.04L87.23 83.04Q87.23 81.65 87.87 80.34Q88.50 79.03 89.72 77.99Q90.94 76.94 92.78 76.36Q94.61 75.78 97.05 75.78ZM118.20 74.62L118.20 74.62Q121.80 74.62 124.24 76.68Q126.68 78.74 126.68 82.46L126.68 82.46Q126.68 84.44 125.95 85.98Q125.23 87.52 123.98 88.68Q122.73 89.84 121.16 90.60L121.16 90.60Q119.82 91.24 117.64 91.99Q115.47 92.75 113.00 93.50Q110.53 94.26 108.29 94.98Q106.05 95.71 104.66 96.23L104.66 96.23Q102.51 97.05 101.03 98.24Q99.54 99.43 99.54 101.29L99.54 101.29Q99.54 102.80 100.42 103.84Q101.29 104.89 102.54 105.41Q103.79 105.94 104.89 105.94L104.89 105.94Q105.41 105.94 106.20 105.79Q106.98 105.65 107.62 105.36Q108.26 105.06 108.38 104.66L108.38 104.66Q107.45 104.48 106.55 103.82Q105.65 103.15 105.65 101.69L105.65 101.69Q105.65 100.30 106.58 99.49Q107.51 98.67 108.84 98.67L108.84 98.67Q110.24 98.67 111.08 99.54Q111.92 100.42 111.92 101.81L111.92 101.81Q111.92 103.44 110.85 104.57Q109.77 105.70 108.17 106.26Q106.58 106.81 105.01 106.81L105.01 106.81Q103.38 106.81 101.69 106.11Q100.01 105.41 98.91 103.93Q97.80 102.45 97.80 100.01L97.80 100.01Q97.80 97.98 98.70 96.41Q99.60 94.84 101.40 93.62Q103.21 92.40 105.82 91.53L105.82 91.53Q107.56 90.94 110.06 90.25Q112.56 89.55 115.20 88.74Q117.85 87.92 120.00 86.94L120.00 86.94Q122.90 85.60 123.95 84.20Q125.00 82.81 125.00 81.36L125.00 81.36Q125.00 79.67 124.07 78.36Q123.14 77.06 121.60 76.27Q120.06 75.49 118.25 75.49L118.25 75.49Q117.56 75.49 117.09 75.60Q116.63 75.72 116.51 76.01L116.51 76.01Q117.33 76.42 117.73 77.17Q118.14 77.93 118.14 78.68L118.14 78.68Q118.14 79.90 117.18 80.72Q116.22 81.53 114.88 81.53L114.88 81.53Q113.78 81.53 112.79 80.81Q111.80 80.08 111.80 78.63L111.80 78.63Q111.80 77.12 112.82 76.24Q113.84 75.37 115.32 74.99Q116.80 74.62 118.20 74.62Z" fill="#CC9A14"/><path d="M161.65 68.57L161.65 68.57Q161.34 71.29 161.22 73.84Q161.11 76.40 161.11 77.72L161.11 77.72Q161.11 79.11 161.19 80.39Q161.26 81.67 161.34 82.52L161.34 82.52L159.56 82.52Q159.09 77.95 158.24 75.28Q157.39 72.60 155.34 71.48Q153.28 70.36 149.18 70.36L149.18 70.36L142.75 70.36Q140.11 70.36 138.76 70.78Q137.40 71.21 136.94 72.56Q136.47 73.92 136.47 76.79L136.47 76.79L136.47 115.21Q136.47 118.00 136.94 119.40Q137.40 120.79 138.76 121.22Q140.11 121.64 142.75 121.64L142.75 121.64L148.40 121.64Q153.28 121.64 155.80 120.33Q158.32 119.01 159.44 116.03Q160.57 113.04 161.11 107.93L161.11 107.93L162.89 107.93Q162.66 110.02 162.66 113.51L162.66 113.51Q162.66 114.98 162.77 117.73Q162.89 120.48 163.20 123.43L163.20 123.43Q159.25 123.27 154.29 123.23Q149.33 123.19 145.46 123.19L145.46 123.19Q143.75 123.19 141.08 123.19Q138.41 123.19 135.31 123.23Q132.21 123.27 129.03 123.31Q125.86 123.35 122.99 123.43L122.99 123.43L122.99 121.88Q125.62 121.72 126.98 121.26Q128.34 120.79 128.80 119.40Q129.27 118.00 129.27 115.21L129.27 115.21L129.27 76.79Q129.27 73.92 128.80 72.56Q128.34 71.21 126.98 70.70Q125.62 70.20 122.99 70.12L122.99 70.12L122.99 68.57Q125.86 68.65 129.03 68.69Q132.21 68.73 135.31 68.77Q138.41 68.81 141.08 68.81Q143.75 68.81 145.46 68.81L145.46 68.81Q149.02 68.81 153.55 68.77Q158.09 68.73 161.65 68.57ZM134.15 95.07L148.32 95.07Q148.32 95.07 148.32 95.85Q148.32 96.62 148.32 96.62L148.32 96.62L134.15 96.62Q134.15 96.62 134.15 95.85Q134.15 95.07 134.15 95.07L134.15 95.07ZM148.79 84.84L150.57 84.84Q150.26 89.26 150.30 91.58Q150.34 93.91 150.34 95.85L150.34 95.85Q150.34 97.78 150.42 100.11Q150.49 102.43 150.80 106.85L150.80 106.85L149.02 106.85Q148.71 104.37 148.29 102.00Q147.86 99.64 146.43 98.13Q144.99 96.62 141.58 96.62L141.58 96.62L141.58 95.07Q144.14 95.07 145.50 94.02Q146.85 92.98 147.47 91.35Q148.09 89.72 148.32 87.98Q148.56 86.24 148.79 84.84L148.79 84.84Z" fill="#FFFFFF"/></svg>
