<svg xmlns="http://www.w3.org/2000/svg" viewBox="0 0 180 180" role="img"><rect width="180" height="180" fill="#0F172A"/><path d="M43.53 67.06L43.53 67.06L43.53 68.35Q41.32 68.42 40.19 68.84Q39.06 69.26 38.67 70.39Q38.28 71.53 38.28 73.93L38.28 73.93L38.28 106.07Q38.28 108.41 38.67 109.57Q39.06 110.74 40.19 111.10Q41.32 111.45 43.53 111.45L43.53 111.45L48.26 111.45Q51.31 111.45 53.22 110.81Q55.13 110.16 56.26 108.76Q57.40 107.37 57.98 105.04Q58.56 102.70 58.89 99.33L58.89 99.33L60.38 99.33Q60.19 101.34 60.19 104.65L60.19 104.65Q60.19 105.88 60.28 108.18Q60.38 110.48 60.64 112.94L60.64 112.94Q57.33 112.81 53.19 112.78Q49.04 112.75 45.80 112.75L45.80 112.75Q44.37 112.75 42.13 112.75Q39.90 112.75 37.31 112.78Q34.71 112.81 32.06 112.85Q29.40 112.88 27 112.94L27 112.94L27 111.65Q29.20 111.52 30.34 111.13Q31.47 110.74 31.86 109.57Q32.25 108.41 32.25 106.07L32.25 106.07L32.25 73.93Q32.25 71.53 31.86 70.39Q31.47 69.26 30.34 68.84Q29.20 68.42 27 68.35L27 68.35L27 67.06Q28.36 67.12 30.56 67.19Q32.77 67.25 35.30 67.25L35.30 67.25Q37.56 67.25 39.80 67.19Q42.04 67.12 43.53 67.06Z" fill="#FFFFFF"/><path d="M82.29 67.44L82.29 67.44Q84.75 67.44 86.37 68.00Q87.99 68.55 89.03 69.39L89.03 69.39Q89.87 70.04 90.39 70.81Q90.91 71.59 91.17 72.37Q91.43 73.15 91.43 73.86L91.43 73.86Q91.43 75.48 90.29 76.39Q89.16 77.30 87.80 77.30L87.80 77.30Q86.50 77.30 85.46 76.45Q84.43 75.61 84.43 74.06L84.43 74.06Q84.43 72.63 85.40 71.63Q86.37 70.62 87.86 70.49L87.86 70.49Q87.60 69.65 86.27 69.03Q84.94 68.42 82.94 68.42L82.94 68.42Q79.63 68.42 77.52 70.39Q75.42 72.37 75.42 76.13L75.42 76.13Q75.42 77.94 76.10 79.82Q76.78 81.70 78.72 83.52L78.72 83.52Q79.82 83.32 80.99 83.23Q82.16 83.13 82.74 83.13L82.74 83.13Q83.91 83.13 84.62 83.52Q85.33 83.91 85.33 84.62L85.33 84.62Q85.33 85.20 84.85 85.53Q84.36 85.85 83.52 85.85L83.52 85.85Q82.29 85.85 80.93 85.30Q79.56 84.75 78.79 84.43L78.79 84.43Q75.03 85.53 72.69 88.02Q70.36 90.52 70.36 95.06L70.36 95.06Q70.36 99.53 72.69 102.64Q75.03 105.75 78.95 107.40Q82.87 109.06 87.73 109.06L87.73 109.06Q91.17 109.06 94.25 108.25Q97.32 107.44 99.69 105.88Q102.06 104.32 103.42 102.15Q104.78 99.98 104.78 97.19L104.78 97.19Q104.78 95.96 104.26 94.05Q103.74 92.14 102.12 90.29Q100.50 88.44 97.13 87.41L97.13 87.41L97.91 86.76Q102.64 88.19 104.65 91.33Q106.66 94.47 106.66 98.36L106.66 98.36Q106.66 102.25 104.32 105.81Q101.99 109.38 97.58 111.62Q93.18 113.85 86.89 113.85L86.89 113.85Q82.68 113.85 78.88 112.75Q75.09 111.65 72.18 109.54Q69.26 107.44 67.57 104.45Q65.89 101.47 65.89 97.71L65.89 97.71Q65.89 94.21 67.25 91.72Q68.61 89.22 70.62 87.60Q72.63 85.98 74.64 85.11Q76.65 84.23 77.88 83.91L77.88 83.91Q75.74 82.94 74.28 81.61Q72.82 80.28 72.08 78.69Q71.33 77.10 71.33 75.55L71.33 75.55Q71.33 73.99 72.05 72.53Q72.76 71.07 74.12 69.91Q75.48 68.74 77.52 68.09Q79.56 67.44 82.29 67.44ZM105.88 66.15L105.88 66.15Q109.90 66.15 112.62 68.45Q115.34 70.75 115.34 74.90L115.34 74.90Q115.34 77.10 114.53 78.82Q113.72 80.54 112.33 81.83Q110.94 83.13 109.19 83.97L109.19 83.97Q107.69 84.69 105.26 85.53Q102.83 86.37 100.08 87.21Q97.32 88.06 94.83 88.87Q92.33 89.68 90.78 90.26L90.78 90.26Q88.38 91.17 86.73 92.50Q85.07 93.82 85.07 95.90L85.07 95.90Q85.07 97.58 86.05 98.75Q87.02 99.92 88.41 100.50Q89.81 101.08 91.04 101.08L91.04 101.08Q91.62 101.08 92.50 100.92Q93.37 100.76 94.08 100.44Q94.80 100.11 94.93 99.66L94.93 99.66Q93.89 99.46 92.88 98.72Q91.88 97.97 91.88 96.35L91.88 96.35Q91.88 94.80 92.92 93.89Q93.95 92.98 95.44 92.98L95.44 92.98Q97 92.98 97.94 93.95Q98.88 94.93 98.88 96.48L98.88 96.48Q98.88 98.30 97.68 99.56Q96.48 100.82 94.70 101.44Q92.92 102.06 91.17 102.06L91.17 102.06Q89.35 102.06 87.47 101.28Q85.59 100.50 84.36 98.85Q83.13 97.19 83.13 94.47L83.13 94.47Q83.13 92.20 84.13 90.45Q85.14 88.70 87.15 87.34Q89.16 85.98 92.07 85.01L92.07 85.01Q94.02 84.36 96.81 83.58Q99.59 82.81 102.54 81.90Q105.49 80.99 107.89 79.89L107.89 79.89Q111.13 78.40 112.30 76.84Q113.46 75.29 113.46 73.67L113.46 73.67Q113.46 71.79 112.43 70.33Q111.39 68.87 109.67 68.00Q107.95 67.12 105.94 67.12L105.94 67.12Q105.17 67.12 104.65 67.25Q104.13 67.38 104 67.70L104 67.70Q104.91 68.16 105.36 69Q105.81 69.84 105.81 70.69L105.81 70.69Q105.81 72.05 104.75 72.95Q103.68 73.86 102.19 73.86L102.19 73.86Q100.95 73.86 99.85 73.05Q98.75 72.24 98.75 70.62L98.75 70.62Q98.75 68.94 99.88 67.96Q101.02 66.99 102.67 66.57Q104.32 66.15 105.88 66.15Z" fill="#FFFFFF" fill-opacity="0.4"/><path d="M151.70 67.06L151.70 67.06Q151.44 69.32 151.35 71.46Q151.25 73.60 151.25 74.70L151.25 74.70Q151.25 75.87 151.31 76.94Q151.38 78.01 151.44 78.72L151.44 78.72L149.95 78.72Q149.56 74.90 148.85 72.66Q148.14 70.43 146.42 69.49Q144.70 68.55 141.27 68.55L141.27 68.55L135.89 68.55Q133.69 68.55 132.55 68.90Q131.42 69.26 131.03 70.39Q130.64 71.53 130.64 73.93L130.64 73.93L130.64 106.07Q130.64 108.41 131.03 109.57Q131.42 110.74 132.55 111.10Q133.69 111.45 135.89 111.45L135.89 111.45L140.62 111.45Q144.70 111.45 146.81 110.35Q148.92 109.25 149.86 106.75Q150.80 104.26 151.25 99.98L151.25 99.98L152.74 99.98Q152.55 101.73 152.55 104.65L152.55 104.65Q152.55 105.88 152.64 108.18Q152.74 110.48 153 112.94L153 112.94Q149.69 112.81 145.55 112.78Q141.40 112.75 138.16 112.75L138.16 112.75Q136.73 112.75 134.50 112.75Q132.26 112.75 129.67 112.78Q127.07 112.81 124.42 112.85Q121.76 112.88 119.36 112.94L119.36 112.94L119.36 111.65Q121.56 111.52 122.70 111.13Q123.83 110.74 124.22 109.57Q124.61 108.41 124.61 106.07L124.61 106.07L124.61 73.93Q124.61 71.53 124.22 70.39Q123.83 69.26 122.70 68.84Q121.56 68.42 119.36 68.35L119.36 68.35L119.36 67.06Q121.76 67.12 124.42 67.15Q127.07 67.19 129.67 67.22Q132.26 67.25 134.50 67.25Q136.73 67.25 138.16 67.25L138.16 67.25Q141.14 67.25 144.93 67.22Q148.72 67.19 151.70 67.06ZM128.69 89.22L140.56 89.22Q140.56 89.22 140.56 89.87Q140.56 90.52 140.56 90.52L140.56 90.52L128.69 90.52Q128.69 90.52 128.69 89.87Q128.69 89.22 128.69 89.22L128.69 89.22ZM140.94 80.67L142.44 80.67Q142.18 84.36 142.21 86.31Q142.24 88.25 142.24 89.87L142.24 89.87Q142.24 91.49 142.31 93.44Q142.37 95.38 142.63 99.07L142.63 99.07L141.14 99.07Q140.88 97 140.52 95.02Q140.17 93.05 138.97 91.78Q137.77 90.52 134.92 90.52L134.92 90.52L134.92 89.22Q137.06 89.22 138.19 88.35Q139.32 87.47 139.84 86.11Q140.36 84.75 140.56 83.29Q140.75 81.83 140.94 80.67L140.94 80.67Z" fill="#FFFFFF"/></svg>
