<svg xmlns="http://www.w3.org/2000/svg" viewBox="0 0 180 180" role="img"><rect width="180" height="180" fill="#0F172A"/><path d="M48.58 65.75L48.58 65.75L48.58 67.12Q46.25 67.19 45.05 67.64Q43.85 68.08 43.44 69.28Q43.03 70.48 43.03 73.01L43.03 73.01L43.03 107.81Q43.03 109.93 43.34 110.96Q43.64 111.99 44.57 112.33Q45.49 112.67 47.34 112.67L47.34 112.67L50.70 112.67Q53.03 112.67 55.08 111.58Q57.14 110.48 58.78 108.46Q60.43 106.44 61.52 103.63Q62.62 100.82 63.17 97.40L63.17 97.40L64.74 97.40Q64.54 99.73 64.54 103.43L64.54 103.43Q64.54 105.00 64.60 108.01Q64.67 111.03 65.02 114.25L65.02 114.25Q61.52 114.11 57.14 114.08Q52.75 114.04 49.33 114.04L49.33 114.04L44.95 114.04Q42.27 114.04 39.19 114.08Q36.11 114.11 32.96 114.15Q29.81 114.18 27 114.25L27 114.25L27 112.88Q29.19 112.74 30.29 112.33Q31.38 111.92 31.76 110.69Q32.14 109.45 32.14 106.99L32.14 106.99L32.14 73.01Q32.14 70.48 31.76 69.28Q31.38 68.08 30.25 67.64Q29.12 67.19 27 67.12L27 67.12L27 65.75Q28.71 65.82 31.62 65.89Q34.53 65.96 37.82 65.96L37.82 65.96Q40.84 65.96 43.75 65.89Q46.66 65.82 48.58 65.75Z" fill="#FFFFFF"/><path d="M83.48 71.71L83.48 71.71Q85.48 71.71 86.71 71.99Q87.95 72.28 88.82 72.79L88.82 72.79Q89.64 73.15 90.33 73.71Q91.03 74.28 91.49 75.10Q91.95 75.92 91.95 76.95L91.95 76.95Q91.95 78.49 90.77 79.42Q89.59 80.34 88.00 80.34L88.00 80.34Q86.46 80.34 85.35 79.57Q84.25 78.80 84.25 77.16L84.25 77.16Q84.25 75.87 85.17 74.82Q86.10 73.77 87.53 73.51L87.53 73.51Q87.17 73.10 86.22 72.84Q85.27 72.58 84.14 72.58L84.14 72.58Q81.47 72.58 79.60 74.25Q77.72 75.92 77.72 79.31L77.72 79.31Q77.72 80.50 78.13 81.83Q78.54 83.17 79.73 84.55L79.73 84.55Q80.60 84.35 81.34 84.25Q82.09 84.14 82.60 84.14L82.60 84.14Q83.53 84.14 84.02 84.53Q84.50 84.91 84.50 85.53L84.50 85.53Q84.50 85.99 84.09 86.30Q83.68 86.61 83.06 86.61L83.06 86.61Q82.19 86.61 81.27 86.12Q80.34 85.63 79.78 85.27L79.78 85.27Q77.36 86.51 75.85 88.43Q74.33 90.36 74.33 93.60L74.33 93.60Q74.33 96.99 76.18 99.17Q78.03 101.35 81.40 102.46Q84.76 103.56 89.33 103.56L89.33 103.56Q91.90 103.56 94.42 103.00Q96.94 102.43 98.96 101.30Q100.99 100.17 102.23 98.50Q103.46 96.83 103.46 94.62L103.46 94.62Q103.46 93.80 103.23 92.54Q103.00 91.28 102.12 90L102.12 90Q101.30 88.87 99.56 88.10L99.56 88.10Q98.53 88.41 97.40 88.72L97.40 88.72Q96.27 89.02 95.21 89.33Q94.16 89.64 93.39 89.85L93.39 89.85Q89.38 90.72 87.23 91.82Q85.07 92.93 85.07 94.83L85.07 94.83Q85.07 96.11 85.92 97.04Q86.76 97.96 88.05 98.48Q89.33 98.99 90.62 98.99L90.62 98.99Q90.98 98.99 91.39 98.91Q91.80 98.84 92.16 98.71Q92.52 98.58 92.67 98.48L92.67 98.48Q91.39 98.07 90.74 97.17Q90.10 96.27 90.10 95.09L90.10 95.09Q90.10 93.44 91.28 92.57Q92.47 91.70 94.21 91.70L94.21 91.70Q96.06 91.70 97.12 92.67Q98.17 93.65 98.17 95.19L98.17 95.19Q98.17 96.78 97.19 97.83Q96.22 98.89 94.57 99.38Q92.93 99.86 90.87 99.86L90.87 99.86Q88.87 99.86 87.10 99.14Q85.33 98.43 84.27 96.96Q83.22 95.50 83.22 93.29L83.22 93.29Q83.22 90.57 84.61 88.74Q85.99 86.92 88.59 85.71Q91.18 84.50 94.73 83.84L94.73 83.84Q95.81 83.58 97.12 83.24Q98.43 82.91 99.81 82.55Q101.20 82.19 102.38 81.78L102.38 81.78Q106.08 80.86 108.11 79.73Q110.14 78.60 110.14 76.69L110.14 76.69Q110.14 75.31 109.29 74.25Q108.44 73.20 107.11 72.61Q105.77 72.02 104.33 72.02L104.33 72.02Q103.87 72.02 103.49 72.07Q103.10 72.12 102.84 72.28L102.84 72.28Q104.13 72.74 104.74 73.66Q105.36 74.59 105.36 75.51L105.36 75.51Q105.36 77.11 104.18 77.95Q103.00 78.80 101.25 78.80Q99.50 78.80 98.37 77.90Q97.24 77.00 97.24 75.41L97.24 75.41Q97.24 74.02 98.04 73.07Q98.84 72.12 100.27 71.61Q101.71 71.09 103.67 71.09L103.67 71.09Q107.31 71.09 109.57 73.00Q111.83 74.90 111.83 78.34L111.83 78.34Q111.83 80.96 110.57 82.76Q109.32 84.55 106.98 85.68Q104.64 86.81 101.40 87.48L101.40 87.48Q100.99 87.64 100.48 87.79L100.48 87.79Q102.59 88.77 103.82 90.77L103.82 90.77Q105.26 93.19 105.26 96.32L105.26 96.32Q105.26 99.91 103.05 102.77Q100.84 105.62 96.86 107.26Q92.88 108.91 87.53 108.91L87.53 108.91Q83.27 108.91 79.80 108.03Q76.33 107.16 73.84 105.49Q71.35 103.82 69.99 101.46Q68.63 99.09 68.63 96.11L68.63 96.11Q68.63 93.24 69.84 91.21Q71.04 89.18 72.79 87.87Q74.54 86.56 76.28 85.84Q78.03 85.12 79.06 84.86L79.06 84.86Q77.47 84.19 76.16 83.30Q74.85 82.40 74.05 81.16Q73.25 79.93 73.25 78.39L73.25 78.39Q73.25 76.75 74.13 75.49Q75.00 74.23 76.46 73.41Q77.93 72.58 79.75 72.15Q81.57 71.71 83.48 71.71Z" fill="#CC9A14"/><path d="M151.63 65.75L151.63 65.75Q151.36 68.77 151.25 71.57Q151.15 74.38 151.15 75.89L151.15 75.89Q151.15 77.26 151.22 78.49Q151.29 79.73 151.36 80.55L151.36 80.55L149.78 80.55Q149.10 75.55 147.66 72.64Q146.22 69.72 143.92 68.53Q141.63 67.33 138.55 67.33L138.55 67.33L135.74 67.33Q133.75 67.33 132.72 67.67Q131.70 68.01 131.35 69.04Q131.01 70.07 131.01 72.19L131.01 72.19L131.01 89.18L133.20 89.18Q135.26 89.18 136.70 88.32Q138.14 87.47 139.06 86.06Q139.99 84.66 140.53 83.08Q141.08 81.51 141.36 80.14L141.36 80.14L142.93 80.14Q142.66 84.04 142.69 86.10Q142.73 88.15 142.73 89.86Q142.73 91.58 142.79 93.63Q142.86 95.69 143.14 99.59L143.14 99.59L141.56 99.59Q141.22 97.19 140.29 95.14Q139.37 93.08 137.66 91.82Q135.94 90.55 133.20 90.55L133.20 90.55L131.01 90.55L131.01 107.81Q131.01 109.93 131.35 110.96Q131.70 111.99 132.72 112.33Q133.75 112.67 135.74 112.67L135.74 112.67L139.10 112.67Q142.18 112.67 144.54 111.34Q146.90 110.00 148.58 106.78Q150.26 103.56 151.15 98.08L151.15 98.08L152.73 98.08Q152.52 100.27 152.52 103.84L152.52 103.84Q152.52 105.41 152.59 108.29Q152.66 111.17 153 114.25L153 114.25Q149.51 114.11 145.12 114.08Q140.74 114.04 137.31 114.04L137.31 114.04L132.93 114.04Q130.26 114.04 127.18 114.08Q124.09 114.11 120.94 114.15Q117.79 114.18 114.98 114.25L114.98 114.25L114.98 112.88Q117.18 112.74 118.27 112.33Q119.37 111.92 119.74 110.69Q120.12 109.45 120.12 106.99L120.12 106.99L120.12 73.01Q120.12 70.48 119.74 69.28Q119.37 68.08 118.24 67.64Q117.11 67.19 114.98 67.12L114.98 67.12L114.98 65.75Q117.79 65.82 120.94 65.85Q124.09 65.89 127.18 65.92Q130.26 65.96 132.93 65.96L132.93 65.96L137.31 65.96Q140.47 65.96 144.47 65.92Q148.48 65.89 151.63 65.75Z" fill="#FFFFFF"/></svg>
