<svg xmlns="http://www.w3.org/2000/svg" viewBox="0 0 180 180" role="img"><rect width="180" height="180" fill="#0F172A"/><path d="M45.52 64.29L45.52 64.29L45.52 65.74Q43.05 65.81 41.78 66.29Q40.51 66.76 40.07 68.03Q39.64 69.30 39.64 71.99L39.64 71.99L39.64 108.01Q39.64 110.63 40.07 111.94Q40.51 113.24 41.78 113.64Q43.05 114.04 45.52 114.04L45.52 114.04L50.82 114.04Q54.24 114.04 56.38 113.32Q58.52 112.59 59.79 111.03Q61.06 109.47 61.72 106.85Q62.37 104.24 62.74 100.46L62.74 100.46L64.41 100.46Q64.19 102.71 64.19 106.42L64.19 106.42Q64.19 107.80 64.30 110.37Q64.41 112.95 64.70 115.71L64.70 115.71Q60.99 115.57 56.34 115.53Q51.70 115.49 48.06 115.49L48.06 115.49Q46.47 115.49 43.96 115.49Q41.45 115.49 38.55 115.53Q35.64 115.57 32.67 115.60Q29.69 115.64 27.00 115.71L27.00 115.71L27.00 114.26Q29.47 114.11 30.74 113.68Q32.01 113.24 32.45 111.94Q32.88 110.63 32.88 108.01L32.88 108.01L32.88 71.99Q32.88 69.30 32.45 68.03Q32.01 66.76 30.74 66.29Q29.47 65.81 27.00 65.74L27.00 65.74L27.00 64.29Q28.53 64.36 30.99 64.43Q33.46 64.51 36.30 64.51L36.30 64.51Q38.84 64.51 41.35 64.43Q43.85 64.36 45.52 64.29Z" fill="#FFFFFF"/><path d="M83.38 71.04L83.38 71.04Q85.45 71.04 86.81 71.51Q88.18 71.97 89.05 72.68L89.05 72.68Q89.75 73.22 90.19 73.88Q90.63 74.53 90.84 75.18Q91.06 75.84 91.06 76.44L91.06 76.44Q91.06 77.80 90.11 78.56Q89.16 79.32 88.01 79.32L88.01 79.32Q86.92 79.32 86.05 78.61Q85.18 77.91 85.18 76.60L85.18 76.60Q85.18 75.40 86.00 74.56Q86.81 73.71 88.07 73.60L88.07 73.60Q87.85 72.89 86.73 72.38Q85.61 71.86 83.93 71.86L83.93 71.86Q81.15 71.86 79.38 73.52Q77.61 75.18 77.61 78.34L77.61 78.34Q77.61 79.87 78.18 81.45Q78.75 83.03 80.39 84.55L80.39 84.55Q81.31 84.39 82.29 84.31Q83.27 84.23 83.76 84.23L83.76 84.23Q84.74 84.23 85.34 84.55Q85.94 84.88 85.94 85.48L85.94 85.48Q85.94 85.97 85.53 86.24Q85.12 86.51 84.42 86.51L84.42 86.51Q83.38 86.51 82.24 86.05Q81.09 85.59 80.44 85.32L80.44 85.32Q77.28 86.24 75.32 88.34Q73.36 90.44 73.36 94.25L73.36 94.25Q73.36 98.01 75.32 100.62Q77.28 103.24 80.58 104.63Q83.87 106.02 87.96 106.02L87.96 106.02Q90.84 106.02 93.43 105.33Q96.02 104.65 98.01 103.35Q100.00 102.04 101.14 100.21Q102.28 98.39 102.28 96.05L102.28 96.05Q102.28 95.01 101.85 93.40Q101.41 91.80 100.05 90.25Q98.69 88.69 95.86 87.82L95.86 87.82L96.51 87.28Q100.49 88.47 102.18 91.12Q103.86 93.76 103.86 97.03L103.86 97.03Q103.86 100.30 101.90 103.29Q99.94 106.29 96.24 108.17Q92.53 110.05 87.25 110.05L87.25 110.05Q83.71 110.05 80.52 109.12Q77.33 108.19 74.88 106.42Q72.43 104.65 71.02 102.15Q69.60 99.64 69.60 96.48L69.60 96.48Q69.60 93.54 70.74 91.44Q71.89 89.35 73.58 87.98Q75.26 86.62 76.95 85.89Q78.64 85.15 79.68 84.88L79.68 84.88Q77.88 84.06 76.65 82.95Q75.43 81.83 74.80 80.49Q74.18 79.16 74.18 77.85L74.18 77.85Q74.18 76.54 74.77 75.32Q75.37 74.09 76.52 73.11Q77.66 72.13 79.38 71.59Q81.09 71.04 83.38 71.04ZM103.21 69.95L103.21 69.95Q106.59 69.95 108.88 71.89Q111.16 73.82 111.16 77.31L111.16 77.31Q111.16 79.16 110.48 80.60Q109.80 82.05 108.63 83.14Q107.46 84.23 105.99 84.93L105.99 84.93Q104.74 85.53 102.69 86.24Q100.65 86.95 98.33 87.66Q96.02 88.37 93.92 89.05Q91.82 89.73 90.52 90.22L90.52 90.22Q88.50 90.98 87.11 92.10Q85.72 93.21 85.72 94.96L85.72 94.96Q85.72 96.37 86.54 97.35Q87.36 98.33 88.53 98.82Q89.70 99.32 90.74 99.32L90.74 99.32Q91.23 99.32 91.96 99.18Q92.70 99.04 93.30 98.77Q93.89 98.50 94.00 98.12L94.00 98.12Q93.13 97.95 92.29 97.33Q91.44 96.70 91.44 95.34L91.44 95.34Q91.44 94.03 92.32 93.27Q93.19 92.51 94.44 92.51L94.44 92.51Q95.75 92.51 96.54 93.32Q97.33 94.14 97.33 95.45L97.33 95.45Q97.33 96.97 96.32 98.04Q95.31 99.10 93.81 99.61Q92.32 100.13 90.84 100.13L90.84 100.13Q89.32 100.13 87.74 99.48Q86.16 98.82 85.12 97.44Q84.09 96.05 84.09 93.76L84.09 93.76Q84.09 91.85 84.93 90.38Q85.78 88.91 87.47 87.77Q89.16 86.62 91.61 85.81L91.61 85.81Q93.24 85.26 95.58 84.61Q97.93 83.95 100.40 83.19Q102.88 82.43 104.90 81.50L104.90 81.50Q107.62 80.25 108.60 78.94Q109.58 77.63 109.58 76.27L109.58 76.27Q109.58 74.69 108.71 73.47Q107.84 72.24 106.40 71.51Q104.95 70.77 103.26 70.77L103.26 70.77Q102.61 70.77 102.18 70.88Q101.74 70.99 101.63 71.26L101.63 71.26Q102.39 71.64 102.77 72.35Q103.16 73.06 103.16 73.77L103.16 73.77Q103.16 74.91 102.26 75.67Q101.36 76.44 100.11 76.44L100.11 76.44Q99.07 76.44 98.14 75.75Q97.22 75.07 97.22 73.71L97.22 73.71Q97.22 72.30 98.17 71.48Q99.12 70.66 100.51 70.31Q101.90 69.95 103.21 69.95Z" fill="#CC9A14"/><path d="M151.55 64.29L151.55 64.29Q151.26 66.83 151.15 69.23Q151.04 71.62 151.04 72.86L151.04 72.86Q151.04 74.17 151.11 75.36Q151.18 76.56 151.26 77.36L151.26 77.36L149.59 77.36Q149.15 73.08 148.35 70.57Q147.55 68.06 145.63 67.01Q143.70 65.96 139.85 65.96L139.85 65.96L133.82 65.96Q131.36 65.96 130.08 66.36Q128.81 66.76 128.38 68.03Q127.94 69.30 127.94 71.99L127.94 71.99L127.94 108.01Q127.94 110.63 128.38 111.94Q128.81 113.24 130.08 113.64Q131.36 114.04 133.82 114.04L133.82 114.04L139.13 114.04Q143.70 114.04 146.06 112.81Q148.42 111.57 149.48 108.78Q150.53 105.98 151.04 101.19L151.04 101.19L152.71 101.19Q152.49 103.15 152.49 106.42L152.49 106.42Q152.49 107.80 152.60 110.37Q152.71 112.95 153 115.71L153 115.71Q149.30 115.57 144.65 115.53Q140.00 115.49 136.37 115.49L136.37 115.49Q134.77 115.49 132.26 115.49Q129.76 115.49 126.85 115.53Q123.95 115.57 120.97 115.60Q117.99 115.64 115.30 115.71L115.30 115.71L115.30 114.26Q117.77 114.11 119.04 113.68Q120.32 113.24 120.75 111.94Q121.19 110.63 121.19 108.01L121.19 108.01L121.19 71.99Q121.19 69.30 120.75 68.03Q120.32 66.76 119.04 66.29Q117.77 65.81 115.30 65.74L115.30 65.74L115.30 64.29Q117.99 64.36 120.97 64.40Q123.95 64.43 126.85 64.47Q129.76 64.51 132.26 64.51Q134.77 64.51 136.37 64.51L136.37 64.51Q139.71 64.51 143.96 64.47Q148.21 64.43 151.55 64.29ZM125.76 89.13L139.05 89.13Q139.05 89.13 139.05 89.85Q139.05 90.58 139.05 90.58L139.05 90.58L125.76 90.58Q125.76 90.58 125.76 89.85Q125.76 89.13 125.76 89.13L125.76 89.13ZM139.49 79.54L141.16 79.54Q140.87 83.68 140.91 85.86Q140.94 88.04 140.94 89.85L140.94 89.85Q140.94 91.67 141.02 93.85Q141.09 96.03 141.38 100.17L141.38 100.17L139.71 100.17Q139.42 97.84 139.02 95.63Q138.62 93.41 137.27 92.00Q135.93 90.58 132.74 90.58L132.74 90.58L132.74 89.13Q135.13 89.13 136.40 88.15Q137.67 87.17 138.26 85.64Q138.84 84.12 139.05 82.48Q139.27 80.85 139.49 79.54L139.49 79.54Z" fill="#FFFFFF"/></svg>
