<svg xmlns="http://www.w3.org/2000/svg" viewBox="0 0 180 180" role="img"><rect width="180" height="180" fill="#0F172A"/><path d="M45.52 64.29L45.52 64.29L45.52 65.74Q43.05 65.81 41.78 66.29Q40.51 66.76 40.07 68.03Q39.64 69.30 39.64 71.99L39.64 71.99L39.64 108.01Q39.64 110.63 40.07 111.94Q40.51 113.24 41.78 113.64Q43.05 114.04 45.52 114.04L45.52 114.04L50.82 114.04Q54.24 114.04 56.38 113.32Q58.52 112.59 59.79 111.03Q61.06 109.47 61.72 106.85Q62.37 104.24 62.74 100.46L62.74 100.46L64.41 100.46Q64.19 102.71 64.19 106.42L64.19 106.42Q64.19 107.80 64.30 110.37Q64.41 112.95 64.70 115.71L64.70 115.71Q60.99 115.57 56.34 115.53Q51.70 115.49 48.06 115.49L48.06 115.49Q46.47 115.49 43.96 115.49Q41.45 115.49 38.55 115.53Q35.64 115.57 32.67 115.60Q29.69 115.64 27.00 115.71L27.00 115.71L27.00 114.26Q29.47 114.11 30.74 113.68Q32.01 113.24 32.45 111.94Q32.88 110.63 32.88 108.01L32.88 108.01L32.88 71.99Q32.88 69.30 32.45 68.03Q32.01 66.76 30.74 66.29Q29.47 65.81 27.00 65.74L27.00 65.74L27.00 64.29Q28.53 64.36 30.99 64.43Q33.46 64.51 36.30 64.51L36.30 64.51Q38.84 64.51 41.35 64.43Q43.85 64.36 45.52 64.29Z" fill="#FFFFFF"/><path d="M90.98 71.04L90.98 71.04Q93.05 71.04 94.41 71.51Q95.77 71.97 96.65 72.68L96.65 72.68Q97.35 73.22 97.79 73.88Q98.23 74.53 98.44 75.18Q98.66 75.84 98.66 76.44L98.66 76.44Q98.66 77.80 97.71 78.56Q96.75 79.32 95.61 79.32L95.61 79.32Q94.52 79.32 93.65 78.61Q92.78 77.91 92.78 76.60L92.78 76.60Q92.78 75.40 93.60 74.56Q94.41 73.71 95.67 73.60L95.67 73.60Q95.45 72.89 94.33 72.38Q93.21 71.86 91.53 71.86L91.53 71.86Q88.75 71.86 86.98 73.52Q85.21 75.18 85.21 78.34L85.21 78.34Q85.21 79.87 85.78 81.45Q86.35 83.03 87.98 84.55L87.98 84.55Q88.91 84.39 89.89 84.31Q90.87 84.23 91.36 84.23L91.36 84.23Q92.34 84.23 92.94 84.55Q93.54 84.88 93.54 85.48L93.54 85.48Q93.54 85.97 93.13 86.24Q92.72 86.51 92.02 86.51L92.02 86.51Q90.98 86.51 89.84 86.05Q88.69 85.59 88.04 85.32L88.04 85.32Q84.88 86.24 82.92 88.34Q80.96 90.44 80.96 94.25L80.96 94.25Q80.96 98.01 82.92 100.62Q84.88 103.24 88.18 104.63Q91.47 106.02 95.56 106.02L95.56 106.02Q98.44 106.02 101.03 105.33Q103.62 104.65 105.61 103.35Q107.60 102.04 108.74 100.21Q109.88 98.39 109.88 96.05L109.88 96.05Q109.88 95.01 109.45 93.40Q109.01 91.80 107.65 90.25Q106.29 88.69 103.46 87.82L103.46 87.82L104.11 87.28Q108.09 88.47 109.77 91.12Q111.46 93.76 111.46 97.03L111.46 97.03Q111.46 100.30 109.50 103.29Q107.54 106.29 103.84 108.17Q100.13 110.05 94.85 110.05L94.85 110.05Q91.31 110.05 88.12 109.12Q84.93 108.19 82.48 106.42Q80.03 104.65 78.61 102.15Q77.20 99.64 77.20 96.48L77.20 96.48Q77.20 93.54 78.34 91.44Q79.49 89.35 81.18 87.98Q82.86 86.62 84.55 85.89Q86.24 85.15 87.28 84.88L87.28 84.88Q85.48 84.06 84.25 82.95Q83.03 81.83 82.40 80.49Q81.77 79.16 81.77 77.85L81.77 77.85Q81.77 76.54 82.37 75.32Q82.97 74.09 84.12 73.11Q85.26 72.13 86.98 71.59Q88.69 71.04 90.98 71.04ZM110.81 69.95L110.81 69.95Q114.19 69.95 116.47 71.89Q118.76 73.82 118.76 77.31L118.76 77.31Q118.76 79.16 118.08 80.60Q117.40 82.05 116.23 83.14Q115.06 84.23 113.59 84.93L113.59 84.93Q112.33 85.53 110.29 86.24Q108.25 86.95 105.93 87.66Q103.62 88.37 101.52 89.05Q99.42 89.73 98.12 90.22L98.12 90.22Q96.10 90.98 94.71 92.10Q93.32 93.21 93.32 94.96L93.32 94.96Q93.32 96.37 94.14 97.35Q94.96 98.33 96.13 98.82Q97.30 99.32 98.33 99.32L98.33 99.32Q98.82 99.32 99.56 99.18Q100.30 99.04 100.89 98.77Q101.49 98.50 101.60 98.12L101.60 98.12Q100.73 97.95 99.89 97.33Q99.04 96.70 99.04 95.34L99.04 95.34Q99.04 94.03 99.91 93.27Q100.79 92.51 102.04 92.51L102.04 92.51Q103.35 92.51 104.14 93.32Q104.93 94.14 104.93 95.45L104.93 95.45Q104.93 96.97 103.92 98.04Q102.91 99.10 101.41 99.61Q99.91 100.13 98.44 100.13L98.44 100.13Q96.92 100.13 95.34 99.48Q93.76 98.82 92.72 97.44Q91.69 96.05 91.69 93.76L91.69 93.76Q91.69 91.85 92.53 90.38Q93.38 88.91 95.07 87.77Q96.75 86.62 99.21 85.81L99.21 85.81Q100.84 85.26 103.18 84.61Q105.53 83.95 108.00 83.19Q110.48 82.43 112.50 81.50L112.50 81.50Q115.22 80.25 116.20 78.94Q117.18 77.63 117.18 76.27L117.18 76.27Q117.18 74.69 116.31 73.47Q115.44 72.24 114.00 71.51Q112.55 70.77 110.86 70.77L110.86 70.77Q110.21 70.77 109.77 70.88Q109.34 70.99 109.23 71.26L109.23 71.26Q109.99 71.64 110.37 72.35Q110.75 73.06 110.75 73.77L110.75 73.77Q110.75 74.91 109.86 75.67Q108.96 76.44 107.70 76.44L107.70 76.44Q106.67 76.44 105.74 75.75Q104.82 75.07 104.82 73.71L104.82 73.71Q104.82 72.30 105.77 71.48Q106.72 70.66 108.11 70.31Q109.50 69.95 110.81 69.95Z" fill="#CC9A14"/><path d="M151.55 64.29L151.55 64.29Q151.26 66.83 151.15 69.23Q151.04 71.62 151.04 72.86L151.04 72.86Q151.04 74.17 151.11 75.36Q151.18 76.56 151.26 77.36L151.26 77.36L149.59 77.36Q149.15 73.08 148.35 70.57Q147.55 68.06 145.63 67.01Q143.70 65.96 139.85 65.96L139.85 65.96L133.82 65.96Q131.36 65.96 130.08 66.36Q128.81 66.76 128.38 68.03Q127.94 69.30 127.94 71.99L127.94 71.99L127.94 108.01Q127.94 110.63 128.38 111.94Q128.81 113.24 130.08 113.64Q131.36 114.04 133.82 114.04L133.82 114.04L139.13 114.04Q143.70 114.04 146.06 112.81Q148.42 111.57 149.48 108.78Q150.53 105.98 151.04 101.19L151.04 101.19L152.71 101.19Q152.49 103.15 152.49 106.42L152.49 106.42Q152.49 107.80 152.60 110.37Q152.71 112.95 153 115.71L153 115.71Q149.30 115.57 144.65 115.53Q140.00 115.49 136.37 115.49L136.37 115.49Q134.77 115.49 132.26 115.49Q129.76 115.49 126.85 115.53Q123.95 115.57 120.97 115.60Q117.99 115.64 115.30 115.71L115.30 115.71L115.30 114.26Q117.77 114.11 119.04 113.68Q120.32 113.24 120.75 111.94Q121.19 110.63 121.19 108.01L121.19 108.01L121.19 71.99Q121.19 69.30 120.75 68.03Q120.32 66.76 119.04 66.29Q117.77 65.81 115.30 65.74L115.30 65.74L115.30 64.29Q117.99 64.36 120.97 64.40Q123.95 64.43 126.85 64.47Q129.76 64.51 132.26 64.51Q134.77 64.51 136.37 64.51L136.37 64.51Q139.71 64.51 143.96 64.47Q148.21 64.43 151.55 64.29ZM125.76 89.13L139.05 89.13Q139.05 89.13 139.05 89.85Q139.05 90.58 139.05 90.58L139.05 90.58L125.76 90.58Q125.76 90.58 125.76 89.85Q125.76 89.13 125.76 89.13L125.76 89.13ZM139.49 79.54L141.16 79.54Q140.87 83.68 140.91 85.86Q140.94 88.04 140.94 89.85L140.94 89.85Q140.94 91.67 141.02 93.85Q141.09 96.03 141.38 100.17L141.38 100.17L139.71 100.17Q139.42 97.84 139.02 95.63Q138.62 93.41 137.27 92.00Q135.93 90.58 132.74 90.58L132.74 90.58L132.74 89.13Q135.13 89.13 136.40 88.15Q137.67 87.17 138.26 85.64Q138.84 84.12 139.05 82.48Q139.27 80.85 139.49 79.54L139.49 79.54Z" fill="#FFFFFF"/></svg>
