<svg xmlns="http://www.w3.org/2000/svg" viewBox="0 0 512 512" role="img"><rect width="512" height="512" fill="#0F172A"/><path d="M171.84 206.73L171.84 206.73L171.84 209.52Q167.11 209.66 164.67 210.56Q162.24 211.47 161.40 213.90Q160.57 216.34 160.57 221.49L160.57 221.49L160.57 292.18Q160.57 296.50 161.19 298.59Q161.82 300.67 163.70 301.37Q165.58 302.06 169.33 302.06L169.33 302.06L176.15 302.06Q180.88 302.06 185.06 299.84Q189.23 297.61 192.57 293.51Q195.91 289.40 198.14 283.69Q200.37 277.99 201.48 271.03L201.48 271.03L204.68 271.03Q204.26 275.76 204.26 283.28L204.26 283.28Q204.26 286.48 204.40 292.60Q204.54 298.72 205.24 305.27L205.24 305.27Q198.14 304.99 189.23 304.92Q180.33 304.85 173.37 304.85L173.37 304.85L164.46 304.85Q159.03 304.85 152.77 304.92Q146.51 304.99 140.11 305.06Q133.71 305.13 128 305.27L128 305.27L128 302.48Q132.45 302.20 134.68 301.37Q136.91 300.53 137.67 298.03Q138.44 295.52 138.44 290.51L138.44 290.51L138.44 221.49Q138.44 216.34 137.67 213.90Q136.91 211.47 134.61 210.56Q132.31 209.66 128 209.52L128 209.52L128 206.73Q131.48 206.87 137.39 207.01Q143.31 207.15 149.99 207.15L149.99 207.15Q156.11 207.15 162.03 207.01Q167.94 206.87 171.84 206.73Z" fill="#FFFFFF"/><path d="M242.74 218.84L242.74 218.84Q246.81 218.84 249.32 219.42Q251.82 219.99 253.60 221.03L253.60 221.03Q255.27 221.76 256.68 222.91Q258.09 224.06 259.03 225.73Q259.97 227.40 259.97 229.49L259.97 229.49Q259.97 232.62 257.57 234.50Q255.16 236.38 251.93 236.38L251.93 236.38Q248.80 236.38 246.55 234.81Q244.31 233.25 244.31 229.91L244.31 229.91Q244.31 227.30 246.19 225.16Q248.07 223.02 250.99 222.50L250.99 222.50Q250.26 221.66 248.33 221.14Q246.40 220.62 244.10 220.62L244.10 220.62Q238.67 220.62 234.86 224.01Q231.05 227.40 231.05 234.29L231.05 234.29Q231.05 236.69 231.89 239.40Q232.72 242.12 235.12 244.94L235.12 244.94Q236.90 244.52 238.41 244.31Q239.93 244.10 240.97 244.10L240.97 244.10Q242.85 244.10 243.84 244.88Q244.83 245.67 244.83 246.92L244.83 246.92Q244.83 247.86 244.00 248.48Q243.16 249.11 241.91 249.11L241.91 249.11Q240.13 249.11 238.26 248.12Q236.38 247.13 235.23 246.40L235.23 246.40Q230.32 248.90 227.24 252.82Q224.17 256.73 224.17 263.31L224.17 263.31Q224.17 270.20 227.92 274.63Q231.68 279.07 238.52 281.31Q245.35 283.56 254.64 283.56L254.64 283.56Q259.86 283.56 264.98 282.41Q270.09 281.26 274.21 278.96Q278.34 276.67 280.84 273.27Q283.35 269.88 283.35 265.39L283.35 265.39Q283.35 263.72 282.88 261.17Q282.41 258.61 280.63 256L280.63 256Q278.96 253.70 275.41 252.14L275.41 252.14Q273.33 252.76 271.03 253.39L271.03 253.39Q268.73 254.02 266.59 254.64Q264.45 255.27 262.89 255.69L262.89 255.69Q254.75 257.46 250.36 259.71Q245.98 261.95 245.98 265.81L245.98 265.81Q245.98 268.42 247.70 270.30Q249.42 272.18 252.03 273.22Q254.64 274.27 257.25 274.27L257.25 274.27Q257.98 274.27 258.82 274.11Q259.65 273.95 260.38 273.69Q261.11 273.43 261.43 273.22L261.43 273.22Q258.82 272.39 257.51 270.56Q256.21 268.73 256.21 266.33L256.21 266.33Q256.21 262.99 258.61 261.22Q261.01 259.44 264.56 259.44L264.56 259.44Q268.32 259.44 270.46 261.43Q272.60 263.41 272.60 266.54L272.60 266.54Q272.60 269.78 270.61 271.92Q268.63 274.06 265.29 275.05Q261.95 276.04 257.77 276.04L257.77 276.04Q253.70 276.04 250.10 274.58Q246.50 273.12 244.36 270.14Q242.22 267.17 242.22 262.68L242.22 262.68Q242.22 257.15 245.04 253.44Q247.86 249.74 253.13 247.28Q258.40 244.83 265.60 243.47L265.60 243.47Q267.79 242.95 270.46 242.27Q273.12 241.60 275.94 240.87Q278.75 240.13 281.15 239.30L281.15 239.30Q288.67 237.42 292.79 235.12Q296.92 232.83 296.92 228.97L296.92 228.97Q296.92 226.15 295.19 224.01Q293.47 221.87 290.76 220.67Q288.04 219.47 285.12 219.47L285.12 219.47Q284.18 219.47 283.40 219.57Q282.62 219.68 282.09 219.99L282.09 219.99Q284.70 220.93 285.96 222.81Q287.21 224.69 287.21 226.57L287.21 226.57Q287.21 229.80 284.81 231.52Q282.41 233.25 278.86 233.25Q275.31 233.25 273.01 231.42Q270.72 229.59 270.72 226.36L270.72 226.36Q270.72 223.54 272.33 221.61Q273.95 219.68 276.88 218.63Q279.80 217.59 283.76 217.59L283.76 217.59Q291.17 217.59 295.77 221.45Q300.36 225.31 300.36 232.31L300.36 232.31Q300.36 237.63 297.80 241.28Q295.25 244.94 290.50 247.23Q285.75 249.53 279.17 250.89L279.17 250.89Q278.34 251.20 277.29 251.51L277.29 251.51Q281.57 253.49 284.08 257.57L284.08 257.57Q287.00 262.47 287.00 268.84L287.00 268.84Q287.00 276.14 282.51 281.94Q278.02 287.73 269.93 291.07Q261.85 294.41 250.99 294.41L250.99 294.41Q242.33 294.41 235.28 292.64Q228.24 290.86 223.17 287.47Q218.11 284.08 215.35 279.28Q212.58 274.47 212.58 268.42L212.58 268.42Q212.58 262.58 215.03 258.45Q217.49 254.33 221.03 251.67Q224.58 249.01 228.13 247.55Q231.68 246.08 233.77 245.56L233.77 245.56Q230.53 244.21 227.87 242.38Q225.21 240.55 223.59 238.05Q221.97 235.54 221.97 232.41L221.97 232.41Q221.97 229.07 223.75 226.51Q225.52 223.96 228.50 222.29Q231.47 220.62 235.18 219.73Q238.88 218.84 242.74 218.84Z" fill="#CC9A14"/><path d="M381.22 206.73L381.22 206.73Q380.66 212.86 380.45 218.56Q380.24 224.27 380.24 227.33L380.24 227.33Q380.24 230.11 380.38 232.62Q380.52 235.12 380.66 236.79L380.66 236.79L377.46 236.79Q376.07 226.64 373.14 220.72Q370.22 214.81 365.56 212.37Q360.90 209.94 354.64 209.94L354.64 209.94L348.93 209.94Q344.89 209.94 342.81 210.63Q340.72 211.33 340.02 213.41Q339.33 215.50 339.33 219.82L339.33 219.82L339.33 254.33L343.78 254.33Q347.96 254.33 350.88 252.59Q353.80 250.85 355.68 248.00Q357.56 245.14 358.67 241.94Q359.78 238.74 360.34 235.96L360.34 235.96L363.54 235.96Q362.99 243.89 363.06 248.07Q363.12 252.24 363.12 255.72Q363.12 259.20 363.26 263.38Q363.40 267.55 363.96 275.48L363.96 275.48L360.76 275.48Q360.06 270.61 358.18 266.44Q356.31 262.26 352.83 259.69Q349.35 257.11 343.78 257.11L343.78 257.11L339.33 257.11L339.33 292.18Q339.33 296.50 340.02 298.59Q340.72 300.67 342.81 301.37Q344.89 302.06 348.93 302.06L348.93 302.06L355.75 302.06Q362.01 302.06 366.81 299.35Q371.61 296.64 375.02 290.10Q378.43 283.56 380.24 272.42L380.24 272.42L383.44 272.42Q383.03 276.88 383.03 284.11L383.03 284.11Q383.03 287.31 383.16 293.16Q383.30 299.00 384 305.27L384 305.27Q376.90 304.99 368.00 304.92Q359.09 304.85 352.13 304.85L352.13 304.85L343.22 304.85Q337.80 304.85 331.53 304.92Q325.27 304.99 318.87 305.06Q312.47 305.13 306.76 305.27L306.76 305.27L306.76 302.48Q311.22 302.20 313.44 301.37Q315.67 300.53 316.43 298.03Q317.20 295.52 317.20 290.51L317.20 290.51L317.20 221.49Q317.20 216.34 316.43 213.90Q315.67 211.47 313.37 210.56Q311.08 209.66 306.76 209.52L306.76 209.52L306.76 206.73Q312.47 206.87 318.87 206.94Q325.27 207.01 331.53 207.08Q337.80 207.15 343.22 207.15L343.22 207.15L352.13 207.15Q358.53 207.15 366.67 207.08Q374.81 207.01 381.22 206.73Z" fill="#FFFFFF"/></svg>
