<svg xmlns="http://www.w3.org/2000/svg" viewBox="0 0 512 512" role="img"><rect width="512" height="512" fill="#0F172A"/><path d="M165.63 203.76L165.63 203.76L165.63 206.71Q160.61 206.86 158.03 207.82Q155.45 208.78 154.56 211.36Q153.68 213.94 153.68 219.40L153.68 219.40L153.68 292.60Q153.68 297.91 154.56 300.57Q155.45 303.22 158.03 304.03Q160.61 304.85 165.63 304.85L165.63 304.85L176.40 304.85Q183.34 304.85 187.69 303.37Q192.05 301.89 194.63 298.72Q197.21 295.55 198.54 290.24Q199.87 284.92 200.61 277.25L200.61 277.25L204.00 277.25Q203.56 281.83 203.56 289.35L203.56 289.35Q203.56 292.16 203.78 297.39Q204.00 302.63 204.59 308.24L204.59 308.24Q197.06 307.95 187.62 307.87Q178.17 307.80 170.80 307.80L170.80 307.80Q167.55 307.80 162.46 307.80Q157.37 307.80 151.46 307.87Q145.56 307.95 139.51 308.02Q133.46 308.09 128.00 308.24L128.00 308.24L128.00 305.29Q133.02 304.99 135.60 304.11Q138.18 303.22 139.07 300.57Q139.95 297.91 139.95 292.60L139.95 292.60L139.95 219.40Q139.95 213.94 139.07 211.36Q138.18 208.78 135.60 207.82Q133.02 206.86 128.00 206.71L128.00 206.71L128.00 203.76Q131.10 203.91 136.12 204.05Q141.13 204.20 146.89 204.20L146.89 204.20Q152.05 204.20 157.15 204.05Q162.24 203.91 165.63 203.76Z" fill="#FFFFFF"/><path d="M257.99 217.48L257.99 217.48Q262.20 217.48 264.96 218.42Q267.73 219.37 269.50 220.80L269.50 220.80Q270.94 221.91 271.83 223.24Q272.71 224.57 273.16 225.90Q273.60 227.22 273.60 228.44L273.60 228.44Q273.60 231.21 271.66 232.76Q269.72 234.31 267.40 234.31L267.40 234.31Q265.19 234.31 263.42 232.87Q261.64 231.43 261.64 228.77L261.64 228.77Q261.64 226.34 263.30 224.62Q264.96 222.91 267.51 222.69L267.51 222.69Q267.07 221.25 264.80 220.20Q262.53 219.14 259.10 219.14L259.10 219.14Q253.45 219.14 249.86 222.52Q246.26 225.90 246.26 232.31L246.26 232.31Q246.26 235.41 247.42 238.62Q248.58 241.83 251.90 244.93L251.90 244.93Q253.79 244.60 255.78 244.43Q257.77 244.27 258.77 244.27L258.77 244.27Q260.76 244.27 261.98 244.93Q263.19 245.60 263.19 246.81L263.19 246.81Q263.19 247.81 262.36 248.36Q261.53 248.92 260.10 248.92L260.10 248.92Q257.99 248.92 255.67 247.98Q253.34 247.04 252.02 246.48L252.02 246.48Q245.60 248.36 241.61 252.62Q237.63 256.89 237.63 264.63L237.63 264.63Q237.63 272.27 241.61 277.58Q245.60 282.89 252.29 285.72Q258.99 288.54 267.29 288.54L267.29 288.54Q273.16 288.54 278.41 287.16Q283.67 285.77 287.71 283.12Q291.75 280.46 294.07 276.75Q296.40 273.04 296.40 268.29L296.40 268.29Q296.40 266.18 295.51 262.92Q294.63 259.65 291.86 256.50Q289.09 253.34 283.34 251.57L283.34 251.57L284.67 250.47Q292.75 252.90 296.18 258.27Q299.61 263.64 299.61 270.28L299.61 270.28Q299.61 276.92 295.62 283.01Q291.64 289.09 284.11 292.91Q276.59 296.73 265.85 296.73L265.85 296.73Q258.66 296.73 252.18 294.85Q245.71 292.97 240.73 289.37Q235.75 285.77 232.87 280.68Q229.99 275.59 229.99 269.17L229.99 269.17Q229.99 263.19 232.31 258.93Q234.64 254.67 238.07 251.90Q241.50 249.14 244.93 247.64Q248.36 246.15 250.47 245.60L250.47 245.60Q246.81 243.94 244.32 241.67Q241.83 239.40 240.56 236.69Q239.29 233.97 239.29 231.32L239.29 231.32Q239.29 228.66 240.50 226.17Q241.72 223.68 244.05 221.69Q246.37 219.70 249.86 218.59Q253.34 217.48 257.99 217.48ZM298.28 215.27L298.28 215.27Q305.14 215.27 309.79 219.20Q314.44 223.13 314.44 230.21L314.44 230.21Q314.44 233.97 313.05 236.91Q311.67 239.84 309.29 242.05Q306.91 244.27 303.92 245.71L303.92 245.71Q301.38 246.92 297.23 248.36Q293.08 249.80 288.37 251.24Q283.67 252.68 279.41 254.06Q275.15 255.45 272.49 256.44L272.49 256.44Q268.40 257.99 265.57 260.26Q262.75 262.53 262.75 266.07L262.75 266.07Q262.75 268.95 264.41 270.94Q266.07 272.93 268.45 273.93Q270.83 274.93 272.93 274.93L272.93 274.93Q273.93 274.93 275.42 274.65Q276.92 274.37 278.14 273.82Q279.35 273.27 279.57 272.49L279.57 272.49Q277.80 272.16 276.09 270.89Q274.37 269.61 274.37 266.85L274.37 266.85Q274.37 264.19 276.14 262.64Q277.91 261.09 280.46 261.09L280.46 261.09Q283.12 261.09 284.72 262.75Q286.33 264.41 286.33 267.07L286.33 267.07Q286.33 270.17 284.28 272.33Q282.23 274.48 279.19 275.53Q276.14 276.59 273.16 276.59L273.16 276.59Q270.06 276.59 266.85 275.26Q263.64 273.93 261.53 271.11Q259.43 268.29 259.43 263.64L259.43 263.64Q259.43 259.76 261.15 256.77Q262.86 253.79 266.29 251.46Q269.72 249.14 274.70 247.48L274.70 247.48Q278.03 246.37 282.78 245.04Q287.54 243.71 292.58 242.17Q297.62 240.62 301.71 238.73L301.71 238.73Q307.24 236.19 309.24 233.53Q311.23 230.88 311.23 228.11L311.23 228.11Q311.23 224.90 309.46 222.41Q307.69 219.92 304.75 218.42Q301.82 216.93 298.39 216.93L298.39 216.93Q297.06 216.93 296.18 217.15Q295.29 217.37 295.07 217.93L295.07 217.93Q296.62 218.70 297.39 220.14Q298.17 221.58 298.17 223.02L298.17 223.02Q298.17 225.34 296.34 226.89Q294.52 228.44 291.97 228.44L291.97 228.44Q289.87 228.44 287.99 227.06Q286.10 225.67 286.10 222.91L286.10 222.91Q286.10 220.03 288.04 218.37Q289.98 216.71 292.80 215.99Q295.62 215.27 298.28 215.27Z" fill="#CC9A14"/><path d="M381.05 203.76L381.05 203.76Q380.46 208.92 380.24 213.79Q380.02 218.66 380.02 221.17L380.02 221.17Q380.02 223.83 380.16 226.26Q380.31 228.70 380.46 230.32L380.46 230.32L377.06 230.32Q376.18 221.62 374.56 216.52Q372.93 211.43 369.02 209.29Q365.11 207.15 357.29 207.15L357.29 207.15L345.04 207.15Q340.02 207.15 337.44 207.97Q334.86 208.78 333.97 211.36Q333.09 213.94 333.09 219.40L333.09 219.40L333.09 292.60Q333.09 297.91 333.97 300.57Q334.86 303.22 337.44 304.03Q340.02 304.85 345.04 304.85L345.04 304.85L355.81 304.85Q365.11 304.85 369.91 302.34Q374.70 299.83 376.84 294.15Q378.98 288.47 380.02 278.73L380.02 278.73L383.41 278.73Q382.97 282.71 382.97 289.35L382.97 289.35Q382.97 292.16 383.19 297.39Q383.41 302.63 384 308.24L384 308.24Q376.47 307.95 367.03 307.87Q357.58 307.80 350.21 307.80L350.21 307.80Q346.96 307.80 341.87 307.80Q336.78 307.80 330.87 307.87Q324.97 307.95 318.92 308.02Q312.87 308.09 307.41 308.24L307.41 308.24L307.41 305.29Q312.43 304.99 315.01 304.11Q317.59 303.22 318.48 300.57Q319.36 297.91 319.36 292.60L319.36 292.60L319.36 219.40Q319.36 213.94 318.48 211.36Q317.59 208.78 315.01 207.82Q312.43 206.86 307.41 206.71L307.41 206.71L307.41 203.76Q312.87 203.91 318.92 203.98Q324.97 204.05 330.87 204.13Q336.78 204.20 341.87 204.20Q346.96 204.20 350.21 204.20L350.21 204.20Q356.99 204.20 365.63 204.13Q374.26 204.05 381.05 203.76ZM328.66 254.23L355.67 254.23Q355.67 254.23 355.67 255.70Q355.67 257.18 355.67 257.18L355.67 257.18L328.66 257.18Q328.66 257.18 328.66 255.70Q328.66 254.23 328.66 254.23L328.66 254.23ZM356.55 234.75L359.95 234.75Q359.36 243.16 359.43 247.59Q359.50 252.02 359.50 255.70L359.50 255.70Q359.50 259.39 359.65 263.82Q359.80 268.25 360.39 276.66L360.39 276.66L356.99 276.66Q356.40 271.94 355.59 267.44Q354.78 262.94 352.05 260.06Q349.32 257.18 342.83 257.18L342.83 257.18L342.83 254.23Q347.70 254.23 350.28 252.24Q352.86 250.24 354.04 247.15Q355.22 244.05 355.67 240.73Q356.11 237.41 356.55 234.75L356.55 234.75Z" fill="#FFFFFF"/></svg>
