<svg xmlns="http://www.w3.org/2000/svg" viewBox="0 0 512 512" role="img"><rect width="512" height="512" fill="#0F172A"/><path d="M161.58 209.38L161.58 209.38L161.58 212.02Q157.10 212.15 154.80 213.00Q152.49 213.86 151.70 216.16Q150.91 218.47 150.91 223.34L150.91 223.34L150.91 288.66Q150.91 293.40 151.70 295.77Q152.49 298.14 154.80 298.86Q157.10 299.59 161.58 299.59L161.58 299.59L171.19 299.59Q177.38 299.59 181.27 298.27Q185.15 296.95 187.46 294.12Q189.76 291.29 190.95 286.55Q192.13 281.81 192.79 274.96L192.79 274.96L195.82 274.96Q195.42 279.05 195.42 285.76L195.42 285.76Q195.42 288.26 195.62 292.94Q195.82 297.61 196.35 302.62L196.35 302.62Q189.63 302.35 181.20 302.29Q172.77 302.22 166.19 302.22L166.19 302.22Q163.29 302.22 158.75 302.22Q154.21 302.22 148.94 302.29Q143.67 302.35 138.27 302.42Q132.87 302.49 128.00 302.62L128.00 302.62L128.00 299.98Q132.48 299.72 134.78 298.93Q137.09 298.14 137.88 295.77Q138.67 293.40 138.67 288.66L138.67 288.66L138.67 223.34Q138.67 218.47 137.88 216.16Q137.09 213.86 134.78 213.00Q132.48 212.15 128.00 212.02L128.00 212.02L128.00 209.38Q130.77 209.51 135.24 209.65Q139.72 209.78 144.86 209.78L144.86 209.78Q149.47 209.78 154.01 209.65Q158.55 209.51 161.58 209.38Z" fill="#FFFFFF"/><path d="M240.33 210.17L240.33 210.17Q245.33 210.17 248.63 211.29Q251.92 212.41 254.02 214.12L254.02 214.12Q255.74 215.44 256.79 217.02Q257.84 218.60 258.37 220.18Q258.90 221.76 258.90 223.21L258.90 223.21Q258.90 226.50 256.59 228.35Q254.29 230.19 251.52 230.19L251.52 230.19Q248.89 230.19 246.78 228.48Q244.67 226.77 244.67 223.60L244.67 223.60Q244.67 220.71 246.65 218.67Q248.63 216.63 251.65 216.36L251.65 216.36Q251.13 214.65 248.43 213.40Q245.73 212.15 241.65 212.15L241.65 212.15Q234.93 212.15 230.65 216.16Q226.37 220.18 226.37 227.82L226.37 227.82Q226.37 231.51 227.75 235.33Q229.14 239.14 233.09 242.83L233.09 242.83Q235.33 242.44 237.70 242.24Q240.07 242.04 241.25 242.04L241.25 242.04Q243.62 242.04 245.07 242.83Q246.52 243.62 246.52 245.07L246.52 245.07Q246.52 246.26 245.53 246.91Q244.54 247.57 242.83 247.57L242.83 247.57Q240.33 247.57 237.56 246.45Q234.80 245.33 233.22 244.67L233.22 244.67Q225.58 246.91 220.84 251.98Q216.10 257.05 216.10 266.27L216.10 266.27Q216.10 275.36 220.84 281.68Q225.58 288.00 233.55 291.36Q241.51 294.72 251.39 294.72L251.39 294.72Q258.37 294.72 264.63 293.07Q270.88 291.42 275.69 288.26Q280.49 285.10 283.26 280.69Q286.02 276.28 286.02 270.62L286.02 270.62Q286.02 268.12 284.97 264.23Q283.92 260.35 280.63 256.59Q277.33 252.84 270.49 250.73L270.49 250.73L272.07 249.42Q281.68 252.31 285.76 258.70Q289.84 265.09 289.84 272.99L289.84 272.99Q289.84 280.89 285.10 288.13Q280.36 295.37 271.41 299.92Q262.45 304.46 249.68 304.46L249.68 304.46Q241.12 304.46 233.42 302.22Q225.71 299.98 219.79 295.70Q213.86 291.42 210.44 285.37Q207.01 279.31 207.01 271.67L207.01 271.67Q207.01 264.56 209.78 259.49Q212.54 254.42 216.63 251.13Q220.71 247.84 224.79 246.06Q228.87 244.28 231.37 243.62L231.37 243.62Q227.03 241.65 224.07 238.95Q221.10 236.25 219.59 233.02Q218.07 229.79 218.07 226.63L218.07 226.63Q218.07 223.47 219.52 220.51Q220.97 217.55 223.74 215.18Q226.50 212.81 230.65 211.49Q234.80 210.17 240.33 210.17ZM288.26 207.54L288.26 207.54Q296.43 207.54 301.96 212.21Q307.49 216.89 307.49 225.32L307.49 225.32Q307.49 229.79 305.84 233.28Q304.20 236.77 301.37 239.41Q298.53 242.04 294.98 243.75L294.98 243.75Q291.95 245.20 287.01 246.91Q282.07 248.63 276.48 250.34Q270.88 252.05 265.81 253.70Q260.74 255.34 257.58 256.53L257.58 256.53Q252.71 258.37 249.35 261.07Q245.99 263.77 245.99 267.98L245.99 267.98Q245.99 271.41 247.97 273.78Q249.94 276.15 252.77 277.33Q255.60 278.52 258.11 278.52L258.11 278.52Q259.29 278.52 261.07 278.19Q262.85 277.86 264.30 277.20Q265.74 276.54 266.01 275.62L266.01 275.62Q263.90 275.23 261.86 273.71Q259.82 272.20 259.82 268.91L259.82 268.91Q259.82 265.74 261.93 263.90Q264.03 262.06 267.06 262.06L267.06 262.06Q270.22 262.06 272.13 264.03Q274.04 266.01 274.04 269.17L274.04 269.17Q274.04 272.86 271.60 275.42Q269.17 277.99 265.55 279.24Q261.93 280.49 258.37 280.49L258.37 280.49Q254.68 280.49 250.86 278.91Q247.05 277.33 244.54 273.98Q242.04 270.62 242.04 265.09L242.04 265.09Q242.04 260.48 244.08 256.92Q246.12 253.37 250.21 250.60Q254.29 247.84 260.21 245.86L260.21 245.86Q264.16 244.54 269.83 242.96Q275.49 241.38 281.48 239.54Q287.47 237.70 292.35 235.46L292.35 235.46Q298.93 232.43 301.30 229.27Q303.67 226.11 303.67 222.81L303.67 222.81Q303.67 219.00 301.56 216.03Q299.46 213.07 295.97 211.29Q292.48 209.51 288.40 209.51L288.40 209.51Q286.81 209.51 285.76 209.78Q284.71 210.04 284.44 210.70L284.44 210.70Q286.29 211.62 287.21 213.33Q288.13 215.05 288.13 216.76L288.13 216.76Q288.13 219.52 285.96 221.37Q283.79 223.21 280.76 223.21L280.76 223.21Q278.26 223.21 276.02 221.56Q273.78 219.92 273.78 216.63L273.78 216.63Q273.78 213.20 276.08 211.23Q278.39 209.25 281.74 208.40Q285.10 207.54 288.26 207.54Z" fill="#CC9A14"/><path d="M381.37 209.38L381.37 209.38Q380.84 213.99 380.64 218.34Q380.44 222.68 380.44 224.92L380.44 224.92Q380.44 227.29 380.58 229.47Q380.71 231.64 380.84 233.09L380.84 233.09L377.81 233.09Q377.02 225.32 375.57 220.77Q374.12 216.23 370.63 214.32Q367.14 212.41 360.16 212.41L360.16 212.41L349.23 212.41Q344.76 212.41 342.45 213.14Q340.15 213.86 339.36 216.16Q338.57 218.47 338.57 223.34L338.57 223.34L338.57 288.66Q338.57 293.40 339.36 295.77Q340.15 298.14 342.45 298.86Q344.76 299.59 349.23 299.59L349.23 299.59L358.85 299.59Q367.14 299.59 371.42 297.35Q375.70 295.11 377.61 290.04Q379.52 284.97 380.44 276.28L380.44 276.28L383.47 276.28Q383.08 279.84 383.08 285.76L383.08 285.76Q383.08 288.26 383.28 292.94Q383.47 297.61 384.00 302.62L384.00 302.62Q377.28 302.35 368.86 302.29Q360.43 302.22 353.84 302.22L353.84 302.22Q350.95 302.22 346.40 302.22Q341.86 302.22 336.59 302.29Q331.33 302.35 325.93 302.42Q320.53 302.49 315.65 302.62L315.65 302.62L315.65 299.98Q320.13 299.72 322.44 298.93Q324.74 298.14 325.53 295.77Q326.32 293.40 326.32 288.66L326.32 288.66L326.32 223.34Q326.32 218.47 325.53 216.16Q324.74 213.86 322.44 213.00Q320.13 212.15 315.65 212.02L315.65 212.02L315.65 209.38Q320.53 209.51 325.93 209.58Q331.33 209.65 336.59 209.71Q341.86 209.78 346.40 209.78Q350.95 209.78 353.84 209.78L353.84 209.78Q359.90 209.78 367.60 209.71Q375.31 209.65 381.37 209.38ZM334.62 254.42L358.72 254.42Q358.72 254.42 358.72 255.74Q358.72 257.05 358.72 257.05L358.72 257.05L334.62 257.05Q334.62 257.05 334.62 255.74Q334.62 254.42 334.62 254.42L334.62 254.42ZM359.51 237.04L362.53 237.04Q362.01 244.54 362.07 248.49Q362.14 252.44 362.14 255.74L362.14 255.74Q362.14 259.03 362.27 262.98Q362.40 266.93 362.93 274.44L362.93 274.44L359.90 274.44Q359.37 270.22 358.65 266.21Q357.93 262.19 355.49 259.62Q353.05 257.05 347.26 257.05L347.26 257.05L347.26 254.42Q351.60 254.42 353.91 252.64Q356.21 250.86 357.27 248.10Q358.32 245.33 358.72 242.37Q359.11 239.41 359.51 237.04L359.51 237.04Z" fill="#FFFFFF"/></svg>
