<svg xmlns="http://www.w3.org/2000/svg" viewBox="0 0 512 512" role="img"><rect width="512" height="512" fill="#0F172A"/><path d="M165.63 203.76L165.63 203.76L165.63 206.71Q160.61 206.86 158.03 207.82Q155.45 208.78 154.56 211.36Q153.68 213.94 153.68 219.40L153.68 219.40L153.68 292.60Q153.68 297.91 154.56 300.57Q155.45 303.22 158.03 304.03Q160.61 304.85 165.63 304.85L165.63 304.85L176.40 304.85Q183.34 304.85 187.69 303.37Q192.05 301.89 194.63 298.72Q197.21 295.55 198.54 290.24Q199.87 284.92 200.61 277.25L200.61 277.25L204.00 277.25Q203.56 281.83 203.56 289.35L203.56 289.35Q203.56 292.16 203.78 297.39Q204.00 302.63 204.59 308.24L204.59 308.24Q197.06 307.95 187.62 307.87Q178.17 307.80 170.80 307.80L170.80 307.80Q167.55 307.80 162.46 307.80Q157.37 307.80 151.46 307.87Q145.56 307.95 139.51 308.02Q133.46 308.09 128.00 308.24L128.00 308.24L128.00 305.29Q133.02 304.99 135.60 304.11Q138.18 303.22 139.07 300.57Q139.95 297.91 139.95 292.60L139.95 292.60L139.95 219.40Q139.95 213.94 139.07 211.36Q138.18 208.78 135.60 207.82Q133.02 206.86 128.00 206.71L128.00 206.71L128.00 203.76Q131.10 203.91 136.12 204.05Q141.13 204.20 146.89 204.20L146.89 204.20Q152.05 204.20 157.15 204.05Q162.24 203.91 165.63 203.76Z" fill="#FFFFFF"/><path d="M242.55 217.48L242.55 217.48Q246.76 217.48 249.53 218.42Q252.29 219.37 254.06 220.80L254.06 220.80Q255.50 221.91 256.39 223.24Q257.27 224.57 257.72 225.90Q258.16 227.22 258.16 228.44L258.16 228.44Q258.16 231.21 256.22 232.76Q254.28 234.31 251.96 234.31L251.96 234.31Q249.75 234.31 247.98 232.87Q246.20 231.43 246.20 228.77L246.20 228.77Q246.20 226.34 247.87 224.62Q249.53 222.91 252.07 222.69L252.07 222.69Q251.63 221.25 249.36 220.20Q247.09 219.14 243.66 219.14L243.66 219.14Q238.01 219.14 234.42 222.52Q230.82 225.90 230.82 232.31L230.82 232.31Q230.82 235.41 231.98 238.62Q233.14 241.83 236.47 244.93L236.47 244.93Q238.35 244.60 240.34 244.43Q242.33 244.27 243.33 244.27L243.33 244.27Q245.32 244.27 246.54 244.93Q247.75 245.60 247.75 246.81L247.75 246.81Q247.75 247.81 246.92 248.36Q246.09 248.92 244.66 248.92L244.66 248.92Q242.55 248.92 240.23 247.98Q237.90 247.04 236.58 246.48L236.58 246.48Q230.16 248.36 226.17 252.62Q222.19 256.89 222.19 264.63L222.19 264.63Q222.19 272.27 226.17 277.58Q230.16 282.89 236.85 285.72Q243.55 288.54 251.85 288.54L251.85 288.54Q257.72 288.54 262.97 287.16Q268.23 285.77 272.27 283.12Q276.31 280.46 278.63 276.75Q280.96 273.04 280.96 268.29L280.96 268.29Q280.96 266.18 280.07 262.92Q279.19 259.65 276.42 256.50Q273.65 253.34 267.90 251.57L267.90 251.57L269.23 250.47Q277.31 252.90 280.74 258.27Q284.17 263.64 284.17 270.28L284.17 270.28Q284.17 276.92 280.18 283.01Q276.20 289.09 268.67 292.91Q261.15 296.73 250.41 296.73L250.41 296.73Q243.22 296.73 236.74 294.85Q230.27 292.97 225.29 289.37Q220.31 285.77 217.43 280.68Q214.55 275.59 214.55 269.17L214.55 269.17Q214.55 263.19 216.88 258.93Q219.20 254.67 222.63 251.90Q226.06 249.14 229.49 247.64Q232.92 246.15 235.03 245.60L235.03 245.60Q231.37 243.94 228.88 241.67Q226.39 239.40 225.12 236.69Q223.85 233.97 223.85 231.32L223.85 231.32Q223.85 228.66 225.07 226.17Q226.28 223.68 228.61 221.69Q230.93 219.70 234.42 218.59Q237.90 217.48 242.55 217.48ZM282.84 215.27L282.84 215.27Q289.70 215.27 294.35 219.20Q299.00 223.13 299.00 230.21L299.00 230.21Q299.00 233.97 297.62 236.91Q296.23 239.84 293.85 242.05Q291.47 244.27 288.48 245.71L288.48 245.71Q285.94 246.92 281.79 248.36Q277.64 249.80 272.93 251.24Q268.23 252.68 263.97 254.06Q259.71 255.45 257.05 256.44L257.05 256.44Q252.96 257.99 250.13 260.26Q247.31 262.53 247.31 266.07L247.31 266.07Q247.31 268.95 248.97 270.94Q250.63 272.93 253.01 273.93Q255.39 274.93 257.49 274.93L257.49 274.93Q258.49 274.93 259.98 274.65Q261.48 274.37 262.70 273.82Q263.91 273.27 264.13 272.49L264.13 272.49Q262.36 272.16 260.65 270.89Q258.93 269.61 258.93 266.85L258.93 266.85Q258.93 264.19 260.70 262.64Q262.47 261.09 265.02 261.09L265.02 261.09Q267.68 261.09 269.28 262.75Q270.89 264.41 270.89 267.07L270.89 267.07Q270.89 270.17 268.84 272.33Q266.79 274.48 263.75 275.53Q260.70 276.59 257.72 276.59L257.72 276.59Q254.62 276.59 251.41 275.26Q248.20 273.93 246.09 271.11Q243.99 268.29 243.99 263.64L243.99 263.64Q243.99 259.76 245.71 256.77Q247.42 253.79 250.85 251.46Q254.28 249.14 259.27 247.48L259.27 247.48Q262.59 246.37 267.34 245.04Q272.10 243.71 277.14 242.17Q282.18 240.62 286.27 238.73L286.27 238.73Q291.80 236.19 293.80 233.53Q295.79 230.88 295.79 228.11L295.79 228.11Q295.79 224.90 294.02 222.41Q292.25 219.92 289.31 218.42Q286.38 216.93 282.95 216.93L282.95 216.93Q281.62 216.93 280.74 217.15Q279.85 217.37 279.63 217.93L279.63 217.93Q281.18 218.70 281.95 220.14Q282.73 221.58 282.73 223.02L282.73 223.02Q282.73 225.34 280.90 226.89Q279.08 228.44 276.53 228.44L276.53 228.44Q274.43 228.44 272.55 227.06Q270.66 225.67 270.66 222.91L270.66 222.91Q270.66 220.03 272.60 218.37Q274.54 216.71 277.36 215.99Q280.18 215.27 282.84 215.27Z" fill="#CC9A14"/><path d="M381.05 203.76L381.05 203.76Q380.46 208.92 380.24 213.79Q380.02 218.66 380.02 221.17L380.02 221.17Q380.02 223.83 380.16 226.26Q380.31 228.70 380.46 230.32L380.46 230.32L377.06 230.32Q376.18 221.62 374.56 216.52Q372.93 211.43 369.02 209.29Q365.11 207.15 357.29 207.15L357.29 207.15L345.04 207.15Q340.02 207.15 337.44 207.97Q334.86 208.78 333.97 211.36Q333.09 213.94 333.09 219.40L333.09 219.40L333.09 292.60Q333.09 297.91 333.97 300.57Q334.86 303.22 337.44 304.03Q340.02 304.85 345.04 304.85L345.04 304.85L355.81 304.85Q365.11 304.85 369.91 302.34Q374.70 299.83 376.84 294.15Q378.98 288.47 380.02 278.73L380.02 278.73L383.41 278.73Q382.97 282.71 382.97 289.35L382.97 289.35Q382.97 292.16 383.19 297.39Q383.41 302.63 384 308.24L384 308.24Q376.47 307.95 367.03 307.87Q357.58 307.80 350.21 307.80L350.21 307.80Q346.96 307.80 341.87 307.80Q336.78 307.80 330.87 307.87Q324.97 307.95 318.92 308.02Q312.87 308.09 307.41 308.24L307.41 308.24L307.41 305.29Q312.43 304.99 315.01 304.11Q317.59 303.22 318.48 300.57Q319.36 297.91 319.36 292.60L319.36 292.60L319.36 219.40Q319.36 213.94 318.48 211.36Q317.59 208.78 315.01 207.82Q312.43 206.86 307.41 206.71L307.41 206.71L307.41 203.76Q312.87 203.91 318.92 203.98Q324.97 204.05 330.87 204.13Q336.78 204.20 341.87 204.20Q346.96 204.20 350.21 204.20L350.21 204.20Q356.99 204.20 365.63 204.13Q374.26 204.05 381.05 203.76ZM328.66 254.23L355.67 254.23Q355.67 254.23 355.67 255.70Q355.67 257.18 355.67 257.18L355.67 257.18L328.66 257.18Q328.66 257.18 328.66 255.70Q328.66 254.23 328.66 254.23L328.66 254.23ZM356.55 234.75L359.95 234.75Q359.36 243.16 359.43 247.59Q359.50 252.02 359.50 255.70L359.50 255.70Q359.50 259.39 359.65 263.82Q359.80 268.25 360.39 276.66L360.39 276.66L356.99 276.66Q356.40 271.94 355.59 267.44Q354.78 262.94 352.05 260.06Q349.32 257.18 342.83 257.18L342.83 257.18L342.83 254.23Q347.70 254.23 350.28 252.24Q352.86 250.24 354.04 247.15Q355.22 244.05 355.67 240.73Q356.11 237.41 356.55 234.75L356.55 234.75Z" fill="#FFFFFF"/></svg>
