<svg xmlns="http://www.w3.org/2000/svg" viewBox="0 0 64 64" role="img"><rect width="64" height="64" fill="#0F172A"/><path d="M16.22 22.76L16.22 22.76L16.22 23.28Q15.33 23.31 14.88 23.48Q14.42 23.65 14.26 24.11Q14.11 24.56 14.11 25.53L14.11 25.53L14.11 38.78Q14.11 39.59 14.22 39.98Q14.34 40.38 14.69 40.51Q15.05 40.64 15.75 40.64L15.75 40.64L17.03 40.64Q17.92 40.64 18.70 40.22Q19.48 39.80 20.11 39.03Q20.73 38.26 21.15 37.19Q21.57 36.12 21.78 34.82L21.78 34.82L22.38 34.82Q22.30 35.71 22.30 37.11L22.30 37.11Q22.30 37.71 22.33 38.86Q22.35 40.01 22.48 41.24L22.48 41.24Q21.15 41.19 19.48 41.17Q17.81 41.16 16.51 41.16L16.51 41.16L14.84 41.16Q13.82 41.16 12.64 41.17Q11.47 41.19 10.27 41.20Q9.07 41.21 8 41.24L8 41.24L8 40.72Q8.84 40.66 9.25 40.51Q9.67 40.35 9.81 39.88Q9.96 39.41 9.96 38.47L9.96 38.47L9.96 25.53Q9.96 24.56 9.81 24.11Q9.67 23.65 9.24 23.48Q8.81 23.31 8 23.28L8 23.28L8 22.76Q8.65 22.79 9.76 22.81Q10.87 22.84 12.12 22.84L12.12 22.84Q13.27 22.84 14.38 22.81Q15.49 22.79 16.22 22.76Z" fill="#FFFFFF"/><path d="M29.51 25.03L29.51 25.03Q30.28 25.03 30.75 25.14Q31.22 25.25 31.55 25.44L31.55 25.44Q31.86 25.58 32.13 25.80Q32.39 26.01 32.57 26.32Q32.74 26.64 32.74 27.03L32.74 27.03Q32.74 27.62 32.29 27.97Q31.84 28.32 31.24 28.32L31.24 28.32Q30.65 28.32 30.23 28.03Q29.81 27.73 29.81 27.11L29.81 27.11Q29.81 26.62 30.16 26.22Q30.51 25.82 31.06 25.72L31.06 25.72Q30.92 25.56 30.56 25.46Q30.20 25.37 29.77 25.37L29.77 25.37Q28.75 25.37 28.04 26.00Q27.32 26.64 27.32 27.93L27.32 27.93Q27.32 28.38 27.48 28.89Q27.64 29.40 28.09 29.93L28.09 29.93Q28.42 29.85 28.70 29.81Q28.99 29.77 29.18 29.77L29.18 29.77Q29.53 29.77 29.72 29.92Q29.91 30.06 29.91 30.30L29.91 30.30Q29.91 30.47 29.75 30.59Q29.59 30.71 29.36 30.71L29.36 30.71Q29.03 30.71 28.67 30.52Q28.32 30.34 28.11 30.20L28.11 30.20Q27.19 30.67 26.61 31.40Q26.03 32.14 26.03 33.37L26.03 33.37Q26.03 34.66 26.74 35.49Q27.44 36.33 28.72 36.75Q30.00 37.17 31.75 37.17L31.75 37.17Q32.72 37.17 33.68 36.95Q34.64 36.74 35.42 36.31Q36.19 35.87 36.66 35.24Q37.13 34.60 37.13 33.76L37.13 33.76Q37.13 33.45 37.04 32.97Q36.95 32.49 36.62 32L36.62 32Q36.31 31.57 35.64 31.28L35.64 31.28Q35.25 31.39 34.82 31.51L34.82 31.51Q34.39 31.63 33.99 31.75Q33.59 31.86 33.29 31.94L33.29 31.94Q31.77 32.27 30.94 32.69Q30.12 33.12 30.12 33.84L30.12 33.84Q30.12 34.33 30.44 34.68Q30.77 35.03 31.26 35.23Q31.75 35.42 32.23 35.42L32.23 35.42Q32.37 35.42 32.53 35.40Q32.68 35.37 32.82 35.32Q32.96 35.27 33.02 35.23L33.02 35.23Q32.53 35.07 32.28 34.73Q32.04 34.39 32.04 33.94L32.04 33.94Q32.04 33.31 32.49 32.98Q32.94 32.65 33.60 32.65L33.60 32.65Q34.31 32.65 34.71 33.02Q35.11 33.39 35.11 33.98L35.11 33.98Q35.11 34.58 34.74 34.98Q34.37 35.39 33.74 35.57Q33.12 35.76 32.33 35.76L32.33 35.76Q31.57 35.76 30.89 35.48Q30.22 35.21 29.82 34.65Q29.42 34.09 29.42 33.25L29.42 33.25Q29.42 32.22 29.95 31.52Q30.47 30.83 31.46 30.37Q32.45 29.91 33.80 29.65L33.80 29.65Q34.21 29.55 34.71 29.43Q35.21 29.30 35.74 29.16Q36.27 29.03 36.72 28.87L36.72 28.87Q38.13 28.52 38.90 28.09Q39.67 27.66 39.67 26.93L39.67 26.93Q39.67 26.40 39.35 26.00Q39.03 25.60 38.52 25.38Q38.01 25.15 37.46 25.15L37.46 25.15Q37.28 25.15 37.14 25.17Q36.99 25.19 36.89 25.25L36.89 25.25Q37.38 25.42 37.62 25.78Q37.85 26.13 37.85 26.48L37.85 26.48Q37.85 27.09 37.40 27.41Q36.95 27.73 36.29 27.73Q35.62 27.73 35.19 27.39Q34.76 27.05 34.76 26.44L34.76 26.44Q34.76 25.91 35.06 25.55Q35.37 25.19 35.91 24.99Q36.46 24.80 37.21 24.80L37.21 24.80Q38.60 24.80 39.46 25.52Q40.32 26.25 40.32 27.56L40.32 27.56Q40.32 28.56 39.84 29.24Q39.36 29.93 38.47 30.36Q37.58 30.79 36.34 31.04L36.34 31.04Q36.19 31.10 35.99 31.16L35.99 31.16Q36.79 31.53 37.26 32.29L37.26 32.29Q37.81 33.21 37.81 34.41L37.81 34.41Q37.81 35.78 36.97 36.86Q36.13 37.95 34.61 38.58Q33.10 39.20 31.06 39.20L31.06 39.20Q29.44 39.20 28.12 38.87Q26.79 38.54 25.85 37.90Q24.90 37.26 24.38 36.36Q23.86 35.46 23.86 34.33L23.86 34.33Q23.86 33.23 24.32 32.46Q24.78 31.69 25.44 31.19Q26.11 30.69 26.77 30.41Q27.44 30.14 27.83 30.04L27.83 30.04Q27.22 29.79 26.73 29.45Q26.23 29.10 25.92 28.63Q25.62 28.16 25.62 27.58L25.62 27.58Q25.62 26.95 25.95 26.47Q26.29 25.99 26.84 25.68Q27.40 25.37 28.10 25.20Q28.79 25.03 29.51 25.03Z" fill="#CC9A14"/><path d="M55.48 22.76L55.48 22.76Q55.37 23.91 55.33 24.98Q55.30 26.05 55.30 26.62L55.30 26.62Q55.30 27.15 55.32 27.62Q55.35 28.09 55.37 28.40L55.37 28.40L54.77 28.40Q54.51 26.49 53.96 25.39Q53.42 24.28 52.54 23.82Q51.67 23.36 50.49 23.36L50.49 23.36L49.42 23.36Q48.67 23.36 48.28 23.49Q47.88 23.62 47.75 24.02Q47.62 24.41 47.62 25.22L47.62 25.22L47.62 31.69L48.46 31.69Q49.24 31.69 49.79 31.36Q50.34 31.03 50.69 30.50Q51.04 29.96 51.25 29.36Q51.46 28.76 51.56 28.24L51.56 28.24L52.16 28.24Q52.06 29.73 52.07 30.51Q52.09 31.30 52.09 31.95Q52.09 32.60 52.11 33.38Q52.14 34.17 52.24 35.65L52.24 35.65L51.64 35.65Q51.51 34.74 51.16 33.96Q50.81 33.17 50.15 32.69Q49.50 32.21 48.46 32.21L48.46 32.21L47.62 32.21L47.62 38.78Q47.62 39.59 47.75 39.98Q47.88 40.38 48.28 40.51Q48.67 40.64 49.42 40.64L49.42 40.64L50.70 40.64Q51.88 40.64 52.78 40.13Q53.68 39.62 54.32 38.39Q54.96 37.17 55.30 35.08L55.30 35.08L55.90 35.08Q55.82 35.91 55.82 37.27L55.82 37.27Q55.82 37.87 55.84 38.97Q55.87 40.06 56 41.24L56 41.24Q54.67 41.19 53.00 41.17Q51.33 41.16 50.02 41.16L50.02 41.16L48.35 41.16Q47.34 41.16 46.16 41.17Q44.99 41.19 43.79 41.20Q42.59 41.21 41.52 41.24L41.52 41.24L41.52 40.72Q42.35 40.66 42.77 40.51Q43.19 40.35 43.33 39.88Q43.47 39.41 43.47 38.47L43.47 38.47L43.47 25.53Q43.47 24.56 43.33 24.11Q43.19 23.65 42.76 23.48Q42.33 23.31 41.52 23.28L41.52 23.28L41.52 22.76Q42.59 22.79 43.79 22.80Q44.99 22.81 46.16 22.83Q47.34 22.84 48.35 22.84L48.35 22.84L50.02 22.84Q51.22 22.84 52.75 22.83Q54.28 22.81 55.48 22.76Z" fill="#FFFFFF"/></svg>
