<svg xmlns="http://www.w3.org/2000/svg" viewBox="0 0 64 64" role="img"><rect width="64" height="64" fill="#0F172A"/><path d="M15.06 22.20L15.06 22.20L15.06 22.76Q14.12 22.79 13.63 22.97Q13.15 23.15 12.98 23.63Q12.81 24.11 12.81 25.14L12.81 25.14L12.81 38.86Q12.81 39.86 12.98 40.36Q13.15 40.85 13.63 41.01Q14.12 41.16 15.06 41.16L15.06 41.16L17.08 41.16Q18.38 41.16 19.19 40.88Q20.01 40.61 20.49 40.01Q20.98 39.42 21.23 38.42Q21.48 37.42 21.61 35.98L21.61 35.98L22.25 35.98Q22.17 36.84 22.17 38.25L22.17 38.25Q22.17 38.78 22.21 39.76Q22.25 40.74 22.36 41.80L22.36 41.80Q20.95 41.74 19.18 41.73Q17.41 41.71 16.02 41.71L16.02 41.71Q15.42 41.71 14.46 41.71Q13.51 41.71 12.40 41.73Q11.29 41.74 10.16 41.75Q9.02 41.77 8.00 41.80L8.00 41.80L8.00 41.24Q8.94 41.19 9.42 41.02Q9.91 40.85 10.08 40.36Q10.24 39.86 10.24 38.86L10.24 38.86L10.24 25.14Q10.24 24.11 10.08 23.63Q9.91 23.15 9.42 22.97Q8.94 22.79 8.00 22.76L8.00 22.76L8.00 22.20Q8.58 22.23 9.52 22.26Q10.46 22.29 11.54 22.29L11.54 22.29Q12.51 22.29 13.46 22.26Q14.42 22.23 15.06 22.20Z" fill="#FFFFFF"/><path d="M29.48 24.78L29.48 24.78Q30.27 24.78 30.79 24.95Q31.30 25.13 31.64 25.40L31.64 25.40Q31.91 25.61 32.07 25.86Q32.24 26.11 32.32 26.36Q32.40 26.60 32.40 26.83L32.40 26.83Q32.40 27.35 32.04 27.64Q31.68 27.93 31.24 27.93L31.24 27.93Q30.83 27.93 30.50 27.66Q30.16 27.39 30.16 26.89L30.16 26.89Q30.16 26.44 30.47 26.12Q30.79 25.80 31.26 25.75L31.26 25.75Q31.18 25.48 30.75 25.29Q30.33 25.09 29.69 25.09L29.69 25.09Q28.63 25.09 27.95 25.72Q27.28 26.36 27.28 27.56L27.28 27.56Q27.28 28.14 27.50 28.74Q27.71 29.34 28.34 29.92L28.34 29.92Q28.69 29.86 29.06 29.83Q29.44 29.80 29.62 29.80L29.62 29.80Q30.00 29.80 30.23 29.92Q30.45 30.05 30.45 30.28L30.45 30.28Q30.45 30.46 30.30 30.57Q30.14 30.67 29.87 30.67L29.87 30.67Q29.48 30.67 29.04 30.50Q28.61 30.32 28.36 30.22L28.36 30.22Q27.15 30.57 26.41 31.37Q25.66 32.17 25.66 33.62L25.66 33.62Q25.66 35.05 26.41 36.05Q27.15 37.04 28.41 37.57Q29.67 38.10 31.22 38.10L31.22 38.10Q32.32 38.10 33.31 37.84Q34.29 37.58 35.05 37.08Q35.81 36.59 36.24 35.89Q36.68 35.20 36.68 34.30L36.68 34.30Q36.68 33.91 36.51 33.30Q36.35 32.68 35.83 32.09Q35.31 31.50 34.23 31.17L34.23 31.17L34.48 30.96Q35.99 31.42 36.64 32.43Q37.28 33.43 37.28 34.68L37.28 34.68Q37.28 35.92 36.53 37.06Q35.79 38.20 34.38 38.92Q32.96 39.64 30.95 39.64L30.95 39.64Q29.60 39.64 28.39 39.28Q27.18 38.93 26.24 38.26Q25.31 37.58 24.77 36.63Q24.23 35.67 24.23 34.47L24.23 34.47Q24.23 33.35 24.66 32.55Q25.10 31.75 25.74 31.23Q26.39 30.71 27.03 30.43Q27.67 30.15 28.07 30.05L28.07 30.05Q27.38 29.74 26.92 29.31Q26.45 28.89 26.21 28.38Q25.97 27.87 25.97 27.37L25.97 27.37Q25.97 26.87 26.20 26.41Q26.43 25.94 26.86 25.57Q27.30 25.19 27.95 24.99Q28.61 24.78 29.48 24.78ZM37.03 24.36L37.03 24.36Q38.32 24.36 39.19 25.10Q40.06 25.84 40.06 27.16L40.06 27.16Q40.06 27.87 39.80 28.42Q39.54 28.97 39.10 29.39Q38.65 29.80 38.09 30.07L38.09 30.07Q37.61 30.30 36.84 30.57Q36.06 30.84 35.18 31.11Q34.29 31.38 33.49 31.64Q32.70 31.90 32.20 32.08L32.20 32.08Q31.43 32.37 30.90 32.80Q30.37 33.22 30.37 33.89L30.37 33.89Q30.37 34.43 30.68 34.80Q30.99 35.18 31.44 35.36Q31.89 35.55 32.28 35.55L32.28 35.55Q32.47 35.55 32.75 35.50Q33.03 35.44 33.26 35.34Q33.48 35.24 33.53 35.09L33.53 35.09Q33.19 35.03 32.87 34.79Q32.55 34.55 32.55 34.03L32.55 34.03Q32.55 33.54 32.88 33.25Q33.21 32.95 33.69 32.95L33.69 32.95Q34.19 32.95 34.49 33.27Q34.79 33.58 34.79 34.08L34.79 34.08Q34.79 34.66 34.41 35.06Q34.02 35.47 33.45 35.66Q32.88 35.86 32.32 35.86L32.32 35.86Q31.74 35.86 31.14 35.61Q30.54 35.36 30.14 34.83Q29.75 34.30 29.75 33.43L29.75 33.43Q29.75 32.71 30.07 32.15Q30.39 31.58 31.04 31.15Q31.68 30.71 32.61 30.40L32.61 30.40Q33.23 30.19 34.13 29.95Q35.02 29.70 35.96 29.41Q36.91 29.12 37.68 28.76L37.68 28.76Q38.71 28.29 39.09 27.79Q39.46 27.29 39.46 26.77L39.46 26.77Q39.46 26.17 39.13 25.70Q38.80 25.23 38.25 24.95Q37.70 24.67 37.05 24.67L37.05 24.67Q36.80 24.67 36.64 24.72Q36.47 24.76 36.43 24.86L36.43 24.86Q36.72 25.01 36.87 25.28Q37.01 25.55 37.01 25.82L37.01 25.82Q37.01 26.25 36.67 26.54Q36.33 26.83 35.85 26.83L35.85 26.83Q35.46 26.83 35.10 26.57Q34.75 26.31 34.75 25.80L34.75 25.80Q34.75 25.26 35.11 24.94Q35.48 24.63 36.01 24.50Q36.53 24.36 37.03 24.36Z" fill="#CC9A14"/><path d="M55.45 22.20L55.45 22.20Q55.34 23.17 55.29 24.09Q55.25 25.00 55.25 25.47L55.25 25.47Q55.25 25.97 55.28 26.42Q55.31 26.88 55.34 27.19L55.34 27.19L54.70 27.19Q54.53 25.55 54.23 24.60Q53.92 23.64 53.19 23.24Q52.46 22.84 50.99 22.84L50.99 22.84L48.70 22.84Q47.75 22.84 47.27 22.99Q46.79 23.15 46.62 23.63Q46.45 24.11 46.45 25.14L46.45 25.14L46.45 38.86Q46.45 39.86 46.62 40.36Q46.79 40.85 47.27 41.01Q47.75 41.16 48.70 41.16L48.70 41.16L50.72 41.16Q52.46 41.16 53.36 40.69Q54.26 40.22 54.66 39.15Q55.06 38.09 55.25 36.26L55.25 36.26L55.89 36.26Q55.81 37.01 55.81 38.25L55.81 38.25Q55.81 38.78 55.85 39.76Q55.89 40.74 56.00 41.80L56.00 41.80Q54.59 41.74 52.82 41.73Q51.05 41.71 49.66 41.71L49.66 41.71Q49.05 41.71 48.10 41.71Q47.15 41.71 46.04 41.73Q44.93 41.74 43.80 41.75Q42.66 41.77 41.64 41.80L41.64 41.80L41.64 41.24Q42.58 41.19 43.06 41.02Q43.55 40.85 43.71 40.36Q43.88 39.86 43.88 38.86L43.88 38.86L43.88 25.14Q43.88 24.11 43.71 23.63Q43.55 23.15 43.06 22.97Q42.58 22.79 41.64 22.76L41.64 22.76L41.64 22.20Q42.66 22.23 43.80 22.25Q44.93 22.26 46.04 22.27Q47.15 22.29 48.10 22.29Q49.05 22.29 49.66 22.29L49.66 22.29Q50.94 22.29 52.56 22.27Q54.17 22.26 55.45 22.20ZM45.62 31.67L50.69 31.67Q50.69 31.67 50.69 31.94Q50.69 32.22 50.69 32.22L50.69 32.22L45.62 32.22Q45.62 32.22 45.62 31.94Q45.62 31.67 45.62 31.67L45.62 31.67ZM50.85 28.02L51.49 28.02Q51.38 29.59 51.39 30.42Q51.41 31.25 51.41 31.94L51.41 31.94Q51.41 32.64 51.43 33.47Q51.46 34.30 51.57 35.87L51.57 35.87L50.94 35.87Q50.83 34.99 50.67 34.14Q50.52 33.30 50.01 32.76Q49.50 32.22 48.28 32.22L48.28 32.22L48.28 31.67Q49.19 31.67 49.68 31.29Q50.16 30.92 50.38 30.34Q50.60 29.76 50.69 29.14Q50.77 28.51 50.85 28.02L50.85 28.02Z" fill="#FFFFFF"/></svg>
