<svg xmlns="http://www.w3.org/2000/svg" viewBox="0 0 64 64" role="img"><rect width="64" height="64" fill="#0F172A"/><path d="M14.30 23.26L14.30 23.26L14.30 23.75Q13.46 23.78 13.02 23.94Q12.59 24.10 12.44 24.53Q12.30 24.96 12.30 25.88L12.30 25.88L12.30 38.12Q12.30 39.01 12.44 39.46Q12.59 39.90 13.02 40.04Q13.46 40.17 14.30 40.17L14.30 40.17L16.10 40.17Q17.26 40.17 17.99 39.93Q18.72 39.68 19.15 39.15Q19.58 38.62 19.80 37.73Q20.02 36.84 20.15 35.56L20.15 35.56L20.72 35.56Q20.64 36.32 20.64 37.58L20.64 37.58Q20.64 38.05 20.68 38.93Q20.72 39.80 20.81 40.74L20.81 40.74Q19.56 40.69 17.98 40.68Q16.40 40.67 15.16 40.67L15.16 40.67Q14.62 40.67 13.77 40.67Q12.91 40.67 11.93 40.68Q10.94 40.69 9.93 40.70Q8.91 40.72 8.00 40.74L8.00 40.74L8.00 40.25Q8.84 40.20 9.27 40.05Q9.70 39.90 9.85 39.46Q10.00 39.01 10.00 38.12L10.00 38.12L10.00 25.88Q10.00 24.96 9.85 24.53Q9.70 24.10 9.27 23.94Q8.84 23.78 8.00 23.75L8.00 23.75L8.00 23.26Q8.52 23.28 9.36 23.31Q10.20 23.33 11.16 23.33L11.16 23.33Q12.02 23.33 12.88 23.31Q13.73 23.28 14.30 23.26Z" fill="#FFFFFF"/><path d="M29.06 23.41L29.06 23.41Q30.00 23.41 30.62 23.62Q31.23 23.83 31.63 24.15L31.63 24.15Q31.95 24.40 32.15 24.69Q32.35 24.99 32.44 25.28Q32.54 25.58 32.54 25.85L32.54 25.85Q32.54 26.47 32.11 26.81Q31.68 27.16 31.16 27.16L31.16 27.16Q30.67 27.16 30.27 26.84Q29.88 26.52 29.88 25.93L29.88 25.93Q29.88 25.38 30.25 25Q30.62 24.62 31.19 24.57L31.19 24.57Q31.09 24.25 30.58 24.01Q30.07 23.78 29.31 23.78L29.31 23.78Q28.05 23.78 27.25 24.53Q26.44 25.28 26.44 26.72L26.44 26.72Q26.44 27.41 26.70 28.12Q26.96 28.84 27.70 29.53L27.70 29.53Q28.12 29.46 28.57 29.42Q29.01 29.38 29.23 29.38L29.23 29.38Q29.68 29.38 29.95 29.53Q30.22 29.68 30.22 29.95L30.22 29.95Q30.22 30.17 30.04 30.30Q29.85 30.42 29.53 30.42L29.53 30.42Q29.06 30.42 28.54 30.21Q28.02 30 27.73 29.88L27.73 29.88Q26.30 30.30 25.41 31.25Q24.52 32.20 24.52 33.93L24.52 33.93Q24.52 35.63 25.41 36.81Q26.30 38 27.79 38.63Q29.28 39.26 31.14 39.26L31.14 39.26Q32.44 39.26 33.62 38.95Q34.79 38.64 35.69 38.05Q36.59 37.46 37.11 36.63Q37.63 35.80 37.63 34.74L37.63 34.74Q37.63 34.27 37.43 33.54Q37.23 32.81 36.62 32.11Q36 31.41 34.72 31.01L34.72 31.01L35.01 30.77Q36.81 31.31 37.58 32.51Q38.35 33.70 38.35 35.19L38.35 35.19Q38.35 36.67 37.46 38.02Q36.57 39.38 34.89 40.23Q33.21 41.09 30.81 41.09L30.81 41.09Q29.21 41.09 27.77 40.67Q26.32 40.25 25.21 39.44Q24.10 38.64 23.46 37.51Q22.81 36.37 22.81 34.94L22.81 34.94Q22.81 33.60 23.33 32.65Q23.85 31.70 24.62 31.09Q25.38 30.47 26.15 30.14Q26.91 29.80 27.38 29.68L27.38 29.68Q26.57 29.31 26.01 28.80Q25.46 28.30 25.17 27.69Q24.89 27.09 24.89 26.49L24.89 26.49Q24.89 25.90 25.16 25.35Q25.43 24.79 25.95 24.35Q26.47 23.90 27.25 23.65Q28.02 23.41 29.06 23.41ZM38.05 22.91L38.05 22.91Q39.58 22.91 40.62 23.79Q41.65 24.67 41.65 26.25L41.65 26.25Q41.65 27.09 41.35 27.74Q41.04 28.40 40.51 28.89Q39.98 29.38 39.31 29.70L39.31 29.70Q38.74 29.98 37.81 30.30Q36.89 30.62 35.84 30.94Q34.79 31.26 33.84 31.57Q32.89 31.88 32.30 32.10L32.30 32.10Q31.38 32.44 30.75 32.95Q30.12 33.46 30.12 34.25L30.12 34.25Q30.12 34.89 30.49 35.33Q30.86 35.78 31.40 36Q31.93 36.22 32.40 36.22L32.40 36.22Q32.62 36.22 32.95 36.16Q33.28 36.10 33.56 35.98Q33.83 35.85 33.88 35.68L33.88 35.68Q33.48 35.60 33.10 35.32Q32.72 35.04 32.72 34.42L32.72 34.42Q32.72 33.83 33.11 33.48Q33.51 33.14 34.07 33.14L34.07 33.14Q34.67 33.14 35.02 33.51Q35.38 33.88 35.38 34.47L35.38 34.47Q35.38 35.16 34.93 35.64Q34.47 36.12 33.79 36.36Q33.11 36.59 32.44 36.59L32.44 36.59Q31.75 36.59 31.04 36.30Q30.32 36 29.85 35.37Q29.38 34.74 29.38 33.70L29.38 33.70Q29.38 32.84 29.77 32.17Q30.15 31.51 30.91 30.99Q31.68 30.47 32.79 30.10L32.79 30.10Q33.53 29.85 34.59 29.56Q35.65 29.26 36.78 28.91Q37.90 28.57 38.81 28.15L38.81 28.15Q40.05 27.58 40.49 26.99Q40.94 26.40 40.94 25.78L40.94 25.78Q40.94 25.06 40.54 24.51Q40.15 23.95 39.49 23.62Q38.84 23.28 38.07 23.28L38.07 23.28Q37.78 23.28 37.58 23.33Q37.38 23.38 37.33 23.51L37.33 23.51Q37.68 23.68 37.85 24Q38.02 24.32 38.02 24.64L38.02 24.64Q38.02 25.16 37.62 25.51Q37.21 25.85 36.64 25.85L36.64 25.85Q36.17 25.85 35.75 25.54Q35.33 25.23 35.33 24.62L35.33 24.62Q35.33 23.98 35.77 23.60Q36.20 23.23 36.83 23.07Q37.46 22.91 38.05 22.91Z" fill="#CC9A14"/><path d="M55.51 23.26L55.51 23.26Q55.41 24.12 55.37 24.94Q55.33 25.75 55.33 26.17L55.33 26.17Q55.33 26.62 55.36 27.02Q55.38 27.43 55.41 27.70L55.41 27.70L54.84 27.70Q54.69 26.25 54.42 25.40Q54.15 24.54 53.49 24.19Q52.84 23.83 51.53 23.83L51.53 23.83L49.48 23.83Q48.64 23.83 48.21 23.96Q47.78 24.10 47.63 24.53Q47.48 24.96 47.48 25.88L47.48 25.88L47.48 38.12Q47.48 39.01 47.63 39.46Q47.78 39.90 48.21 40.04Q48.64 40.17 49.48 40.17L49.48 40.17L51.28 40.17Q52.84 40.17 53.64 39.75Q54.44 39.33 54.80 38.38Q55.16 37.43 55.33 35.80L55.33 35.80L55.90 35.80Q55.83 36.47 55.83 37.58L55.83 37.58Q55.83 38.05 55.86 38.93Q55.90 39.80 56.00 40.74L56.00 40.74Q54.74 40.69 53.16 40.68Q51.58 40.67 50.35 40.67L50.35 40.67Q49.80 40.67 48.95 40.67Q48.10 40.67 47.11 40.68Q46.12 40.69 45.11 40.70Q44.10 40.72 43.19 40.74L43.19 40.74L43.19 40.25Q44.02 40.20 44.46 40.05Q44.89 39.90 45.04 39.46Q45.19 39.01 45.19 38.12L45.19 38.12L45.19 25.88Q45.19 24.96 45.04 24.53Q44.89 24.10 44.46 23.94Q44.02 23.78 43.19 23.75L43.19 23.75L43.19 23.26Q44.10 23.28 45.11 23.30Q46.12 23.31 47.11 23.32Q48.10 23.33 48.95 23.33Q49.80 23.33 50.35 23.33L50.35 23.33Q51.48 23.33 52.93 23.32Q54.37 23.31 55.51 23.26ZM46.74 31.70L51.26 31.70Q51.26 31.70 51.26 31.95Q51.26 32.20 51.26 32.20L51.26 32.20L46.74 32.20Q46.74 32.20 46.74 31.95Q46.74 31.70 46.74 31.70L46.74 31.70ZM51.41 28.44L51.98 28.44Q51.88 29.85 51.89 30.59Q51.90 31.33 51.90 31.95L51.90 31.95Q51.90 32.57 51.93 33.31Q51.95 34.05 52.05 35.46L52.05 35.46L51.48 35.46Q51.38 34.67 51.25 33.91Q51.11 33.16 50.65 32.68Q50.20 32.20 49.11 32.20L49.11 32.20L49.11 31.70Q49.93 31.70 50.36 31.37Q50.79 31.04 50.99 30.52Q51.19 30 51.26 29.44Q51.33 28.89 51.41 28.44L51.41 28.44Z" fill="#FFFFFF"/></svg>
