<svg xmlns="http://www.w3.org/2000/svg" viewBox="0 0 64 64" role="img"><rect width="64" height="64" fill="#0F172A"/><path d="M15.06 22.20L15.06 22.20L15.06 22.76Q14.12 22.79 13.63 22.97Q13.15 23.15 12.98 23.63Q12.81 24.11 12.81 25.14L12.81 25.14L12.81 38.86Q12.81 39.86 12.98 40.36Q13.15 40.85 13.63 41.01Q14.12 41.16 15.06 41.16L15.06 41.16L17.08 41.16Q18.38 41.16 19.19 40.88Q20.01 40.61 20.49 40.01Q20.98 39.42 21.23 38.42Q21.48 37.42 21.61 35.98L21.61 35.98L22.25 35.98Q22.17 36.84 22.17 38.25L22.17 38.25Q22.17 38.78 22.21 39.76Q22.25 40.74 22.36 41.80L22.36 41.80Q20.95 41.74 19.18 41.73Q17.41 41.71 16.02 41.71L16.02 41.71Q15.42 41.71 14.46 41.71Q13.51 41.71 12.40 41.73Q11.29 41.74 10.16 41.75Q9.02 41.77 8.00 41.80L8.00 41.80L8.00 41.24Q8.94 41.19 9.42 41.02Q9.91 40.85 10.08 40.36Q10.24 39.86 10.24 38.86L10.24 38.86L10.24 25.14Q10.24 24.11 10.08 23.63Q9.91 23.15 9.42 22.97Q8.94 22.79 8.00 22.76L8.00 22.76L8.00 22.20Q8.58 22.23 9.52 22.26Q10.46 22.29 11.54 22.29L11.54 22.29Q12.51 22.29 13.46 22.26Q14.42 22.23 15.06 22.20Z" fill="#FFFFFF"/><path d="M32.37 24.78L32.37 24.78Q33.16 24.78 33.68 24.95Q34.20 25.13 34.53 25.40L34.53 25.40Q34.80 25.61 34.97 25.86Q35.13 26.11 35.22 26.36Q35.30 26.60 35.30 26.83L35.30 26.83Q35.30 27.35 34.94 27.64Q34.57 27.93 34.14 27.93L34.14 27.93Q33.72 27.93 33.39 27.66Q33.06 27.39 33.06 26.89L33.06 26.89Q33.06 26.44 33.37 26.12Q33.68 25.80 34.16 25.75L34.16 25.75Q34.08 25.48 33.65 25.29Q33.22 25.09 32.58 25.09L32.58 25.09Q31.52 25.09 30.85 25.72Q30.17 26.36 30.17 27.56L30.17 27.56Q30.17 28.14 30.39 28.74Q30.61 29.34 31.23 29.92L31.23 29.92Q31.58 29.86 31.96 29.83Q32.33 29.80 32.52 29.80L32.52 29.80Q32.89 29.80 33.12 29.92Q33.35 30.05 33.35 30.28L33.35 30.28Q33.35 30.46 33.19 30.57Q33.04 30.67 32.77 30.67L32.77 30.67Q32.37 30.67 31.94 30.50Q31.50 30.32 31.25 30.22L31.25 30.22Q30.05 30.57 29.30 31.37Q28.56 32.17 28.56 33.62L28.56 33.62Q28.56 35.05 29.30 36.05Q30.05 37.04 31.30 37.57Q32.56 38.10 34.12 38.10L34.12 38.10Q35.22 38.10 36.20 37.84Q37.19 37.58 37.95 37.08Q38.70 36.59 39.14 35.89Q39.57 35.20 39.57 34.30L39.57 34.30Q39.57 33.91 39.41 33.30Q39.24 32.68 38.72 32.09Q38.20 31.50 37.13 31.17L37.13 31.17L37.37 30.96Q38.89 31.42 39.53 32.43Q40.18 33.43 40.18 34.68L40.18 34.68Q40.18 35.92 39.43 37.06Q38.68 38.20 37.27 38.92Q35.86 39.64 33.85 39.64L33.85 39.64Q32.50 39.64 31.28 39.28Q30.07 38.93 29.14 38.26Q28.20 37.58 27.66 36.63Q27.12 35.67 27.12 34.47L27.12 34.47Q27.12 33.35 27.56 32.55Q27.99 31.75 28.64 31.23Q29.28 30.71 29.92 30.43Q30.57 30.15 30.96 30.05L30.96 30.05Q30.28 29.74 29.81 29.31Q29.34 28.89 29.11 28.38Q28.87 27.87 28.87 27.37L28.87 27.37Q28.87 26.87 29.09 26.41Q29.32 25.94 29.76 25.57Q30.19 25.19 30.85 24.99Q31.50 24.78 32.37 24.78ZM39.93 24.36L39.93 24.36Q41.21 24.36 42.09 25.10Q42.96 25.84 42.96 27.16L42.96 27.16Q42.96 27.87 42.70 28.42Q42.44 28.97 41.99 29.39Q41.55 29.80 40.99 30.07L40.99 30.07Q40.51 30.30 39.73 30.57Q38.95 30.84 38.07 31.11Q37.19 31.38 36.39 31.64Q35.59 31.90 35.09 32.08L35.09 32.08Q34.32 32.37 33.80 32.80Q33.27 33.22 33.27 33.89L33.27 33.89Q33.27 34.43 33.58 34.80Q33.89 35.18 34.33 35.36Q34.78 35.55 35.18 35.55L35.18 35.55Q35.36 35.55 35.64 35.50Q35.92 35.44 36.15 35.34Q36.38 35.24 36.42 35.09L36.42 35.09Q36.09 35.03 35.77 34.79Q35.44 34.55 35.44 34.03L35.44 34.03Q35.44 33.54 35.78 33.25Q36.11 32.95 36.59 32.95L36.59 32.95Q37.08 32.95 37.39 33.27Q37.69 33.58 37.69 34.08L37.69 34.08Q37.69 34.66 37.30 35.06Q36.92 35.47 36.35 35.66Q35.78 35.86 35.22 35.86L35.22 35.86Q34.64 35.86 34.03 35.61Q33.43 35.36 33.04 34.83Q32.64 34.30 32.64 33.43L32.64 33.43Q32.64 32.71 32.96 32.15Q33.29 31.58 33.93 31.15Q34.57 30.71 35.51 30.40L35.51 30.40Q36.13 30.19 37.02 29.95Q37.91 29.70 38.86 29.41Q39.80 29.12 40.57 28.76L40.57 28.76Q41.61 28.29 41.98 27.79Q42.36 27.29 42.36 26.77L42.36 26.77Q42.36 26.17 42.02 25.70Q41.69 25.23 41.14 24.95Q40.59 24.67 39.95 24.67L39.95 24.67Q39.70 24.67 39.53 24.72Q39.37 24.76 39.33 24.86L39.33 24.86Q39.62 25.01 39.76 25.28Q39.91 25.55 39.91 25.82L39.91 25.82Q39.91 26.25 39.56 26.54Q39.22 26.83 38.74 26.83L38.74 26.83Q38.35 26.83 38.00 26.57Q37.64 26.31 37.64 25.80L37.64 25.80Q37.64 25.26 38.01 24.94Q38.37 24.63 38.90 24.50Q39.43 24.36 39.93 24.36Z" fill="#CC9A14"/><path d="M55.45 22.20L55.45 22.20Q55.34 23.17 55.29 24.09Q55.25 25.00 55.25 25.47L55.25 25.47Q55.25 25.97 55.28 26.42Q55.31 26.88 55.34 27.19L55.34 27.19L54.70 27.19Q54.53 25.55 54.23 24.60Q53.92 23.64 53.19 23.24Q52.46 22.84 50.99 22.84L50.99 22.84L48.70 22.84Q47.75 22.84 47.27 22.99Q46.79 23.15 46.62 23.63Q46.45 24.11 46.45 25.14L46.45 25.14L46.45 38.86Q46.45 39.86 46.62 40.36Q46.79 40.85 47.27 41.01Q47.75 41.16 48.70 41.16L48.70 41.16L50.72 41.16Q52.46 41.16 53.36 40.69Q54.26 40.22 54.66 39.15Q55.06 38.09 55.25 36.26L55.25 36.26L55.89 36.26Q55.81 37.01 55.81 38.25L55.81 38.25Q55.81 38.78 55.85 39.76Q55.89 40.74 56.00 41.80L56.00 41.80Q54.59 41.74 52.82 41.73Q51.05 41.71 49.66 41.71L49.66 41.71Q49.05 41.71 48.10 41.71Q47.15 41.71 46.04 41.73Q44.93 41.74 43.80 41.75Q42.66 41.77 41.64 41.80L41.64 41.80L41.64 41.24Q42.58 41.19 43.06 41.02Q43.55 40.85 43.71 40.36Q43.88 39.86 43.88 38.86L43.88 38.86L43.88 25.14Q43.88 24.11 43.71 23.63Q43.55 23.15 43.06 22.97Q42.58 22.79 41.64 22.76L41.64 22.76L41.64 22.20Q42.66 22.23 43.80 22.25Q44.93 22.26 46.04 22.27Q47.15 22.29 48.10 22.29Q49.05 22.29 49.66 22.29L49.66 22.29Q50.94 22.29 52.56 22.27Q54.17 22.26 55.45 22.20ZM45.62 31.67L50.69 31.67Q50.69 31.67 50.69 31.94Q50.69 32.22 50.69 32.22L50.69 32.22L45.62 32.22Q45.62 32.22 45.62 31.94Q45.62 31.67 45.62 31.67L45.62 31.67ZM50.85 28.02L51.49 28.02Q51.38 29.59 51.39 30.42Q51.41 31.25 51.41 31.94L51.41 31.94Q51.41 32.64 51.43 33.47Q51.46 34.30 51.57 35.87L51.57 35.87L50.94 35.87Q50.83 34.99 50.67 34.14Q50.52 33.30 50.01 32.76Q49.50 32.22 48.28 32.22L48.28 32.22L48.28 31.67Q49.19 31.67 49.68 31.29Q50.16 30.92 50.38 30.34Q50.60 29.76 50.69 29.14Q50.77 28.51 50.85 28.02L50.85 28.02Z" fill="#FFFFFF"/></svg>
