<svg xmlns="http://www.w3.org/2000/svg" viewBox="0 0 1200 630" role="img"><rect width="1200" height="630" fill="#FFFFFF"/><rect x="0" y="0" width="8" height="630" fill="#CC9A14"/><path d="M115.70 200L115.70 200L115.70 202.80Q110.94 202.94 108.49 203.85Q106.04 204.76 105.20 207.21Q104.36 209.66 104.36 214.84L104.36 214.84L104.36 284.28Q104.36 289.32 105.20 291.84Q106.04 294.36 108.49 295.13Q110.94 295.90 115.70 295.90L115.70 295.90L125.92 295.90Q132.50 295.90 136.63 294.50Q140.76 293.10 143.21 290.09Q145.66 287.08 146.92 282.04Q148.18 277 148.88 269.72L148.88 269.72L152.10 269.72Q151.68 274.06 151.68 281.20L151.68 281.20Q151.68 283.86 151.89 288.83Q152.10 293.80 152.66 299.12L152.66 299.12Q145.52 298.84 136.56 298.77Q127.60 298.70 120.60 298.70L120.60 298.70Q117.52 298.70 112.69 298.70Q107.86 298.70 102.26 298.77Q96.66 298.84 90.92 298.91Q85.18 298.98 80 299.12L80 299.12L80 296.32Q84.76 296.04 87.21 295.20Q89.66 294.36 90.50 291.84Q91.34 289.32 91.34 284.28L91.34 284.28L91.34 214.84Q91.34 209.66 90.50 207.21Q89.66 204.76 87.21 203.85Q84.76 202.94 80 202.80L80 202.80L80 200Q82.94 200.14 87.70 200.28Q92.46 200.42 97.92 200.42L97.92 200.42Q102.82 200.42 107.65 200.28Q112.48 200.14 115.70 200Z" fill="#0F172A"/><path d="M188.68 213.02L188.68 213.02Q192.66 213.02 195.29 213.91Q197.91 214.81 199.59 216.17L199.59 216.17Q200.96 217.22 201.80 218.48Q202.64 219.74 203.06 221Q203.48 222.26 203.48 223.42L203.48 223.42Q203.48 226.04 201.64 227.51Q199.81 228.98 197.60 228.98L197.60 228.98Q195.50 228.98 193.82 227.62Q192.14 226.25 192.14 223.73L192.14 223.73Q192.14 221.42 193.72 219.79Q195.29 218.17 197.70 217.96L197.70 217.96Q197.28 216.59 195.13 215.59Q192.98 214.60 189.72 214.60L189.72 214.60Q184.37 214.60 180.96 217.80Q177.54 221 177.54 227.09L177.54 227.09Q177.54 230.03 178.65 233.08Q179.75 236.12 182.90 239.06L182.90 239.06Q184.69 238.75 186.57 238.59Q188.47 238.43 189.41 238.43L189.41 238.43Q191.30 238.43 192.45 239.06Q193.61 239.69 193.61 240.85L193.61 240.85Q193.61 241.79 192.82 242.32Q192.03 242.84 190.67 242.84L190.67 242.84Q188.68 242.84 186.47 241.95Q184.26 241.06 183.00 240.53L183.00 240.53Q176.91 242.32 173.13 246.36Q169.35 250.40 169.35 257.75L169.35 257.75Q169.35 265.00 173.13 270.04Q176.91 275.08 183.27 277.75Q189.62 280.43 197.50 280.43L197.50 280.43Q203.06 280.43 208.05 279.12Q213.03 277.81 216.87 275.29Q220.70 272.77 222.91 269.25Q225.11 265.73 225.11 261.22L225.11 261.22Q225.11 259.22 224.27 256.12Q223.43 253.03 220.81 250.03Q218.18 247.04 212.72 245.36L212.72 245.36L213.98 244.31Q221.64 246.62 224.90 251.71Q228.16 256.81 228.16 263.11L228.16 263.11Q228.16 269.41 224.38 275.18Q220.59 280.96 213.45 284.58Q206.31 288.20 196.13 288.20L196.13 288.20Q189.31 288.20 183.16 286.42Q177.02 284.63 172.29 281.22Q167.57 277.81 164.84 272.98Q162.11 268.15 162.11 262.06L162.11 262.06Q162.11 256.38 164.31 252.34Q166.52 248.30 169.78 245.68Q173.03 243.05 176.28 241.63Q179.54 240.22 181.53 239.69L181.53 239.69Q178.07 238.12 175.71 235.96Q173.34 233.81 172.14 231.24Q170.93 228.67 170.93 226.15L170.93 226.15Q170.93 223.63 172.09 221.26Q173.24 218.90 175.44 217.01Q177.65 215.12 180.96 214.07Q184.26 213.02 188.68 213.02ZM226.89 210.92L226.89 210.92Q233.41 210.92 237.81 214.65Q242.22 218.38 242.22 225.10L242.22 225.10Q242.22 228.67 240.91 231.45Q239.60 234.23 237.34 236.33Q235.08 238.43 232.25 239.80L232.25 239.80Q229.83 240.95 225.90 242.32Q221.96 243.68 217.50 245.05Q213.03 246.41 208.99 247.72Q204.95 249.04 202.43 249.98L202.43 249.98Q198.54 251.45 195.87 253.60Q193.19 255.76 193.19 259.12L193.19 259.12Q193.19 261.85 194.76 263.74Q196.34 265.63 198.60 266.57Q200.85 267.52 202.85 267.52L202.85 267.52Q203.79 267.52 205.21 267.25Q206.63 266.99 207.78 266.47Q208.94 265.94 209.15 265.21L209.15 265.21Q207.47 264.89 205.84 263.68Q204.22 262.48 204.22 259.85L204.22 259.85Q204.22 257.33 205.89 255.86Q207.57 254.39 209.99 254.39L209.99 254.39Q212.51 254.39 214.03 255.97Q215.56 257.54 215.56 260.06L215.56 260.06Q215.56 263 213.61 265.05Q211.67 267.10 208.78 268.09Q205.89 269.09 203.06 269.09L203.06 269.09Q200.12 269.09 197.07 267.83Q194.03 266.57 192.03 263.89Q190.04 261.22 190.04 256.81L190.04 256.81Q190.04 253.13 191.67 250.30Q193.29 247.46 196.55 245.26Q199.81 243.05 204.53 241.48L204.53 241.48Q207.68 240.43 212.19 239.17Q216.71 237.91 221.49 236.44Q226.26 234.97 230.15 233.18L230.15 233.18Q235.40 230.77 237.29 228.25Q239.18 225.73 239.18 223.10L239.18 223.10Q239.18 220.06 237.50 217.69Q235.82 215.33 233.04 213.91Q230.25 212.50 227 212.50L227 212.50Q225.74 212.50 224.90 212.71Q224.06 212.92 223.85 213.44L223.85 213.44Q225.32 214.18 226.06 215.54Q226.79 216.91 226.79 218.27L226.79 218.27Q226.79 220.48 225.06 221.95Q223.32 223.42 220.91 223.42L220.91 223.42Q218.91 223.42 217.13 222.10Q215.34 220.79 215.34 218.17L215.34 218.17Q215.34 215.44 217.18 213.86Q219.02 212.29 221.70 211.60Q224.38 210.92 226.89 210.92Z" fill="#CC9A14"/><path d="M320.06 200L320.06 200Q319.50 204.90 319.30 209.52Q319.08 214.14 319.08 216.52L319.08 216.52Q319.08 219.04 319.23 221.35Q319.37 223.66 319.50 225.20L319.50 225.20L316.28 225.20Q315.44 216.94 313.90 212.11Q312.37 207.28 308.65 205.25Q304.94 203.22 297.52 203.22L297.52 203.22L285.90 203.22Q281.14 203.22 278.69 203.99Q276.25 204.76 275.40 207.21Q274.56 209.66 274.56 214.84L274.56 214.84L274.56 284.28Q274.56 289.32 275.40 291.84Q276.25 294.36 278.69 295.13Q281.14 295.90 285.90 295.90L285.90 295.90L296.13 295.90Q304.94 295.90 309.50 293.52Q314.05 291.14 316.07 285.75Q318.11 280.36 319.08 271.12L319.08 271.12L322.31 271.12Q321.88 274.90 321.88 281.20L321.88 281.20Q321.88 283.86 322.10 288.83Q322.31 293.80 322.87 299.12L322.87 299.12Q315.73 298.84 306.76 298.77Q297.81 298.70 290.81 298.70L290.81 298.70Q287.73 298.70 282.89 298.70Q278.06 298.70 272.46 298.77Q266.87 298.84 261.13 298.91Q255.38 298.98 250.20 299.12L250.20 299.12L250.20 296.32Q254.96 296.04 257.41 295.20Q259.87 294.36 260.70 291.84Q261.55 289.32 261.55 284.28L261.55 284.28L261.55 214.84Q261.55 209.66 260.70 207.21Q259.87 204.76 257.41 203.85Q254.96 202.94 250.20 202.80L250.20 202.80L250.20 200Q255.38 200.14 261.13 200.21Q266.87 200.28 272.46 200.35Q278.06 200.42 282.89 200.42Q287.73 200.42 290.81 200.42L290.81 200.42Q297.25 200.42 305.44 200.35Q313.63 200.28 320.06 200ZM270.37 247.88L295.99 247.88Q295.99 247.88 295.99 249.28Q295.99 250.68 295.99 250.68L295.99 250.68L270.37 250.68Q270.37 250.68 270.37 249.28Q270.37 247.88 270.37 247.88L270.37 247.88ZM296.82 229.40L300.05 229.40Q299.49 237.38 299.56 241.58Q299.63 245.78 299.63 249.28L299.63 249.28Q299.63 252.78 299.76 256.98Q299.90 261.18 300.46 269.16L300.46 269.16L297.25 269.16Q296.69 264.68 295.91 260.41Q295.14 256.14 292.56 253.41Q289.96 250.68 283.81 250.68L283.81 250.68L283.81 247.88Q288.43 247.88 290.88 245.99Q293.32 244.10 294.44 241.16Q295.56 238.22 295.99 235.07Q296.40 231.92 296.82 229.40L296.82 229.40ZM370.32 202.80L370.32 200Q373.26 200.14 378.02 200.28Q382.78 200.42 387.40 200.42L387.40 200.42Q393.99 200.42 400.00 200.28Q406.02 200.14 408.55 200.14L408.55 200.14Q425.49 200.14 433.88 207.84Q442.28 215.54 442.28 227.72L442.28 227.72Q442.28 232.76 440.61 238.29Q438.93 243.82 434.80 248.51Q430.67 253.20 423.52 256.14Q416.38 259.08 405.46 259.08L405.46 259.08L392.02 259.08L392.02 256.28L404.06 256.28Q414.00 256.28 419.25 252.50Q424.50 248.72 426.39 242.56Q428.28 236.40 428.28 229.26L428.28 229.26Q428.28 215.96 423.03 209.38Q417.78 202.80 405.05 202.80L405.05 202.80Q398.61 202.80 396.64 205.18Q394.69 207.56 394.69 214.84L394.69 214.84L394.69 284.28Q394.69 289.32 395.74 291.84Q396.78 294.36 399.87 295.20Q402.94 296.04 408.82 296.32L408.82 296.32L408.82 299.12Q405.19 298.84 399.58 298.77Q393.99 298.70 388.25 298.70L388.25 298.70Q382.78 298.70 378.02 298.77Q373.26 298.84 370.32 299.12L370.32 299.12L370.32 296.32Q375.08 296.04 377.53 295.20Q379.99 294.36 380.82 291.84Q381.67 289.32 381.67 284.28L381.67 284.28L381.67 214.84Q381.67 209.66 380.82 207.21Q379.99 204.76 377.53 203.85Q375.08 202.94 370.32 202.80L370.32 202.80ZM470.29 300.10L470.29 300.10Q464.55 300.10 460.35 297.93Q456.15 295.76 453.98 291.84Q451.81 287.92 451.81 282.74L451.81 282.74Q451.81 276.58 454.68 272.66Q457.55 268.74 462.03 266.36Q466.51 263.98 471.48 262.37Q476.45 260.76 480.93 259.29Q485.41 257.82 488.28 255.86Q491.15 253.90 491.15 250.68L491.15 250.68L491.15 242Q491.15 236.12 489.40 233.04Q487.65 229.96 484.71 228.91Q481.77 227.86 478.13 227.86L478.13 227.86Q474.63 227.86 470.64 228.84Q466.65 229.82 464.27 232.90L464.27 232.90Q466.93 233.46 468.89 235.70Q470.85 237.94 470.85 241.44L470.85 241.44Q470.85 244.94 468.61 246.97Q466.37 249 462.87 249L462.87 249Q458.81 249 456.92 246.41Q455.03 243.82 455.03 240.60L455.03 240.60Q455.03 236.96 456.85 234.72Q458.67 232.48 461.47 230.52L461.47 230.52Q464.69 228.28 469.80 226.67Q474.91 225.06 481.35 225.06L481.35 225.06Q487.09 225.06 491.15 226.39Q495.21 227.72 497.87 230.24L497.87 230.24Q501.51 233.60 502.63 238.43Q503.75 243.26 503.75 249.98L503.75 249.98L503.75 288.90Q503.75 292.40 504.80 293.94Q505.85 295.48 508.09 295.48L508.09 295.48Q509.63 295.48 511.03 294.78Q512.43 294.08 514.38 292.54L514.38 292.54L515.93 294.92Q512.99 297.16 510.33 298.63Q507.67 300.10 503.19 300.10L503.19 300.10Q499.13 300.10 496.47 298.70Q493.81 297.30 492.48 294.57Q491.15 291.84 491.15 287.64L491.15 287.64Q487.37 293.94 482.12 297.02Q476.87 300.10 470.29 300.10ZM475.33 294.50L475.33 294.50Q479.95 294.50 483.94 291.84Q487.93 289.18 491.15 283.86L491.15 283.86L491.15 256.42Q489.47 258.80 486.25 260.41Q483.03 262.02 479.25 263.63Q475.47 265.24 472.04 267.41Q468.61 269.58 466.37 273.08Q464.13 276.58 464.13 282.18L464.13 282.18Q464.13 287.78 467.14 291.14Q470.15 294.50 475.33 294.50ZM563.67 225.06L563.67 225.06Q567.45 225.06 570.32 226.60Q573.19 228.14 574.80 230.59Q576.41 233.04 576.41 236.12L576.41 236.12Q576.41 239.62 574.24 242.28Q572.07 244.94 568.43 244.94L568.43 244.94Q565.49 244.94 563.25 243.05Q561.01 241.16 561.01 237.66L561.01 237.66Q561.01 235 562.48 233.11Q563.95 231.22 565.77 230.10L565.77 230.10Q564.79 228.70 562.83 228.70L562.83 228.70Q558.49 228.70 554.85 231.29Q551.21 233.88 548.69 237.94Q546.17 242 544.77 246.55Q543.37 251.10 543.37 255.02L543.37 255.02L543.37 284.70Q543.37 291.56 547.36 293.87Q551.35 296.18 558.21 296.18L558.21 296.18L558.21 299.12Q554.99 298.98 549.11 298.77Q543.23 298.56 536.65 298.56L536.65 298.56Q531.89 298.56 527.20 298.77Q522.51 298.98 520.13 299.12L520.13 299.12L520.13 296.18Q525.87 296.18 528.32 294.08Q530.77 291.98 530.77 286.10L530.77 286.10L530.77 242.28Q530.77 235.98 528.53 232.97Q526.29 229.96 520.13 229.96L520.13 229.96L520.13 227.02Q524.61 227.44 528.81 227.44L528.81 227.44Q532.87 227.44 536.58 226.95Q540.29 226.46 543.37 225.48L543.37 225.48L543.37 242.98Q544.91 238.92 547.78 234.79Q550.65 230.66 554.71 227.86Q558.77 225.06 563.67 225.06ZM604.97 203.78L604.97 203.78L604.97 227.16L625.69 227.16L625.69 229.96L604.97 229.96L604.97 284.14Q604.97 290.72 607.35 293.38Q609.73 296.04 613.92 296.04L613.92 296.04Q618.13 296.04 621.21 292.61Q624.28 289.18 626.52 281.06L626.52 281.06L629.33 281.76Q627.92 289.88 623.80 295.48Q619.66 301.08 611.13 301.08L611.13 301.08Q606.37 301.08 603.28 299.89Q600.21 298.70 597.83 296.46L597.83 296.46Q594.75 293.24 593.56 288.76Q592.37 284.28 592.37 276.86L592.37 276.86L592.37 229.96L578.92 229.96L578.92 227.16L592.37 227.16L592.37 205.74Q595.87 205.60 599.09 205.18Q602.31 204.76 604.97 203.78ZM679.02 225.06L679.02 225.06Q684.34 225.06 687.91 226.46Q691.49 227.86 693.87 230.38L693.87 230.38Q696.52 233.18 697.64 237.38Q698.76 241.58 698.76 248.72L698.76 248.72L698.76 286.10Q698.76 291.98 701.21 294.08Q703.66 296.18 709.40 296.18L709.40 296.18L709.40 299.12Q707.02 298.98 702.13 298.77Q697.22 298.56 692.61 298.56L692.61 298.56Q687.98 298.56 683.57 298.77Q679.16 298.98 676.92 299.12L676.92 299.12L676.92 296.18Q681.96 296.18 684.06 294.08Q686.16 291.98 686.16 286.10L686.16 286.10L686.16 245.64Q686.16 241.30 685.46 237.66Q684.76 234.02 682.31 231.78Q679.87 229.54 674.82 229.54L674.82 229.54Q668.94 229.54 664.53 232.90Q660.13 236.26 657.67 242.07Q655.22 247.88 655.22 255.02L655.22 255.02L655.22 286.10Q655.22 291.98 657.32 294.08Q659.42 296.18 664.46 296.18L664.46 296.18L664.46 299.12Q662.22 298.98 657.81 298.77Q653.40 298.56 648.78 298.56L648.78 298.56Q644.16 298.56 639.26 298.77Q634.37 298.98 631.98 299.12L631.98 299.12L631.98 296.18Q637.72 296.18 640.17 294.08Q642.63 291.98 642.63 286.10L642.63 286.10L642.63 242.28Q642.63 235.98 640.38 232.97Q638.14 229.96 631.98 229.96L631.98 229.96L631.98 227.02Q636.46 227.44 640.66 227.44L640.66 227.44Q644.72 227.44 648.43 226.95Q652.14 226.46 655.22 225.48L655.22 225.48L655.22 242Q658.87 232.48 665.38 228.77Q671.88 225.06 679.02 225.06ZM749.59 225.06L749.59 225.06Q761.90 225.06 768.84 232.55Q775.76 240.04 775.76 255.86L775.76 255.86L726.35 255.86L726.21 253.20L762.33 253.20Q762.61 246.34 761.21 240.53Q759.80 234.72 756.79 231.22Q753.78 227.72 749.02 227.72L749.02 227.72Q742.59 227.72 737.62 234.16Q732.64 240.60 731.66 254.60L731.66 254.60L732.09 255.16Q731.80 257.26 731.66 259.78Q731.52 262.30 731.52 264.82L731.52 264.82Q731.52 274.34 734.61 281.20Q737.68 288.06 742.65 291.63Q747.63 295.20 752.95 295.20L752.95 295.20Q757.14 295.20 760.92 293.87Q764.71 292.54 767.92 289.46Q771.14 286.38 773.52 281.20L773.52 281.20L776.33 282.32Q774.78 286.94 771.28 291.28Q767.78 295.62 762.47 298.35Q757.14 301.08 750.14 301.08L750.14 301.08Q740.07 301.08 732.86 296.46Q725.64 291.84 721.79 283.65Q717.95 275.46 717.95 264.82L717.95 264.82Q717.95 252.50 721.87 243.61Q725.78 234.72 732.92 229.89Q740.07 225.06 749.59 225.06ZM829.95 225.06L829.95 225.06Q833.73 225.06 836.60 226.60Q839.47 228.14 841.08 230.59Q842.69 233.04 842.69 236.12L842.69 236.12Q842.69 239.62 840.51 242.28Q838.35 244.94 834.71 244.94L834.71 244.94Q831.76 244.94 829.53 243.05Q827.29 241.16 827.29 237.66L827.29 237.66Q827.29 235 828.75 233.11Q830.23 231.22 832.05 230.10L832.05 230.10Q831.07 228.70 829.11 228.70L829.11 228.70Q824.76 228.70 821.13 231.29Q817.49 233.88 814.97 237.94Q812.45 242 811.05 246.55Q809.64 251.10 809.64 255.02L809.64 255.02L809.64 284.70Q809.64 291.56 813.63 293.87Q817.63 296.18 824.49 296.18L824.49 296.18L824.49 299.12Q821.26 298.98 815.38 298.77Q809.50 298.56 802.93 298.56L802.93 298.56Q798.17 298.56 793.48 298.77Q788.79 298.98 786.40 299.12L786.40 299.12L786.40 296.18Q792.14 296.18 794.60 294.08Q797.05 291.98 797.05 286.10L797.05 286.10L797.05 242.28Q797.05 235.98 794.81 232.97Q792.57 229.96 786.40 229.96L786.40 229.96L786.40 227.02Q790.88 227.44 795.09 227.44L795.09 227.44Q799.14 227.44 802.86 226.95Q806.57 226.46 809.64 225.48L809.64 225.48L809.64 242.98Q811.19 238.92 814.06 234.79Q816.93 230.66 820.99 227.86Q825.05 225.06 829.95 225.06ZM873.76 225.06L873.76 225.06Q879.37 225.06 883.28 226.88Q887.20 228.70 889.02 230.24L889.02 230.24Q893.64 234.02 894.63 225.20L894.63 225.20L897.85 225.20Q897.56 229.12 897.42 234.51Q897.28 239.90 897.28 249L897.28 249L894.06 249Q893.23 243.82 891.19 238.92Q889.16 234.02 885.25 230.87Q881.33 227.72 875.02 227.72L875.02 227.72Q870.13 227.72 866.84 230.45Q863.54 233.18 863.54 238.50L863.54 238.50Q863.54 242.70 866.06 245.71Q868.59 248.72 872.64 251.31Q876.70 253.90 881.47 256.98L881.47 256.98Q886.78 260.34 891.13 263.84Q895.47 267.34 898.05 271.54Q900.64 275.74 900.64 281.48L900.64 281.48Q900.64 287.92 897.28 292.26Q893.92 296.60 888.53 298.84Q883.14 301.08 876.70 301.08L876.70 301.08Q873.63 301.08 870.89 300.59Q868.16 300.10 865.64 299.12L865.64 299.12Q864.25 298.42 862.77 297.44Q861.30 296.46 859.90 295.34L859.90 295.34Q858.50 294.22 857.38 295.41Q856.26 296.60 855.70 300.10L855.70 300.10L852.49 300.10Q852.76 295.62 852.90 289.18Q853.04 282.74 853.04 272.10L853.04 272.10L856.26 272.10Q857.25 279.94 859.06 285.82Q860.88 291.70 864.80 294.99Q868.73 298.28 875.73 298.28L875.73 298.28Q878.52 298.28 881.39 297.02Q884.26 295.76 886.23 292.82Q888.18 289.88 888.18 284.98L888.18 284.98Q888.18 278.82 883.70 274.90Q879.23 270.98 872.37 266.64L872.37 266.64Q867.32 263.42 862.91 260.20Q858.50 256.98 855.77 252.92Q853.04 248.86 853.04 243.12L853.04 243.12Q853.04 236.82 855.91 232.83Q858.78 228.84 863.54 226.95Q868.30 225.06 873.76 225.06Z" fill="#0F172A"/><text x="80" y="410" font-family="Inter, sans-serif" font-weight="400" font-size="40" fill="#0F172A" fill-opacity="0.7" letter-spacing="0.5">Executive Search for Private Equity</text><text x="80" y="555" font-family="Inter, sans-serif" font-weight="600" font-size="22" fill="#CC9A14" letter-spacing="6">RETHINKING HOW PRIVATE EQUITY FIRMS INVEST IN EXECUTIVES</text></svg>
