<svg xmlns="http://www.w3.org/2000/svg" viewBox="0 0 1200 630" role="img"><rect width="1200" height="630" fill="#FFFFFF"/><rect x="0" y="0" width="8" height="630" fill="#CC9A14"/><path d="M115.70 291.96L115.70 291.96L115.70 294.76Q110.94 294.90 108.49 295.81Q106.04 296.72 105.20 299.17Q104.36 301.62 104.36 306.80L104.36 306.80L104.36 376.24Q104.36 381.28 105.20 383.80Q106.04 386.32 108.49 387.09Q110.94 387.86 115.70 387.86L115.70 387.86L125.92 387.86Q132.50 387.86 136.63 386.46Q140.76 385.06 143.21 382.05Q145.66 379.04 146.92 374.00Q148.18 368.96 148.88 361.68L148.88 361.68L152.10 361.68Q151.68 366.02 151.68 373.16L151.68 373.16Q151.68 375.82 151.89 380.79Q152.10 385.76 152.66 391.08L152.66 391.08Q145.52 390.80 136.56 390.73Q127.60 390.66 120.60 390.66L120.60 390.66Q117.52 390.66 112.69 390.66Q107.86 390.66 102.26 390.73Q96.66 390.80 90.92 390.87Q85.18 390.94 80 391.08L80 391.08L80 388.28Q84.76 388.00 87.21 387.16Q89.66 386.32 90.50 383.80Q91.34 381.28 91.34 376.24L91.34 376.24L91.34 306.80Q91.34 301.62 90.50 299.17Q89.66 296.72 87.21 295.81Q84.76 294.90 80 294.76L80 294.76L80 291.96Q82.94 292.10 87.70 292.24Q92.46 292.38 97.92 292.38L97.92 292.38Q102.82 292.38 107.65 292.24Q112.48 292.10 115.70 291.96Z" fill="#0F172A"/><path d="M199.42 292.80L199.42 292.80Q204.74 292.80 208.24 293.99Q211.74 295.18 213.98 297L213.98 297Q215.80 298.40 216.92 300.08Q218.04 301.76 218.60 303.44Q219.16 305.12 219.16 306.66L219.16 306.66Q219.16 310.16 216.71 312.12Q214.26 314.08 211.32 314.08L211.32 314.08Q208.52 314.08 206.28 312.26Q204.04 310.44 204.04 307.08L204.04 307.08Q204.04 304 206.14 301.83Q208.24 299.66 211.46 299.38L211.46 299.38Q210.90 297.56 208.03 296.23Q205.16 294.90 200.82 294.90L200.82 294.90Q193.68 294.90 189.13 299.17Q184.58 303.44 184.58 311.56L184.58 311.56Q184.58 315.48 186.05 319.54Q187.52 323.60 191.72 327.52L191.72 327.52Q194.10 327.10 196.62 326.89Q199.14 326.68 200.40 326.68L200.40 326.68Q202.92 326.68 204.46 327.52Q206 328.36 206 329.90L206 329.90Q206 331.16 204.95 331.86Q203.90 332.56 202.08 332.56L202.08 332.56Q199.42 332.56 196.48 331.37Q193.54 330.18 191.86 329.48L191.86 329.48Q183.74 331.86 178.70 337.25Q173.66 342.64 173.66 352.44L173.66 352.44Q173.66 362.10 178.70 368.82Q183.74 375.54 192.21 379.11Q200.68 382.68 211.18 382.68L211.18 382.68Q218.60 382.68 225.25 380.93Q231.90 379.18 237.01 375.82Q242.12 372.46 245.06 367.77Q248 363.08 248 357.06L248 357.06Q248 354.40 246.88 350.27Q245.76 346.14 242.26 342.15Q238.76 338.16 231.48 335.92L231.48 335.92L233.16 334.52Q243.38 337.60 247.72 344.39Q252.06 351.18 252.06 359.58L252.06 359.58Q252.06 367.98 247.02 375.68Q241.98 383.38 232.46 388.21Q222.94 393.04 209.36 393.04L209.36 393.04Q200.26 393.04 192.07 390.66Q183.88 388.28 177.58 383.73Q171.28 379.18 167.64 372.74Q164 366.30 164 358.18L164 358.18Q164 350.62 166.94 345.23Q169.88 339.84 174.22 336.34Q178.56 332.84 182.90 330.95Q187.24 329.06 189.90 328.36L189.90 328.36Q185.28 326.26 182.13 323.39Q178.98 320.52 177.37 317.09Q175.76 313.66 175.76 310.30L175.76 310.30Q175.76 306.94 177.30 303.79Q178.84 300.64 181.78 298.12Q184.72 295.60 189.13 294.20Q193.54 292.80 199.42 292.80ZM250.38 290L250.38 290Q259.06 290 264.94 294.97Q270.82 299.94 270.82 308.90L270.82 308.90Q270.82 313.66 269.07 317.37Q267.32 321.08 264.31 323.88Q261.30 326.68 257.52 328.50L257.52 328.50Q254.30 330.04 249.05 331.86Q243.80 333.68 237.85 335.50Q231.90 337.32 226.51 339.07Q221.12 340.82 217.76 342.08L217.76 342.08Q212.58 344.04 209.01 346.91Q205.44 349.78 205.44 354.26L205.44 354.26Q205.44 357.90 207.54 360.42Q209.64 362.94 212.65 364.20Q215.66 365.46 218.32 365.46L218.32 365.46Q219.58 365.46 221.47 365.11Q223.36 364.76 224.90 364.06Q226.44 363.36 226.72 362.38L226.72 362.38Q224.48 361.96 222.31 360.35Q220.14 358.74 220.14 355.24L220.14 355.24Q220.14 351.88 222.38 349.92Q224.62 347.96 227.84 347.96L227.84 347.96Q231.20 347.96 233.23 350.06Q235.26 352.16 235.26 355.52L235.26 355.52Q235.26 359.44 232.67 362.17Q230.08 364.90 226.23 366.23Q222.38 367.56 218.60 367.56L218.60 367.56Q214.68 367.56 210.62 365.88Q206.56 364.20 203.90 360.63Q201.24 357.06 201.24 351.18L201.24 351.18Q201.24 346.28 203.41 342.50Q205.58 338.72 209.92 335.78Q214.26 332.84 220.56 330.74L220.56 330.74Q224.76 329.34 230.78 327.66Q236.80 325.98 243.17 324.02Q249.54 322.06 254.72 319.68L254.72 319.68Q261.72 316.46 264.24 313.10Q266.76 309.74 266.76 306.24L266.76 306.24Q266.76 302.18 264.52 299.03Q262.28 295.88 258.57 293.99Q254.86 292.10 250.52 292.10L250.52 292.10Q248.84 292.10 247.72 292.38Q246.60 292.66 246.32 293.36L246.32 293.36Q248.28 294.34 249.26 296.16Q250.24 297.98 250.24 299.80L250.24 299.80Q250.24 302.74 247.93 304.70Q245.62 306.66 242.40 306.66L242.40 306.66Q239.74 306.66 237.36 304.91Q234.98 303.16 234.98 299.66L234.98 299.66Q234.98 296.02 237.43 293.92Q239.88 291.82 243.45 290.91Q247.02 290 250.38 290Z" fill="#0F172A" fill-opacity="0.4"/><path d="M349.36 291.96L349.36 291.96Q348.80 296.86 348.59 301.48Q348.38 306.10 348.38 308.48L348.38 308.48Q348.38 311 348.52 313.31Q348.66 315.62 348.80 317.16L348.80 317.16L345.58 317.16Q344.74 308.90 343.20 304.07Q341.66 299.24 337.95 297.21Q334.24 295.18 326.82 295.18L326.82 295.18L315.20 295.18Q310.44 295.18 307.99 295.95Q305.54 296.72 304.70 299.17Q303.86 301.62 303.86 306.80L303.86 306.80L303.86 376.24Q303.86 381.28 304.70 383.80Q305.54 386.32 307.99 387.09Q310.44 387.86 315.20 387.86L315.20 387.86L325.42 387.86Q334.24 387.86 338.79 385.48Q343.34 383.10 345.37 377.71Q347.40 372.32 348.38 363.08L348.38 363.08L351.60 363.08Q351.18 366.86 351.18 373.16L351.18 373.16Q351.18 375.82 351.39 380.79Q351.60 385.76 352.16 391.08L352.16 391.08Q345.02 390.80 336.06 390.73Q327.10 390.66 320.10 390.66L320.10 390.66Q317.02 390.66 312.19 390.66Q307.36 390.66 301.76 390.73Q296.16 390.80 290.42 390.87Q284.68 390.94 279.50 391.08L279.50 391.08L279.50 388.28Q284.26 388.00 286.71 387.16Q289.16 386.32 290 383.80Q290.84 381.28 290.84 376.24L290.84 376.24L290.84 306.80Q290.84 301.62 290 299.17Q289.16 296.72 286.71 295.81Q284.26 294.90 279.50 294.76L279.50 294.76L279.50 291.96Q284.68 292.10 290.42 292.17Q296.16 292.24 301.76 292.31Q307.36 292.38 312.19 292.38Q317.02 292.38 320.10 292.38L320.10 292.38Q326.54 292.38 334.73 292.31Q342.92 292.24 349.36 291.96ZM299.66 339.84L325.28 339.84Q325.28 339.84 325.28 341.24Q325.28 342.64 325.28 342.64L325.28 342.64L299.66 342.64Q299.66 342.64 299.66 341.24Q299.66 339.84 299.66 339.84L299.66 339.84ZM326.12 321.36L329.34 321.36Q328.78 329.34 328.85 333.54Q328.92 337.74 328.92 341.24L328.92 341.24Q328.92 344.74 329.06 348.94Q329.20 353.14 329.76 361.12L329.76 361.12L326.54 361.12Q325.98 356.64 325.21 352.37Q324.44 348.10 321.85 345.37Q319.26 342.64 313.10 342.64L313.10 342.64L313.10 339.84Q317.72 339.84 320.17 337.95Q322.62 336.06 323.74 333.12Q324.86 330.18 325.28 327.03Q325.70 323.88 326.12 321.36L326.12 321.36ZM399.62 294.76L399.62 291.96Q402.56 292.10 407.32 292.24Q412.08 292.38 416.70 292.38L416.70 292.38Q423.28 292.38 429.30 292.24Q435.32 292.10 437.84 292.10L437.84 292.10Q454.78 292.10 463.18 299.80Q471.58 307.50 471.58 319.68L471.58 319.68Q471.58 324.72 469.90 330.25Q468.22 335.78 464.09 340.47Q459.96 345.16 452.82 348.10Q445.68 351.04 434.76 351.04L434.76 351.04L421.32 351.04L421.32 348.24L433.36 348.24Q443.30 348.24 448.55 344.46Q453.80 340.68 455.69 334.52Q457.58 328.36 457.58 321.22L457.58 321.22Q457.58 307.92 452.33 301.34Q447.08 294.76 434.34 294.76L434.34 294.76Q427.90 294.76 425.94 297.14Q423.98 299.52 423.98 306.80L423.98 306.80L423.98 376.24Q423.98 381.28 425.03 383.80Q426.08 386.32 429.16 387.16Q432.24 388.00 438.12 388.28L438.12 388.28L438.12 391.08Q434.48 390.80 428.88 390.73Q423.28 390.66 417.54 390.66L417.54 390.66Q412.08 390.66 407.32 390.73Q402.56 390.80 399.62 391.08L399.62 391.08L399.62 388.28Q404.38 388.00 406.83 387.16Q409.28 386.32 410.12 383.80Q410.96 381.28 410.96 376.24L410.96 376.24L410.96 306.80Q410.96 301.62 410.12 299.17Q409.28 296.72 406.83 295.81Q404.38 294.90 399.62 294.76L399.62 294.76ZM499.58 392.06L499.58 392.06Q493.84 392.06 489.64 389.89Q485.44 387.72 483.27 383.80Q481.10 379.88 481.10 374.70L481.10 374.70Q481.10 368.54 483.97 364.62Q486.84 360.70 491.32 358.32Q495.80 355.94 500.77 354.33Q505.74 352.72 510.22 351.25Q514.70 349.78 517.57 347.82Q520.44 345.86 520.44 342.64L520.44 342.64L520.44 333.96Q520.44 328.08 518.69 325Q516.94 321.92 514 320.87Q511.06 319.82 507.42 319.82L507.42 319.82Q503.92 319.82 499.93 320.80Q495.94 321.78 493.56 324.86L493.56 324.86Q496.22 325.42 498.18 327.66Q500.14 329.90 500.14 333.40L500.14 333.40Q500.14 336.90 497.90 338.93Q495.66 340.96 492.16 340.96L492.16 340.96Q488.10 340.96 486.21 338.37Q484.32 335.78 484.32 332.56L484.32 332.56Q484.32 328.92 486.14 326.68Q487.96 324.44 490.76 322.48L490.76 322.48Q493.98 320.24 499.09 318.63Q504.20 317.02 510.64 317.02L510.64 317.02Q516.38 317.02 520.44 318.35Q524.50 319.68 527.16 322.20L527.16 322.20Q530.80 325.56 531.92 330.39Q533.04 335.22 533.04 341.94L533.04 341.94L533.04 380.86Q533.04 384.36 534.09 385.90Q535.14 387.44 537.38 387.44L537.38 387.44Q538.92 387.44 540.32 386.74Q541.72 386.04 543.68 384.50L543.68 384.50L545.22 386.88Q542.28 389.12 539.62 390.59Q536.96 392.06 532.48 392.06L532.48 392.06Q528.42 392.06 525.76 390.66Q523.10 389.26 521.77 386.53Q520.44 383.80 520.44 379.60L520.44 379.60Q516.66 385.90 511.41 388.98Q506.16 392.06 499.58 392.06ZM504.62 386.46L504.62 386.46Q509.24 386.46 513.23 383.80Q517.22 381.14 520.44 375.82L520.44 375.82L520.44 348.38Q518.76 350.76 515.54 352.37Q512.32 353.98 508.54 355.59Q504.76 357.20 501.33 359.37Q497.90 361.54 495.66 365.04Q493.42 368.54 493.42 374.14L493.42 374.14Q493.42 379.74 496.43 383.10Q499.44 386.46 504.62 386.46ZM592.96 317.02L592.96 317.02Q596.74 317.02 599.61 318.56Q602.48 320.10 604.09 322.55Q605.70 325 605.70 328.08L605.70 328.08Q605.70 331.58 603.53 334.24Q601.36 336.90 597.72 336.90L597.72 336.90Q594.78 336.90 592.54 335.01Q590.30 333.12 590.30 329.62L590.30 329.62Q590.30 326.96 591.77 325.07Q593.24 323.18 595.06 322.06L595.06 322.06Q594.08 320.66 592.12 320.66L592.12 320.66Q587.78 320.66 584.14 323.25Q580.50 325.84 577.98 329.90Q575.46 333.96 574.06 338.51Q572.66 343.06 572.66 346.98L572.66 346.98L572.66 376.66Q572.66 383.52 576.65 385.83Q580.64 388.14 587.50 388.14L587.50 388.14L587.50 391.08Q584.28 390.94 578.40 390.73Q572.52 390.52 565.94 390.52L565.94 390.52Q561.18 390.52 556.49 390.73Q551.80 390.94 549.42 391.08L549.42 391.08L549.42 388.14Q555.16 388.14 557.61 386.04Q560.06 383.94 560.06 378.06L560.06 378.06L560.06 334.24Q560.06 327.94 557.82 324.93Q555.58 321.92 549.42 321.92L549.42 321.92L549.42 318.98Q553.90 319.40 558.10 319.40L558.10 319.40Q562.16 319.40 565.87 318.91Q569.58 318.42 572.66 317.44L572.66 317.44L572.66 334.94Q574.20 330.88 577.07 326.75Q579.94 322.62 584 319.82Q588.06 317.02 592.96 317.02ZM634.26 295.74L634.26 295.74L634.26 319.12L654.98 319.12L654.98 321.92L634.26 321.92L634.26 376.10Q634.26 382.68 636.64 385.34Q639.02 388.00 643.22 388.00L643.22 388.00Q647.42 388.00 650.50 384.57Q653.58 381.14 655.82 373.02L655.82 373.02L658.62 373.72Q657.22 381.84 653.09 387.44Q648.96 393.04 640.42 393.04L640.42 393.04Q635.66 393.04 632.58 391.85Q629.50 390.66 627.12 388.42L627.12 388.42Q624.04 385.20 622.85 380.72Q621.66 376.24 621.66 368.82L621.66 368.82L621.66 321.92L608.22 321.92L608.22 319.12L621.66 319.12L621.66 297.70Q625.16 297.56 628.38 297.14Q631.60 296.72 634.26 295.74ZM708.32 317.02L708.32 317.02Q713.64 317.02 717.21 318.42Q720.78 319.82 723.16 322.34L723.16 322.34Q725.82 325.14 726.94 329.34Q728.06 333.54 728.06 340.68L728.06 340.68L728.06 378.06Q728.06 383.94 730.51 386.04Q732.96 388.14 738.70 388.14L738.70 388.14L738.70 391.08Q736.32 390.94 731.42 390.73Q726.52 390.52 721.90 390.52L721.90 390.52Q717.28 390.52 712.87 390.73Q708.46 390.94 706.22 391.08L706.22 391.08L706.22 388.14Q711.26 388.14 713.36 386.04Q715.46 383.94 715.46 378.06L715.46 378.06L715.46 337.60Q715.46 333.26 714.76 329.62Q714.06 325.98 711.61 323.74Q709.16 321.50 704.12 321.50L704.12 321.50Q698.24 321.50 693.83 324.86Q689.42 328.22 686.97 334.03Q684.52 339.84 684.52 346.98L684.52 346.98L684.52 378.06Q684.52 383.94 686.62 386.04Q688.72 388.14 693.76 388.14L693.76 388.14L693.76 391.08Q691.52 390.94 687.11 390.73Q682.70 390.52 678.08 390.52L678.08 390.52Q673.46 390.52 668.56 390.73Q663.66 390.94 661.28 391.08L661.28 391.08L661.28 388.14Q667.02 388.14 669.47 386.04Q671.92 383.94 671.92 378.06L671.92 378.06L671.92 334.24Q671.92 327.94 669.68 324.93Q667.44 321.92 661.28 321.92L661.28 321.92L661.28 318.98Q665.76 319.40 669.96 319.40L669.96 319.40Q674.02 319.40 677.73 318.91Q681.44 318.42 684.52 317.44L684.52 317.44L684.52 333.96Q688.16 324.44 694.67 320.73Q701.18 317.02 708.32 317.02ZM778.88 317.02L778.88 317.02Q791.20 317.02 798.13 324.51Q805.06 332.00 805.06 347.82L805.06 347.82L755.64 347.82L755.50 345.16L791.62 345.16Q791.90 338.30 790.50 332.49Q789.10 326.68 786.09 323.18Q783.08 319.68 778.32 319.68L778.32 319.68Q771.88 319.68 766.91 326.12Q761.94 332.56 760.96 346.56L760.96 346.56L761.38 347.12Q761.10 349.22 760.96 351.74Q760.82 354.26 760.82 356.78L760.82 356.78Q760.82 366.30 763.90 373.16Q766.98 380.02 771.95 383.59Q776.92 387.16 782.24 387.16L782.24 387.16Q786.44 387.16 790.22 385.83Q794.00 384.50 797.22 381.42Q800.44 378.34 802.82 373.16L802.82 373.16L805.62 374.28Q804.08 378.90 800.58 383.24Q797.08 387.58 791.76 390.31Q786.44 393.04 779.44 393.04L779.44 393.04Q769.36 393.04 762.15 388.42Q754.94 383.80 751.09 375.61Q747.24 367.42 747.24 356.78L747.24 356.78Q747.24 344.46 751.16 335.57Q755.08 326.68 762.22 321.85Q769.36 317.02 778.88 317.02ZM859.24 317.02L859.24 317.02Q863.02 317.02 865.89 318.56Q868.76 320.10 870.37 322.55Q871.98 325 871.98 328.08L871.98 328.08Q871.98 331.58 869.81 334.24Q867.64 336.90 864.00 336.90L864.00 336.90Q861.06 336.90 858.82 335.01Q856.58 333.12 856.58 329.62L856.58 329.62Q856.58 326.96 858.05 325.07Q859.52 323.18 861.34 322.06L861.34 322.06Q860.36 320.66 858.40 320.66L858.40 320.66Q854.06 320.66 850.42 323.25Q846.78 325.84 844.26 329.90Q841.74 333.96 840.34 338.51Q838.94 343.06 838.94 346.98L838.94 346.98L838.94 376.66Q838.94 383.52 842.93 385.83Q846.92 388.14 853.78 388.14L853.78 388.14L853.78 391.08Q850.56 390.94 844.68 390.73Q838.80 390.52 832.22 390.52L832.22 390.52Q827.46 390.52 822.77 390.73Q818.08 390.94 815.70 391.08L815.70 391.08L815.70 388.14Q821.44 388.14 823.89 386.04Q826.34 383.94 826.34 378.06L826.34 378.06L826.34 334.24Q826.34 327.94 824.10 324.93Q821.86 321.92 815.70 321.92L815.70 321.92L815.70 318.98Q820.18 319.40 824.38 319.40L824.38 319.40Q828.44 319.40 832.15 318.91Q835.86 318.42 838.94 317.44L838.94 317.44L838.94 334.94Q840.48 330.88 843.35 326.75Q846.22 322.62 850.28 319.82Q854.34 317.02 859.24 317.02ZM903.06 317.02L903.06 317.02Q908.66 317.02 912.58 318.84Q916.50 320.66 918.32 322.20L918.32 322.20Q922.94 325.98 923.92 317.16L923.92 317.16L927.14 317.16Q926.86 321.08 926.72 326.47Q926.58 331.86 926.58 340.96L926.58 340.96L923.36 340.96Q922.52 335.78 920.49 330.88Q918.46 325.98 914.54 322.83Q910.62 319.68 904.32 319.68L904.32 319.68Q899.42 319.68 896.13 322.41Q892.84 325.14 892.84 330.46L892.84 330.46Q892.84 334.66 895.36 337.67Q897.88 340.68 901.94 343.27Q906 345.86 910.76 348.94L910.76 348.94Q916.08 352.30 920.42 355.80Q924.76 359.30 927.35 363.50Q929.94 367.70 929.94 373.44L929.94 373.44Q929.94 379.88 926.58 384.22Q923.22 388.56 917.83 390.80Q912.44 393.04 906 393.04L906 393.04Q902.92 393.04 900.19 392.55Q897.46 392.06 894.94 391.08L894.94 391.08Q893.54 390.38 892.07 389.40Q890.60 388.42 889.20 387.30L889.20 387.30Q887.80 386.18 886.68 387.37Q885.56 388.56 885 392.06L885 392.06L881.78 392.06Q882.06 387.58 882.20 381.14Q882.34 374.70 882.34 364.06L882.34 364.06L885.56 364.06Q886.54 371.90 888.36 377.78Q890.18 383.66 894.10 386.95Q898.02 390.24 905.02 390.24L905.02 390.24Q907.82 390.24 910.69 388.98Q913.56 387.72 915.52 384.78Q917.48 381.84 917.48 376.94L917.48 376.94Q917.48 370.78 913 366.86Q908.52 362.94 901.66 358.60L901.66 358.60Q896.62 355.38 892.21 352.16Q887.80 348.94 885.07 344.88Q882.34 340.82 882.34 335.08L882.34 335.08Q882.34 328.78 885.21 324.79Q888.08 320.80 892.84 318.91Q897.60 317.02 903.06 317.02Z" fill="#0F172A"/><text x="80" y="370" font-family="Inter, sans-serif" font-weight="400" font-size="40" fill="#0F172A" fill-opacity="0.7" letter-spacing="0.5">Executive Search for Private Equity</text><text x="80" y="555" font-family="Inter, sans-serif" font-weight="600" font-size="22" fill="#CC9A14" letter-spacing="6">RETHINKING HOW PRIVATE EQUITY FIRMS INVEST IN EXECUTIVES</text></svg>
