<svg xmlns="http://www.w3.org/2000/svg" viewBox="0 0 1200 630" role="img"><rect width="1200" height="630" fill="#FFFFFF"/><rect x="0" y="0" width="8" height="630" fill="#CC9A14"/><path d="M124.10 240L124.10 240L124.10 242.80Q119.34 242.94 116.89 243.85Q114.44 244.76 113.60 247.21Q112.76 249.66 112.76 254.84L112.76 254.84L112.76 325.96Q112.76 330.30 113.39 332.40Q114.02 334.50 115.91 335.20Q117.80 335.90 121.58 335.90L121.58 335.90L128.44 335.90Q133.20 335.90 137.40 333.66Q141.60 331.42 144.96 327.29Q148.32 323.16 150.56 317.42Q152.80 311.68 153.92 304.68L153.92 304.68L157.14 304.68Q156.72 309.44 156.72 317L156.72 317Q156.72 320.22 156.86 326.38Q157 332.54 157.70 339.12L157.70 339.12Q150.56 338.84 141.60 338.77Q132.64 338.70 125.64 338.70L125.64 338.70L116.68 338.70Q111.22 338.70 104.92 338.77Q98.62 338.84 92.18 338.91Q85.74 338.98 80 339.12L80 339.12L80 336.32Q84.48 336.04 86.72 335.20Q88.96 334.36 89.73 331.84Q90.50 329.32 90.50 324.28L90.50 324.28L90.50 254.84Q90.50 249.66 89.73 247.21Q88.96 244.76 86.65 243.85Q84.34 242.94 80 242.80L80 242.80L80 240Q83.50 240.14 89.45 240.28Q95.40 240.42 102.12 240.42L102.12 240.42Q108.28 240.42 114.23 240.28Q120.18 240.14 124.10 240Z" fill="#0F172A"/><path d="M195.43 252.18L195.43 252.18Q199.53 252.18 202.05 252.76Q204.56 253.34 206.35 254.39L206.35 254.39Q208.03 255.12 209.45 256.28Q210.87 257.43 211.81 259.11Q212.75 260.79 212.75 262.89L212.75 262.89Q212.75 266.04 210.34 267.93Q207.93 269.82 204.67 269.82L204.67 269.82Q201.52 269.82 199.26 268.25Q197.00 266.67 197.00 263.31L197.00 263.31Q197.00 260.69 198.90 258.53Q200.78 256.38 203.72 255.86L203.72 255.86Q202.99 255.02 201.05 254.49Q199.10 253.97 196.80 253.97L196.80 253.97Q191.34 253.97 187.50 257.38Q183.67 260.79 183.67 267.72L183.67 267.72Q183.67 270.13 184.51 272.87Q185.35 275.60 187.76 278.43L187.76 278.43Q189.55 278.01 191.07 277.80Q192.59 277.59 193.65 277.59L193.65 277.59Q195.53 277.59 196.53 278.38Q197.53 279.17 197.53 280.43L197.53 280.43Q197.53 281.37 196.69 282Q195.85 282.63 194.59 282.63L194.59 282.63Q192.81 282.63 190.91 281.63Q189.03 280.63 187.87 279.90L187.87 279.90Q182.94 282.42 179.84 286.36Q176.74 290.30 176.74 296.91L176.74 296.91Q176.74 303.84 180.52 308.30Q184.30 312.77 191.18 315.02Q198.06 317.28 207.40 317.28L207.40 317.28Q212.65 317.28 217.80 316.13Q222.94 314.97 227.09 312.66Q231.24 310.35 233.75 306.94Q236.27 303.53 236.27 299.01L236.27 299.01Q236.27 297.33 235.80 294.76Q235.33 292.19 233.55 289.56L233.55 289.56Q231.87 287.25 228.30 285.68L228.30 285.68Q226.19 286.31 223.88 286.94L223.88 286.94Q221.57 287.56 219.42 288.20Q217.27 288.83 215.69 289.25L215.69 289.25Q207.50 291.03 203.09 293.29Q198.69 295.55 198.69 299.43L198.69 299.43Q198.69 302.06 200.42 303.94Q202.15 305.84 204.78 306.88Q207.40 307.94 210.03 307.94L210.03 307.94Q210.76 307.94 211.60 307.78Q212.44 307.62 213.18 307.36Q213.91 307.10 214.22 306.88L214.22 306.88Q211.60 306.05 210.29 304.21Q208.97 302.37 208.97 299.96L208.97 299.96Q208.97 296.60 211.39 294.81Q213.81 293.03 217.38 293.03L217.38 293.03Q221.16 293.03 223.31 295.02Q225.46 297.02 225.46 300.17L225.46 300.17Q225.46 303.42 223.47 305.57Q221.47 307.73 218.11 308.72Q214.75 309.72 210.55 309.72L210.55 309.72Q206.45 309.72 202.83 308.25Q199.21 306.78 197.06 303.79Q194.91 300.80 194.91 296.28L194.91 296.28Q194.91 290.72 197.74 286.99Q200.57 283.26 205.88 280.79Q211.18 278.33 218.43 276.96L218.43 276.96Q220.63 276.44 223.31 275.75Q225.99 275.07 228.82 274.34Q231.66 273.60 234.07 272.76L234.07 272.76Q241.63 270.87 245.78 268.56Q249.93 266.25 249.93 262.37L249.93 262.37Q249.93 259.53 248.19 257.38Q246.46 255.23 243.73 254.02Q241 252.81 238.06 252.81L238.06 252.81Q237.12 252.81 236.33 252.92Q235.54 253.02 235.01 253.34L235.01 253.34Q237.64 254.28 238.90 256.17Q240.16 258.06 240.16 259.95L240.16 259.95Q240.16 263.21 237.75 264.94Q235.33 266.67 231.76 266.67Q228.19 266.67 225.88 264.83Q223.57 263.00 223.57 259.74L223.57 259.74Q223.57 256.91 225.20 254.96Q226.82 253.02 229.76 251.97Q232.70 250.92 236.69 250.92L236.69 250.92Q244.15 250.92 248.77 254.81Q253.39 258.69 253.39 265.73L253.39 265.73Q253.39 271.08 250.82 274.75Q248.25 278.43 243.47 280.74Q238.69 283.05 232.07 284.42L232.07 284.42Q231.24 284.73 230.19 285.05L230.19 285.05Q234.49 287.04 237.01 291.13L237.01 291.13Q239.95 296.07 239.95 302.48L239.95 302.48Q239.95 309.83 235.44 315.65Q230.92 321.48 222.78 324.84Q214.64 328.20 203.72 328.20L203.72 328.20Q195.01 328.20 187.92 326.42Q180.84 324.63 175.74 321.22Q170.65 317.81 167.87 312.98Q165.09 308.15 165.09 302.06L165.09 302.06Q165.09 296.18 167.55 292.03Q170.02 287.88 173.59 285.20Q177.16 282.53 180.73 281.06Q184.30 279.59 186.40 279.06L186.40 279.06Q183.15 277.70 180.47 275.86Q177.79 274.02 176.16 271.50Q174.53 268.98 174.53 265.83L174.53 265.83Q174.53 262.47 176.32 259.90Q178.10 257.33 181.10 255.65Q184.09 253.97 187.82 253.07Q191.55 252.18 195.43 252.18Z" fill="#CC9A14"/><path d="M334.73 240L334.73 240Q334.17 246.16 333.96 251.90Q333.75 257.64 333.75 260.72L333.75 260.72Q333.75 263.52 333.89 266.04Q334.03 268.56 334.17 270.24L334.17 270.24L330.95 270.24Q329.55 260.02 326.61 254.07Q323.67 248.12 318.98 245.67Q314.29 243.22 307.99 243.22L307.99 243.22L302.25 243.22Q298.19 243.22 296.09 243.92Q293.99 244.62 293.29 246.72Q292.59 248.82 292.59 253.16L292.59 253.16L292.59 287.88L297.07 287.88Q301.27 287.88 304.21 286.13Q307.15 284.38 309.04 281.51Q310.93 278.64 312.05 275.42Q313.17 272.20 313.73 269.40L313.73 269.40L316.95 269.40Q316.39 277.38 316.46 281.58Q316.53 285.78 316.53 289.28Q316.53 292.78 316.67 296.98Q316.81 301.18 317.37 309.16L317.37 309.16L314.15 309.16Q313.45 304.26 311.56 300.06Q309.67 295.86 306.17 293.27Q302.67 290.68 297.07 290.68L297.07 290.68L292.59 290.68L292.59 325.96Q292.59 330.30 293.29 332.40Q293.99 334.50 296.09 335.20Q298.19 335.90 302.25 335.90L302.25 335.90L309.11 335.90Q315.41 335.90 320.24 333.17Q325.07 330.44 328.50 323.86Q331.93 317.28 333.75 306.08L333.75 306.08L336.97 306.08Q336.55 310.56 336.55 317.84L336.55 317.84Q336.55 321.06 336.69 326.94Q336.83 332.82 337.53 339.12L337.53 339.12Q330.39 338.84 321.43 338.77Q312.47 338.70 305.47 338.70L305.47 338.70L296.51 338.70Q291.05 338.70 284.75 338.77Q278.45 338.84 272.01 338.91Q265.57 338.98 259.83 339.12L259.83 339.12L259.83 336.32Q264.31 336.04 266.55 335.20Q268.79 334.36 269.56 331.84Q270.33 329.32 270.33 324.28L270.33 324.28L270.33 254.84Q270.33 249.66 269.56 247.21Q268.79 244.76 266.48 243.85Q264.17 242.94 259.83 242.80L259.83 242.80L259.83 240Q265.57 240.14 272.01 240.21Q278.45 240.28 284.75 240.35Q291.05 240.42 296.51 240.42L296.51 240.42L305.47 240.42Q311.91 240.42 320.10 240.35Q328.29 240.28 334.73 240ZM381.21 242.80L381.21 240Q384.71 240.14 390.66 240.28Q396.61 240.42 402.49 240.42L402.49 240.42Q409.21 240.42 415.51 240.28Q421.81 240.14 424.47 240.14L424.47 240.14Q443.93 240.14 453.59 247.84Q463.25 255.54 463.25 267.72L463.25 267.72Q463.25 272.76 461.29 278.29Q459.33 283.82 454.64 288.51Q449.95 293.20 441.83 296.14Q433.71 299.08 421.39 299.08L421.39 299.08L413.97 299.08L413.97 323.44Q413.97 328.90 415.09 331.56Q416.21 334.22 419.43 335.06Q422.65 335.90 428.95 336.04L428.95 336.04L428.95 339.12Q424.61 338.98 417.75 338.84Q410.89 338.70 403.33 338.70L403.33 338.70Q397.31 338.70 391.57 338.84Q385.83 338.98 381.21 339.12L381.21 339.12L381.21 336.32Q385.69 336.04 387.93 335.20Q390.17 334.36 390.94 331.84Q391.71 329.32 391.71 324.28L391.71 324.28L391.71 254.84Q391.71 249.66 390.94 247.21Q390.17 244.76 387.86 243.85Q385.55 242.94 381.21 242.80L381.21 242.80ZM413.97 254.84L413.97 296.28L419.99 296.28Q428.25 296.28 432.52 292.50Q436.79 288.72 438.40 282.56Q440.01 276.40 440.01 269.26L440.01 269.26Q440.01 255.96 436.09 249.38Q432.17 242.80 422.65 242.80L422.65 242.80Q417.19 242.80 415.58 245.18Q413.97 247.56 413.97 254.84L413.97 254.84ZM488.87 340.10L488.87 340.10Q482.57 340.10 478.37 337.72Q474.17 335.34 472.21 331.35Q470.25 327.36 470.25 322.60L470.25 322.60Q470.25 316.58 472.98 312.80Q475.71 309.02 480.05 306.64Q484.39 304.26 489.22 302.72Q494.05 301.18 498.46 299.71Q502.87 298.24 505.60 296.21Q508.33 294.18 508.33 290.96L508.33 290.96L508.33 280.04Q508.33 276.40 507.14 273.53Q505.95 270.66 503.50 269.12Q501.05 267.58 497.13 267.58L497.13 267.58Q494.33 267.58 491.53 268.35Q488.73 269.12 486.91 270.94L486.91 270.94Q490.83 272.34 493 275.21Q495.17 278.08 495.17 281.72L495.17 281.72Q495.17 286.48 491.88 289.28Q488.59 292.08 484.11 292.08L484.11 292.08Q479.07 292.08 476.48 288.93Q473.89 285.78 473.89 281.30L473.89 281.30Q473.89 277.24 475.92 274.58Q477.95 271.92 481.59 269.54L481.59 269.54Q485.51 267.30 491.04 266.04Q496.57 264.78 503.01 264.78L503.01 264.78Q509.45 264.78 514.63 266.11Q519.81 267.44 523.31 270.94L523.31 270.94Q526.53 274.16 527.51 278.85Q528.49 283.54 528.49 290.68L528.49 290.68L528.49 328.76Q528.49 332.26 529.19 333.59Q529.89 334.92 531.57 334.92L531.57 334.92Q532.83 334.92 534.02 334.22Q535.21 333.52 536.61 332.54L536.61 332.54L538.01 334.92Q535.07 337.44 531.22 338.77Q527.37 340.10 522.61 340.10L522.61 340.10Q517.43 340.10 514.35 338.63Q511.27 337.16 509.94 334.64Q508.61 332.12 508.61 328.76L508.61 328.76Q505.25 334.08 500.49 337.09Q495.73 340.10 488.87 340.10ZM498.81 331.14L498.81 331.14Q501.61 331.14 503.92 329.81Q506.23 328.48 508.33 325.40L508.33 325.40L508.33 296.70Q507.07 298.80 504.83 300.48Q502.59 302.16 500.07 303.91Q497.55 305.66 495.24 307.76Q492.93 309.86 491.53 312.94Q490.13 316.02 490.13 320.36L490.13 320.36Q490.13 325.82 492.51 328.48Q494.89 331.14 498.81 331.14ZM590.23 264.78L590.23 264.78Q594.71 264.78 597.51 266.67Q600.31 268.56 601.64 271.50Q602.97 274.44 602.97 277.66L602.97 277.66Q602.97 282.84 599.96 286.13Q596.95 289.42 592.05 289.42L592.05 289.42Q587.15 289.42 584.42 286.97Q581.69 284.52 581.69 280.46L581.69 280.46Q581.69 276.54 583.44 273.95Q585.19 271.36 587.85 269.54L587.85 269.54Q585.89 268.98 583.93 269.68L583.93 269.68Q581.27 270.10 578.89 271.85Q576.51 273.60 574.83 276.19Q573.15 278.78 572.17 281.79Q571.19 284.80 571.19 287.60L571.19 287.60L571.19 324.70Q571.19 331.42 574.48 333.80Q577.77 336.18 584.35 336.18L584.35 336.18L584.35 339.12Q581.13 338.98 574.97 338.77Q568.81 338.56 562.09 338.56L562.09 338.56Q556.49 338.56 550.75 338.77Q545.01 338.98 542.07 339.12L542.07 339.12L542.07 336.18Q546.97 336.18 549 334.08Q551.03 331.98 551.03 326.10L551.03 326.10L551.03 282Q551.03 275.70 549.14 272.69Q547.25 269.68 542.07 269.68L542.07 269.68L542.07 266.74Q546.55 267.16 550.75 267.16L550.75 267.16Q556.63 267.16 561.74 266.67Q566.85 266.18 571.19 265.20L571.19 265.20L571.19 278.22Q572.87 274.44 575.67 271.36Q578.47 268.28 582.11 266.53Q585.75 264.78 590.23 264.78ZM635.87 243.78L635.87 243.78L635.87 266.74L652.39 266.74L652.39 269.54L635.87 269.54L635.87 326.10Q635.87 330.30 637.41 332.05Q638.95 333.80 642.03 333.80L642.03 333.80Q644.55 333.80 647.07 331.91Q649.59 330.02 651.55 325.40L651.55 325.40L653.93 326.66Q651.69 332.96 647.14 337.02Q642.59 341.08 634.75 341.08L634.75 341.08Q630.13 341.08 626.63 339.89Q623.13 338.70 620.75 336.32L620.75 336.32Q617.67 333.24 616.69 328.69Q615.71 324.14 615.71 316.86L615.71 316.86L615.71 269.54L603.95 269.54L603.95 266.74L615.71 266.74L615.71 248.26Q621.59 248.26 626.56 247.21Q631.53 246.16 635.87 243.78ZM708.81 264.78L708.81 264.78Q714.69 264.78 718.40 266.25Q722.11 267.72 724.21 270.24L724.21 270.24Q726.45 272.90 727.50 277.10Q728.55 281.30 728.55 288.44L728.55 288.44L728.55 326.10Q728.55 331.98 730.58 334.08Q732.61 336.18 737.51 336.18L737.51 336.18L737.51 339.12Q734.85 338.98 729.53 338.77Q724.21 338.56 719.03 338.56L719.03 338.56Q713.71 338.56 708.60 338.77Q703.49 338.98 700.83 339.12L700.83 339.12L700.83 336.18Q705.03 336.18 706.71 334.08Q708.39 331.98 708.39 326.10L708.39 326.10L708.39 282.56Q708.39 279.06 707.69 276.47Q706.99 273.88 705.17 272.41Q703.35 270.94 699.71 270.94L699.71 270.94Q695.93 270.94 692.78 273.04Q689.63 275.14 687.74 278.85Q685.85 282.56 685.85 287.18L685.85 287.18L685.85 326.10Q685.85 331.98 687.60 334.08Q689.35 336.18 693.41 336.18L693.41 336.18L693.41 339.12Q690.89 338.98 686.06 338.77Q681.23 338.56 676.05 338.56L676.05 338.56Q670.73 338.56 665.13 338.77Q659.53 338.98 656.73 339.12L656.73 339.12L656.73 336.18Q661.63 336.18 663.66 334.08Q665.69 331.98 665.69 326.10L665.69 326.10L665.69 282Q665.69 275.70 663.80 272.69Q661.91 269.68 656.73 269.68L656.73 269.68L656.73 266.74Q661.21 267.16 665.41 267.16L665.41 267.16Q671.29 267.16 676.40 266.67Q681.51 266.18 685.85 265.20L685.85 265.20L685.85 277.80Q689.35 270.66 695.37 267.72Q701.39 264.78 708.81 264.78ZM778.81 264.78L778.81 264.78Q791.13 264.78 798.13 272.06Q805.13 279.34 805.13 295.86L805.13 295.86L765.93 295.86Q765.79 297.26 765.79 298.66L765.79 298.66Q765.65 300.48 765.65 302.44L765.65 302.44Q765.65 312.10 768.38 318.12Q771.11 324.14 775.31 326.87Q779.51 329.60 783.85 329.60L783.85 329.60Q786.79 329.60 789.94 328.69Q793.09 327.78 796.31 325.33Q799.53 322.88 802.33 318.40L802.33 318.40L804.85 319.24Q803.17 324.56 799.53 329.60Q795.89 334.64 790.29 337.86Q784.69 341.08 776.85 341.08L776.85 341.08Q767.33 341.08 760.05 337.02Q752.77 332.96 748.64 324.70Q744.51 316.44 744.51 303.70L744.51 303.70Q744.51 290.68 748.92 282Q753.33 273.32 761.10 269.05Q768.87 264.78 778.81 264.78ZM765.51 293.20L765.51 293.20L787.49 293.20Q787.63 286.34 786.65 280.53Q785.67 274.72 783.57 271.22Q781.47 267.72 777.97 267.72L777.97 267.72Q773.07 267.72 769.71 273.88L769.71 273.88Q766.35 279.76 765.51 293.20ZM861.41 264.78L861.41 264.78Q865.89 264.78 868.69 266.67Q871.49 268.56 872.82 271.50Q874.15 274.44 874.15 277.66L874.15 277.66Q874.15 282.84 871.14 286.13Q868.13 289.42 863.23 289.42L863.23 289.42Q858.33 289.42 855.60 286.97Q852.87 284.52 852.87 280.46L852.87 280.46Q852.87 276.54 854.62 273.95Q856.37 271.36 859.03 269.54L859.03 269.54Q857.07 268.98 855.11 269.68L855.11 269.68Q852.45 270.10 850.07 271.85Q847.69 273.60 846.01 276.19Q844.33 278.78 843.35 281.79Q842.37 284.80 842.37 287.60L842.37 287.60L842.37 324.70Q842.37 331.42 845.66 333.80Q848.95 336.18 855.53 336.18L855.53 336.18L855.53 339.12Q852.31 338.98 846.15 338.77Q839.99 338.56 833.27 338.56L833.27 338.56Q827.67 338.56 821.93 338.77Q816.19 338.98 813.25 339.12L813.25 339.12L813.25 336.18Q818.15 336.18 820.18 334.08Q822.21 331.98 822.21 326.10L822.21 326.10L822.21 282Q822.21 275.70 820.32 272.69Q818.43 269.68 813.25 269.68L813.25 269.68L813.25 266.74Q817.73 267.16 821.93 267.16L821.93 267.16Q827.81 267.16 832.92 266.67Q838.03 266.18 842.37 265.20L842.37 265.20L842.37 278.22Q844.05 274.44 846.85 271.36Q849.65 268.28 853.29 266.53Q856.93 264.78 861.41 264.78ZM906.35 264.78L906.35 264.78Q912.23 264.78 916.64 266.25Q921.05 267.72 923.01 269.12L923.01 269.12Q924.97 270.38 926.23 269.96L926.23 269.96Q928.19 269.26 928.89 264.92L928.89 264.92L931.83 264.92Q931.55 268.84 931.41 274.51Q931.27 280.18 931.27 289.56L931.27 289.56L928.33 289.56Q927.63 284.38 925.67 279.34Q923.71 274.30 920.00 271.08Q916.29 267.86 910.41 267.86L910.41 267.86Q906.35 267.86 903.55 270.17Q900.75 272.48 900.75 276.82L900.75 276.82Q900.75 281.02 903.27 284.17Q905.79 287.32 909.78 290.19Q913.77 293.06 918.11 296.28L918.11 296.28Q922.73 299.78 926.51 303.21Q930.29 306.64 932.53 310.70Q934.77 314.76 934.77 320.36L934.77 320.36Q934.77 326.66 931.13 331.35Q927.49 336.04 921.54 338.56Q915.59 341.08 908.31 341.08L908.31 341.08Q904.11 341.08 900.82 340.24Q897.53 339.40 895.15 338.14L895.15 338.14Q893.33 337.30 891.72 336.53Q890.11 335.76 888.71 335.20L888.71 335.20Q887.31 334.78 886.26 336.18Q885.21 337.58 884.65 340.10L884.65 340.10L881.71 340.10Q881.99 335.62 882.13 329.18Q882.27 322.74 882.27 312.10L882.27 312.10L885.21 312.10Q886.05 319.66 888.29 325.47Q890.53 331.28 894.38 334.57Q898.23 337.86 904.11 337.86L904.11 337.86Q906.49 337.86 908.73 336.88Q910.97 335.90 912.44 333.66Q913.91 331.42 913.91 327.92L913.91 327.92Q913.91 321.76 909.92 317.70Q905.93 313.64 899.77 308.88L899.77 308.88Q895.29 305.24 891.30 301.67Q887.31 298.10 884.79 293.83Q882.27 289.56 882.27 284.10L882.27 284.10Q882.27 277.80 885.63 273.46Q888.99 269.12 894.52 266.95Q900.05 264.78 906.35 264.78Z" fill="#0F172A"/><text x="80" y="400" font-family="Inter, sans-serif" font-weight="400" font-size="40" fill="#0F172A" fill-opacity="0.7" letter-spacing="0.5">Executive Search for Private Equity</text><text x="80" y="555" font-family="Inter, sans-serif" font-weight="600" font-size="22" fill="#CC9A14" letter-spacing="6">RETHINKING HOW PRIVATE EQUITY FIRMS INVEST IN EXECUTIVES</text></svg>
