<svg xmlns="http://www.w3.org/2000/svg" viewBox="0 0 1200 630" role="img"><rect width="1200" height="630" fill="#FFFFFF"/><rect x="0" y="0" width="8" height="630" fill="#CC9A14"/><path d="M115.70 290L115.70 290L115.70 292.80Q110.94 292.94 108.49 293.85Q106.04 294.76 105.20 297.21Q104.36 299.66 104.36 304.84L104.36 304.84L104.36 374.28Q104.36 379.32 105.20 381.84Q106.04 384.36 108.49 385.13Q110.94 385.90 115.70 385.90L115.70 385.90L125.92 385.90Q132.50 385.90 136.63 384.50Q140.76 383.10 143.21 380.09Q145.66 377.08 146.92 372.04Q148.18 367 148.88 359.72L148.88 359.72L152.10 359.72Q151.68 364.06 151.68 371.20L151.68 371.20Q151.68 373.86 151.89 378.83Q152.10 383.80 152.66 389.12L152.66 389.12Q145.52 388.84 136.56 388.77Q127.60 388.70 120.60 388.70L120.60 388.70Q117.52 388.70 112.69 388.70Q107.86 388.70 102.26 388.77Q96.66 388.84 90.92 388.91Q85.18 388.98 80 389.12L80 389.12L80 386.32Q84.76 386.04 87.21 385.20Q89.66 384.36 90.50 381.84Q91.34 379.32 91.34 374.28L91.34 374.28L91.34 304.84Q91.34 299.66 90.50 297.21Q89.66 294.76 87.21 293.85Q84.76 292.94 80 292.80L80 292.80L80 290Q82.94 290.14 87.70 290.28Q92.46 290.42 97.92 290.42L97.92 290.42Q102.82 290.42 107.65 290.28Q112.48 290.14 115.70 290Z" fill="#0F172A"/><path d="M188.68 303.02L188.68 303.02Q192.66 303.02 195.29 303.91Q197.91 304.81 199.59 306.17L199.59 306.17Q200.96 307.22 201.80 308.48Q202.64 309.74 203.06 311Q203.48 312.26 203.48 313.42L203.48 313.42Q203.48 316.04 201.64 317.51Q199.81 318.98 197.60 318.98L197.60 318.98Q195.50 318.98 193.82 317.62Q192.14 316.25 192.14 313.73L192.14 313.73Q192.14 311.42 193.72 309.79Q195.29 308.17 197.70 307.96L197.70 307.96Q197.28 306.59 195.13 305.59Q192.98 304.60 189.72 304.60L189.72 304.60Q184.37 304.60 180.96 307.80Q177.54 311 177.54 317.09L177.54 317.09Q177.54 320.03 178.65 323.08Q179.75 326.12 182.90 329.06L182.90 329.06Q184.69 328.75 186.57 328.59Q188.47 328.43 189.41 328.43L189.41 328.43Q191.30 328.43 192.45 329.06Q193.61 329.69 193.61 330.85L193.61 330.85Q193.61 331.79 192.82 332.31Q192.03 332.84 190.67 332.84L190.67 332.84Q188.68 332.84 186.47 331.95Q184.26 331.06 183.00 330.53L183.00 330.53Q176.91 332.31 173.13 336.36Q169.35 340.40 169.35 347.75L169.35 347.75Q169.35 355.00 173.13 360.04Q176.91 365.08 183.27 367.75Q189.62 370.43 197.50 370.43L197.50 370.43Q203.06 370.43 208.05 369.12Q213.03 367.81 216.87 365.29Q220.70 362.77 222.91 359.25Q225.11 355.73 225.11 351.22L225.11 351.22Q225.11 349.22 224.27 346.12Q223.43 343.03 220.81 340.03Q218.18 337.04 212.72 335.36L212.72 335.36L213.98 334.31Q221.64 336.62 224.90 341.71Q228.16 346.81 228.16 353.11L228.16 353.11Q228.16 359.41 224.38 365.18Q220.59 370.96 213.45 374.58Q206.31 378.20 196.13 378.20L196.13 378.20Q189.31 378.20 183.16 376.42Q177.02 374.63 172.29 371.22Q167.57 367.81 164.84 362.98Q162.11 358.15 162.11 352.06L162.11 352.06Q162.11 346.38 164.31 342.34Q166.52 338.30 169.78 335.68Q173.03 333.05 176.28 331.63Q179.54 330.22 181.53 329.69L181.53 329.69Q178.07 328.12 175.71 325.96Q173.34 323.81 172.14 321.24Q170.93 318.67 170.93 316.15L170.93 316.15Q170.93 313.63 172.09 311.26Q173.24 308.90 175.44 307.01Q177.65 305.12 180.96 304.07Q184.26 303.02 188.68 303.02ZM226.89 300.92L226.89 300.92Q233.41 300.92 237.81 304.65Q242.22 308.38 242.22 315.10L242.22 315.10Q242.22 318.67 240.91 321.45Q239.60 324.23 237.34 326.33Q235.08 328.43 232.25 329.80L232.25 329.80Q229.83 330.95 225.90 332.31Q221.96 333.68 217.50 335.05Q213.03 336.41 208.99 337.72Q204.95 339.04 202.43 339.98L202.43 339.98Q198.54 341.45 195.87 343.60Q193.19 345.75 193.19 349.12L193.19 349.12Q193.19 351.85 194.76 353.74Q196.34 355.63 198.60 356.57Q200.85 357.52 202.85 357.52L202.85 357.52Q203.79 357.52 205.21 357.25Q206.63 356.99 207.78 356.47Q208.94 355.94 209.15 355.21L209.15 355.21Q207.47 354.89 205.84 353.68Q204.22 352.48 204.22 349.85L204.22 349.85Q204.22 347.33 205.89 345.86Q207.57 344.39 209.99 344.39L209.99 344.39Q212.51 344.39 214.03 345.97Q215.56 347.54 215.56 350.06L215.56 350.06Q215.56 353 213.61 355.05Q211.67 357.10 208.78 358.09Q205.89 359.09 203.06 359.09L203.06 359.09Q200.12 359.09 197.07 357.83Q194.03 356.57 192.03 353.89Q190.04 351.22 190.04 346.81L190.04 346.81Q190.04 343.13 191.67 340.30Q193.29 337.46 196.55 335.25Q199.81 333.05 204.53 331.48L204.53 331.48Q207.68 330.43 212.19 329.17Q216.71 327.91 221.49 326.44Q226.26 324.97 230.15 323.18L230.15 323.18Q235.40 320.77 237.29 318.25Q239.18 315.73 239.18 313.10L239.18 313.10Q239.18 310.06 237.50 307.69Q235.82 305.33 233.04 303.91Q230.25 302.50 227 302.50L227 302.50Q225.74 302.50 224.90 302.71Q224.06 302.92 223.85 303.44L223.85 303.44Q225.32 304.18 226.06 305.54Q226.79 306.91 226.79 308.27L226.79 308.27Q226.79 310.48 225.06 311.95Q223.32 313.42 220.91 313.42L220.91 313.42Q218.91 313.42 217.13 312.10Q215.34 310.79 215.34 308.17L215.34 308.17Q215.34 305.44 217.18 303.86Q219.02 302.29 221.70 301.60Q224.38 300.92 226.89 300.92Z" fill="#CC9A14"/><path d="M320.06 290L320.06 290Q319.50 294.90 319.30 299.52Q319.08 304.14 319.08 306.52L319.08 306.52Q319.08 309.04 319.23 311.35Q319.37 313.66 319.50 315.20L319.50 315.20L316.28 315.20Q315.44 306.94 313.90 302.11Q312.37 297.28 308.65 295.25Q304.94 293.22 297.52 293.22L297.52 293.22L285.90 293.22Q281.14 293.22 278.69 293.99Q276.25 294.76 275.40 297.21Q274.56 299.66 274.56 304.84L274.56 304.84L274.56 374.28Q274.56 379.32 275.40 381.84Q276.25 384.36 278.69 385.13Q281.14 385.90 285.90 385.90L285.90 385.90L296.13 385.90Q304.94 385.90 309.50 383.52Q314.05 381.14 316.07 375.75Q318.11 370.36 319.08 361.12L319.08 361.12L322.31 361.12Q321.88 364.90 321.88 371.20L321.88 371.20Q321.88 373.86 322.10 378.83Q322.31 383.80 322.87 389.12L322.87 389.12Q315.73 388.84 306.76 388.77Q297.81 388.70 290.81 388.70L290.81 388.70Q287.73 388.70 282.89 388.70Q278.06 388.70 272.46 388.77Q266.87 388.84 261.13 388.91Q255.38 388.98 250.20 389.12L250.20 389.12L250.20 386.32Q254.96 386.04 257.41 385.20Q259.87 384.36 260.70 381.84Q261.55 379.32 261.55 374.28L261.55 374.28L261.55 304.84Q261.55 299.66 260.70 297.21Q259.87 294.76 257.41 293.85Q254.96 292.94 250.20 292.80L250.20 292.80L250.20 290Q255.38 290.14 261.13 290.21Q266.87 290.28 272.46 290.35Q278.06 290.42 282.89 290.42Q287.73 290.42 290.81 290.42L290.81 290.42Q297.25 290.42 305.44 290.35Q313.63 290.28 320.06 290ZM270.37 337.88L295.99 337.88Q295.99 337.88 295.99 339.28Q295.99 340.68 295.99 340.68L295.99 340.68L270.37 340.68Q270.37 340.68 270.37 339.28Q270.37 337.88 270.37 337.88L270.37 337.88ZM296.82 319.40L300.05 319.40Q299.49 327.38 299.56 331.58Q299.63 335.78 299.63 339.28L299.63 339.28Q299.63 342.78 299.76 346.98Q299.90 351.18 300.46 359.16L300.46 359.16L297.25 359.16Q296.69 354.68 295.91 350.41Q295.14 346.14 292.56 343.41Q289.96 340.68 283.81 340.68L283.81 340.68L283.81 337.88Q288.43 337.88 290.88 335.99Q293.32 334.10 294.44 331.16Q295.56 328.22 295.99 325.07Q296.40 321.92 296.82 319.40L296.82 319.40ZM370.32 292.80L370.32 290Q373.26 290.14 378.02 290.28Q382.78 290.42 387.40 290.42L387.40 290.42Q393.99 290.42 400.00 290.28Q406.02 290.14 408.55 290.14L408.55 290.14Q425.49 290.14 433.88 297.84Q442.28 305.54 442.28 317.72L442.28 317.72Q442.28 322.76 440.61 328.29Q438.93 333.82 434.80 338.51Q430.67 343.20 423.52 346.14Q416.38 349.08 405.46 349.08L405.46 349.08L392.02 349.08L392.02 346.28L404.06 346.28Q414.00 346.28 419.25 342.50Q424.50 338.72 426.39 332.56Q428.28 326.40 428.28 319.26L428.28 319.26Q428.28 305.96 423.03 299.38Q417.78 292.80 405.05 292.80L405.05 292.80Q398.61 292.80 396.64 295.18Q394.69 297.56 394.69 304.84L394.69 304.84L394.69 374.28Q394.69 379.32 395.74 381.84Q396.78 384.36 399.87 385.20Q402.94 386.04 408.82 386.32L408.82 386.32L408.82 389.12Q405.19 388.84 399.58 388.77Q393.99 388.70 388.25 388.70L388.25 388.70Q382.78 388.70 378.02 388.77Q373.26 388.84 370.32 389.12L370.32 389.12L370.32 386.32Q375.08 386.04 377.53 385.20Q379.99 384.36 380.82 381.84Q381.67 379.32 381.67 374.28L381.67 374.28L381.67 304.84Q381.67 299.66 380.82 297.21Q379.99 294.76 377.53 293.85Q375.08 292.94 370.32 292.80L370.32 292.80ZM470.29 390.10L470.29 390.10Q464.55 390.10 460.35 387.93Q456.15 385.76 453.98 381.84Q451.81 377.92 451.81 372.74L451.81 372.74Q451.81 366.58 454.68 362.66Q457.55 358.74 462.03 356.36Q466.51 353.98 471.48 352.37Q476.45 350.76 480.93 349.29Q485.41 347.82 488.28 345.86Q491.15 343.90 491.15 340.68L491.15 340.68L491.15 332Q491.15 326.12 489.40 323.04Q487.65 319.96 484.71 318.91Q481.77 317.86 478.13 317.86L478.13 317.86Q474.63 317.86 470.64 318.84Q466.65 319.82 464.27 322.90L464.27 322.90Q466.93 323.46 468.89 325.70Q470.85 327.94 470.85 331.44L470.85 331.44Q470.85 334.94 468.61 336.97Q466.37 339 462.87 339L462.87 339Q458.81 339 456.92 336.41Q455.03 333.82 455.03 330.60L455.03 330.60Q455.03 326.96 456.85 324.72Q458.67 322.48 461.47 320.52L461.47 320.52Q464.69 318.28 469.80 316.67Q474.91 315.06 481.35 315.06L481.35 315.06Q487.09 315.06 491.15 316.39Q495.21 317.72 497.87 320.24L497.87 320.24Q501.51 323.60 502.63 328.43Q503.75 333.26 503.75 339.98L503.75 339.98L503.75 378.90Q503.75 382.40 504.80 383.94Q505.85 385.48 508.09 385.48L508.09 385.48Q509.63 385.48 511.03 384.78Q512.43 384.08 514.38 382.54L514.38 382.54L515.93 384.92Q512.99 387.16 510.33 388.63Q507.67 390.10 503.19 390.10L503.19 390.10Q499.13 390.10 496.47 388.70Q493.81 387.30 492.48 384.57Q491.15 381.84 491.15 377.64L491.15 377.64Q487.37 383.94 482.12 387.02Q476.87 390.10 470.29 390.10ZM475.33 384.50L475.33 384.50Q479.95 384.50 483.94 381.84Q487.93 379.18 491.15 373.86L491.15 373.86L491.15 346.42Q489.47 348.80 486.25 350.41Q483.03 352.02 479.25 353.63Q475.47 355.24 472.04 357.41Q468.61 359.58 466.37 363.08Q464.13 366.58 464.13 372.18L464.13 372.18Q464.13 377.78 467.14 381.14Q470.15 384.50 475.33 384.50ZM563.67 315.06L563.67 315.06Q567.45 315.06 570.32 316.60Q573.19 318.14 574.80 320.59Q576.41 323.04 576.41 326.12L576.41 326.12Q576.41 329.62 574.24 332.28Q572.07 334.94 568.43 334.94L568.43 334.94Q565.49 334.94 563.25 333.05Q561.01 331.16 561.01 327.66L561.01 327.66Q561.01 325 562.48 323.11Q563.95 321.22 565.77 320.10L565.77 320.10Q564.79 318.70 562.83 318.70L562.83 318.70Q558.49 318.70 554.85 321.29Q551.21 323.88 548.69 327.94Q546.17 332 544.77 336.55Q543.37 341.10 543.37 345.02L543.37 345.02L543.37 374.70Q543.37 381.56 547.36 383.87Q551.35 386.18 558.21 386.18L558.21 386.18L558.21 389.12Q554.99 388.98 549.11 388.77Q543.23 388.56 536.65 388.56L536.65 388.56Q531.89 388.56 527.20 388.77Q522.51 388.98 520.13 389.12L520.13 389.12L520.13 386.18Q525.87 386.18 528.32 384.08Q530.77 381.98 530.77 376.10L530.77 376.10L530.77 332.28Q530.77 325.98 528.53 322.97Q526.29 319.96 520.13 319.96L520.13 319.96L520.13 317.02Q524.61 317.44 528.81 317.44L528.81 317.44Q532.87 317.44 536.58 316.95Q540.29 316.46 543.37 315.48L543.37 315.48L543.37 332.98Q544.91 328.92 547.78 324.79Q550.65 320.66 554.71 317.86Q558.77 315.06 563.67 315.06ZM604.97 293.78L604.97 293.78L604.97 317.16L625.69 317.16L625.69 319.96L604.97 319.96L604.97 374.14Q604.97 380.72 607.35 383.38Q609.73 386.04 613.92 386.04L613.92 386.04Q618.13 386.04 621.21 382.61Q624.28 379.18 626.52 371.06L626.52 371.06L629.33 371.76Q627.92 379.88 623.80 385.48Q619.66 391.08 611.13 391.08L611.13 391.08Q606.37 391.08 603.28 389.89Q600.21 388.70 597.83 386.46L597.83 386.46Q594.75 383.24 593.56 378.76Q592.37 374.28 592.37 366.86L592.37 366.86L592.37 319.96L578.92 319.96L578.92 317.16L592.37 317.16L592.37 295.74Q595.87 295.60 599.09 295.18Q602.31 294.76 604.97 293.78ZM679.02 315.06L679.02 315.06Q684.34 315.06 687.91 316.46Q691.49 317.86 693.87 320.38L693.87 320.38Q696.52 323.18 697.64 327.38Q698.76 331.58 698.76 338.72L698.76 338.72L698.76 376.10Q698.76 381.98 701.21 384.08Q703.66 386.18 709.40 386.18L709.40 386.18L709.40 389.12Q707.02 388.98 702.13 388.77Q697.22 388.56 692.61 388.56L692.61 388.56Q687.98 388.56 683.57 388.77Q679.16 388.98 676.92 389.12L676.92 389.12L676.92 386.18Q681.96 386.18 684.06 384.08Q686.16 381.98 686.16 376.10L686.16 376.10L686.16 335.64Q686.16 331.30 685.46 327.66Q684.76 324.02 682.31 321.78Q679.87 319.54 674.82 319.54L674.82 319.54Q668.94 319.54 664.53 322.90Q660.13 326.26 657.67 332.07Q655.22 337.88 655.22 345.02L655.22 345.02L655.22 376.10Q655.22 381.98 657.32 384.08Q659.42 386.18 664.46 386.18L664.46 386.18L664.46 389.12Q662.22 388.98 657.81 388.77Q653.40 388.56 648.78 388.56L648.78 388.56Q644.16 388.56 639.26 388.77Q634.37 388.98 631.98 389.12L631.98 389.12L631.98 386.18Q637.72 386.18 640.17 384.08Q642.63 381.98 642.63 376.10L642.63 376.10L642.63 332.28Q642.63 325.98 640.38 322.97Q638.14 319.96 631.98 319.96L631.98 319.96L631.98 317.02Q636.46 317.44 640.66 317.44L640.66 317.44Q644.72 317.44 648.43 316.95Q652.14 316.46 655.22 315.48L655.22 315.48L655.22 332Q658.87 322.48 665.38 318.77Q671.88 315.06 679.02 315.06ZM749.59 315.06L749.59 315.06Q761.90 315.06 768.84 322.55Q775.76 330.04 775.76 345.86L775.76 345.86L726.35 345.86L726.21 343.20L762.33 343.20Q762.61 336.34 761.21 330.53Q759.80 324.72 756.79 321.22Q753.78 317.72 749.02 317.72L749.02 317.72Q742.59 317.72 737.62 324.16Q732.64 330.60 731.66 344.60L731.66 344.60L732.09 345.16Q731.80 347.26 731.66 349.78Q731.52 352.30 731.52 354.82L731.52 354.82Q731.52 364.34 734.61 371.20Q737.68 378.06 742.65 381.63Q747.63 385.20 752.95 385.20L752.95 385.20Q757.14 385.20 760.92 383.87Q764.71 382.54 767.92 379.46Q771.14 376.38 773.52 371.20L773.52 371.20L776.33 372.32Q774.78 376.94 771.28 381.28Q767.78 385.62 762.47 388.35Q757.14 391.08 750.14 391.08L750.14 391.08Q740.07 391.08 732.86 386.46Q725.64 381.84 721.79 373.65Q717.95 365.46 717.95 354.82L717.95 354.82Q717.95 342.50 721.87 333.61Q725.78 324.72 732.92 319.89Q740.07 315.06 749.59 315.06ZM829.95 315.06L829.95 315.06Q833.73 315.06 836.60 316.60Q839.47 318.14 841.08 320.59Q842.69 323.04 842.69 326.12L842.69 326.12Q842.69 329.62 840.51 332.28Q838.35 334.94 834.71 334.94L834.71 334.94Q831.76 334.94 829.53 333.05Q827.29 331.16 827.29 327.66L827.29 327.66Q827.29 325 828.75 323.11Q830.23 321.22 832.05 320.10L832.05 320.10Q831.07 318.70 829.11 318.70L829.11 318.70Q824.76 318.70 821.13 321.29Q817.49 323.88 814.97 327.94Q812.45 332 811.05 336.55Q809.64 341.10 809.64 345.02L809.64 345.02L809.64 374.70Q809.64 381.56 813.63 383.87Q817.63 386.18 824.49 386.18L824.49 386.18L824.49 389.12Q821.26 388.98 815.38 388.77Q809.50 388.56 802.93 388.56L802.93 388.56Q798.17 388.56 793.48 388.77Q788.79 388.98 786.40 389.12L786.40 389.12L786.40 386.18Q792.14 386.18 794.60 384.08Q797.05 381.98 797.05 376.10L797.05 376.10L797.05 332.28Q797.05 325.98 794.81 322.97Q792.57 319.96 786.40 319.96L786.40 319.96L786.40 317.02Q790.88 317.44 795.09 317.44L795.09 317.44Q799.14 317.44 802.86 316.95Q806.57 316.46 809.64 315.48L809.64 315.48L809.64 332.98Q811.19 328.92 814.06 324.79Q816.93 320.66 820.99 317.86Q825.05 315.06 829.95 315.06ZM873.76 315.06L873.76 315.06Q879.37 315.06 883.28 316.88Q887.20 318.70 889.02 320.24L889.02 320.24Q893.64 324.02 894.63 315.20L894.63 315.20L897.85 315.20Q897.56 319.12 897.42 324.51Q897.28 329.90 897.28 339L897.28 339L894.06 339Q893.23 333.82 891.19 328.92Q889.16 324.02 885.25 320.87Q881.33 317.72 875.02 317.72L875.02 317.72Q870.13 317.72 866.84 320.45Q863.54 323.18 863.54 328.50L863.54 328.50Q863.54 332.70 866.06 335.71Q868.59 338.72 872.64 341.31Q876.70 343.90 881.47 346.98L881.47 346.98Q886.78 350.34 891.13 353.84Q895.47 357.34 898.05 361.54Q900.64 365.74 900.64 371.48L900.64 371.48Q900.64 377.92 897.28 382.26Q893.92 386.60 888.53 388.84Q883.14 391.08 876.70 391.08L876.70 391.08Q873.63 391.08 870.89 390.59Q868.16 390.10 865.64 389.12L865.64 389.12Q864.25 388.42 862.77 387.44Q861.30 386.46 859.90 385.34L859.90 385.34Q858.50 384.22 857.38 385.41Q856.26 386.60 855.70 390.10L855.70 390.10L852.49 390.10Q852.76 385.62 852.90 379.18Q853.04 372.74 853.04 362.10L853.04 362.10L856.26 362.10Q857.25 369.94 859.06 375.82Q860.88 381.70 864.80 384.99Q868.73 388.28 875.73 388.28L875.73 388.28Q878.52 388.28 881.39 387.02Q884.26 385.76 886.23 382.82Q888.18 379.88 888.18 374.98L888.18 374.98Q888.18 368.82 883.70 364.90Q879.23 360.98 872.37 356.64L872.37 356.64Q867.32 353.42 862.91 350.20Q858.50 346.98 855.77 342.92Q853.04 338.86 853.04 333.12L853.04 333.12Q853.04 326.82 855.91 322.83Q858.78 318.84 863.54 316.95Q868.30 315.06 873.76 315.06Z" fill="#0F172A"/><text x="80" y="370" font-family="Inter, sans-serif" font-weight="400" font-size="40" fill="#0F172A" fill-opacity="0.7" letter-spacing="0.5">Executive Search for Private Equity</text><text x="80" y="555" font-family="Inter, sans-serif" font-weight="600" font-size="22" fill="#CC9A14" letter-spacing="6">RETHINKING HOW PRIVATE EQUITY FIRMS INVEST IN EXECUTIVES</text></svg>
