<svg xmlns="http://www.w3.org/2000/svg" viewBox="0 0 60 60" width="60" height="60" role="img" aria-label="L&amp;E Partners ampersand"><path transform="translate(-31.08 5.345)" d="M54.77 7.57L54.77 7.57Q56.64 7.57 57.79 7.83Q58.94 8.10 59.76 8.58L59.76 8.58Q60.53 8.91 61.18 9.44Q61.82 9.97 62.26 10.74Q62.69 11.50 62.69 12.46L62.69 12.46Q62.69 13.90 61.58 14.77Q60.48 15.63 58.99 15.63L58.99 15.63Q57.55 15.63 56.52 14.91Q55.49 14.19 55.49 12.66L55.49 12.66Q55.49 11.46 56.35 10.47Q57.22 9.49 58.56 9.25L58.56 9.25Q58.22 8.86 57.34 8.62Q56.45 8.38 55.39 8.38L55.39 8.38Q52.90 8.38 51.14 9.94Q49.39 11.50 49.39 14.67L49.39 14.67Q49.39 15.78 49.78 17.02Q50.16 18.27 51.26 19.57L51.26 19.57Q52.08 19.38 52.78 19.28Q53.47 19.18 53.95 19.18L53.95 19.18Q54.82 19.18 55.27 19.54Q55.73 19.90 55.73 20.48L55.73 20.48Q55.73 20.91 55.34 21.20Q54.96 21.49 54.38 21.49L54.38 21.49Q53.57 21.49 52.70 21.03Q51.84 20.58 51.31 20.24L51.31 20.24Q49.06 21.39 47.64 23.19Q46.22 24.99 46.22 28.02L46.22 28.02Q46.22 31.18 47.95 33.22Q49.68 35.26 52.82 36.30Q55.97 37.33 60.24 37.33L60.24 37.33Q62.64 37.33 64.99 36.80Q67.34 36.27 69.24 35.22Q71.14 34.16 72.29 32.60Q73.44 31.04 73.44 28.98L73.44 28.98Q73.44 28.21 73.22 27.03Q73.01 25.86 72.19 24.66L72.19 24.66Q71.42 23.60 69.79 22.88L69.79 22.88Q68.83 23.17 67.78 23.46L67.78 23.46Q66.72 23.74 65.74 24.03Q64.75 24.32 64.03 24.51L64.03 24.51Q60.29 25.33 58.27 26.36Q56.26 27.39 56.26 29.17L56.26 29.17Q56.26 30.37 57.05 31.23Q57.84 32.10 59.04 32.58Q60.24 33.06 61.44 33.06L61.44 33.06Q61.78 33.06 62.16 32.98Q62.54 32.91 62.88 32.79Q63.22 32.67 63.36 32.58L63.36 32.58Q62.16 32.19 61.56 31.35Q60.96 30.51 60.96 29.41L60.96 29.41Q60.96 27.87 62.06 27.06Q63.17 26.24 64.80 26.24L64.80 26.24Q66.53 26.24 67.51 27.15Q68.50 28.06 68.50 29.50L68.50 29.50Q68.50 30.99 67.58 31.98Q66.67 32.96 65.14 33.42Q63.60 33.87 61.68 33.87L61.68 33.87Q59.81 33.87 58.15 33.20Q56.50 32.53 55.51 31.16Q54.53 29.79 54.53 27.73L54.53 27.73Q54.53 25.18 55.82 23.48Q57.12 21.78 59.54 20.65Q61.97 19.52 65.28 18.90L65.28 18.90Q66.29 18.66 67.51 18.34Q68.74 18.03 70.03 17.70Q71.33 17.36 72.43 16.98L72.43 16.98Q75.89 16.11 77.78 15.06Q79.68 14.00 79.68 12.22L79.68 12.22Q79.68 10.93 78.89 9.94Q78.10 8.96 76.85 8.41Q75.60 7.86 74.26 7.86L74.26 7.86Q73.82 7.86 73.46 7.90Q73.10 7.95 72.86 8.10L72.86 8.10Q74.06 8.53 74.64 9.39Q75.22 10.26 75.22 11.12L75.22 11.12Q75.22 12.61 74.11 13.40Q73.01 14.19 71.38 14.19Q69.74 14.19 68.69 13.35Q67.63 12.51 67.63 11.02L67.63 11.02Q67.63 9.73 68.38 8.84Q69.12 7.95 70.46 7.47Q71.81 6.99 73.63 6.99L73.63 6.99Q77.04 6.99 79.15 8.77Q81.26 10.54 81.26 13.76L81.26 13.76Q81.26 16.21 80.09 17.89Q78.91 19.57 76.73 20.62Q74.54 21.68 71.52 22.30L71.52 22.30Q71.14 22.45 70.66 22.59L70.66 22.59Q72.62 23.50 73.78 25.38L73.78 25.38Q75.12 27.63 75.12 30.56L75.12 30.56Q75.12 33.92 73.06 36.58Q70.99 39.25 67.27 40.78Q63.55 42.32 58.56 42.32L58.56 42.32Q54.58 42.32 51.34 41.50Q48.10 40.69 45.77 39.13Q43.44 37.57 42.17 35.36Q40.90 33.15 40.90 30.37L40.90 30.37Q40.90 27.68 42.02 25.78Q43.15 23.89 44.78 22.66Q46.42 21.44 48.05 20.77Q49.68 20.10 50.64 19.86L50.64 19.86Q49.15 19.23 47.93 18.39Q46.70 17.55 45.96 16.40Q45.22 15.25 45.22 13.81L45.22 13.81Q45.22 12.27 46.03 11.10Q46.85 9.92 48.22 9.15Q49.58 8.38 51.29 7.98Q52.99 7.57 54.77 7.57Z" fill="#CC9A14"/></svg>