<svg xmlns="http://www.w3.org/2000/svg" viewBox="0 0 80 80" role="img"><path d="M20.27 28.45L20.27 28.45L20.27 29.11Q19.17 29.14 18.59 29.35Q18.02 29.56 17.83 30.13Q17.63 30.70 17.63 31.91L17.63 31.91L17.63 48.48Q17.63 49.49 17.78 49.98Q17.93 50.47 18.37 50.63Q18.81 50.80 19.69 50.80L19.69 50.80L21.29 50.80Q22.39 50.80 23.37 50.27Q24.35 49.75 25.13 48.79Q25.92 47.83 26.44 46.49Q26.96 45.15 27.22 43.52L27.22 43.52L27.97 43.52Q27.87 44.63 27.87 46.39L27.87 46.39Q27.87 47.14 27.91 48.58Q27.94 50.01 28.10 51.55L28.10 51.55Q26.44 51.48 24.35 51.47Q22.26 51.45 20.63 51.45L20.63 51.45L18.55 51.45Q17.27 51.45 15.81 51.47Q14.34 51.48 12.84 51.50Q11.34 51.51 10 51.55L10 51.55L10 50.89Q11.04 50.83 11.57 50.63Q12.09 50.44 12.27 49.85Q12.45 49.26 12.45 48.09L12.45 48.09L12.45 31.91Q12.45 30.70 12.27 30.13Q12.09 29.56 11.55 29.35Q11.01 29.14 10 29.11L10 29.11L10 28.45Q10.82 28.49 12.20 28.52Q13.59 28.55 15.15 28.55L15.15 28.55Q16.59 28.55 17.97 28.52Q19.36 28.49 20.27 28.45Z" fill="#FFFFFF"/><path d="M36.89 31.29L36.89 31.29Q37.85 31.29 38.43 31.43Q39.02 31.56 39.44 31.80L39.44 31.80Q39.83 31.98 40.16 32.25Q40.49 32.51 40.71 32.91Q40.93 33.30 40.93 33.79L40.93 33.79Q40.93 34.52 40.37 34.96Q39.80 35.40 39.05 35.40L39.05 35.40Q38.31 35.40 37.79 35.03Q37.26 34.67 37.26 33.88L37.26 33.88Q37.26 33.27 37.70 32.77Q38.14 32.27 38.83 32.15L38.83 32.15Q38.65 31.95 38.20 31.83Q37.75 31.71 37.21 31.71L37.21 31.71Q35.94 31.71 35.05 32.50Q34.15 33.30 34.15 34.91L34.15 34.91Q34.15 35.47 34.35 36.11Q34.54 36.75 35.11 37.41L35.11 37.41Q35.52 37.31 35.88 37.26Q36.23 37.21 36.48 37.21L36.48 37.21Q36.92 37.21 37.15 37.39Q37.38 37.58 37.38 37.87L37.38 37.87Q37.38 38.09 37.19 38.24Q36.99 38.39 36.70 38.39L36.70 38.39Q36.28 38.39 35.84 38.15Q35.40 37.92 35.13 37.75L35.13 37.75Q33.98 38.34 33.26 39.25Q32.54 40.17 32.54 41.71L32.54 41.71Q32.54 43.33 33.42 44.37Q34.30 45.41 35.90 45.93Q37.50 46.46 39.68 46.46L39.68 46.46Q40.91 46.46 42.10 46.19Q43.30 45.92 44.27 45.38Q45.24 44.84 45.82 44.05Q46.41 43.25 46.41 42.20L46.41 42.20Q46.41 41.81 46.30 41.21Q46.19 40.61 45.77 40L45.77 40Q45.38 39.46 44.55 39.09L44.55 39.09Q44.06 39.24 43.52 39.39L43.52 39.39Q42.98 39.54 42.48 39.68Q41.98 39.83 41.61 39.93L41.61 39.93Q39.71 40.34 38.68 40.87Q37.65 41.39 37.65 42.30L37.65 42.30Q37.65 42.91 38.06 43.35Q38.46 43.79 39.07 44.04Q39.68 44.28 40.29 44.28L40.29 44.28Q40.46 44.28 40.66 44.24Q40.86 44.21 41.03 44.15Q41.20 44.09 41.27 44.04L41.27 44.04Q40.66 43.84 40.35 43.41Q40.05 42.98 40.05 42.42L40.05 42.42Q40.05 41.64 40.61 41.22Q41.17 40.81 42.01 40.81L42.01 40.81Q42.89 40.81 43.39 41.27Q43.89 41.74 43.89 42.47L43.89 42.47Q43.89 43.23 43.42 43.73Q42.96 44.23 42.18 44.46Q41.39 44.70 40.42 44.70L40.42 44.70Q39.46 44.70 38.62 44.35Q37.77 44.01 37.27 43.31Q36.77 42.62 36.77 41.57L36.77 41.57Q36.77 40.27 37.43 39.40Q38.09 38.53 39.33 37.96Q40.56 37.38 42.25 37.06L42.25 37.06Q42.76 36.94 43.39 36.78Q44.01 36.62 44.67 36.45Q45.33 36.28 45.90 36.09L45.90 36.09Q47.66 35.65 48.62 35.11Q49.59 34.57 49.59 33.66L49.59 33.66Q49.59 33.00 49.19 32.50Q48.78 32.00 48.15 31.72Q47.51 31.44 46.83 31.44L46.83 31.44Q46.61 31.44 46.42 31.46Q46.24 31.49 46.12 31.56L46.12 31.56Q46.73 31.78 47.02 32.22Q47.31 32.66 47.31 33.10L47.31 33.10Q47.31 33.86 46.75 34.26Q46.19 34.67 45.36 34.67Q44.53 34.67 43.99 34.24Q43.45 33.81 43.45 33.05L43.45 33.05Q43.45 32.39 43.83 31.94Q44.21 31.49 44.89 31.24Q45.58 31.00 46.51 31.00L46.51 31.00Q48.24 31.00 49.32 31.90Q50.40 32.81 50.40 34.45L50.40 34.45Q50.40 35.69 49.80 36.55Q49.20 37.41 48.09 37.95Q46.97 38.48 45.43 38.80L45.43 38.80Q45.24 38.87 44.99 38.95L44.99 38.95Q45.99 39.41 46.58 40.37L46.58 40.37Q47.27 41.52 47.27 43.01L47.27 43.01Q47.27 44.72 46.21 46.08Q45.16 47.44 43.27 48.22Q41.37 49.00 38.83 49.00L38.83 49.00Q36.80 49.00 35.14 48.59Q33.49 48.17 32.31 47.38Q31.12 46.58 30.47 45.46Q29.82 44.33 29.82 42.91L29.82 42.91Q29.82 41.54 30.40 40.57Q30.97 39.61 31.80 38.98Q32.64 38.36 33.47 38.02Q34.30 37.68 34.79 37.55L34.79 37.55Q34.03 37.24 33.41 36.81Q32.78 36.38 32.40 35.79Q32.03 35.21 32.03 34.47L32.03 34.47Q32.03 33.69 32.44 33.09Q32.86 32.49 33.55 32.10Q34.25 31.71 35.12 31.50Q35.99 31.29 36.89 31.29Z" fill="#CC9A14"/><path d="M69.35 28.45L69.35 28.45Q69.22 29.89 69.17 31.23Q69.12 32.56 69.12 33.28L69.12 33.28Q69.12 33.93 69.15 34.52Q69.18 35.11 69.22 35.50L69.22 35.50L68.47 35.50Q68.14 33.12 67.46 31.73Q66.77 30.35 65.68 29.77Q64.59 29.20 63.12 29.20L63.12 29.20L61.78 29.20Q60.83 29.20 60.35 29.37Q59.86 29.53 59.69 30.02Q59.53 30.51 59.53 31.52L59.53 31.52L59.53 39.61L60.57 39.61Q61.55 39.61 62.24 39.20Q62.92 38.79 63.36 38.12Q63.80 37.46 64.06 36.71Q64.32 35.96 64.46 35.30L64.46 35.30L65.21 35.30Q65.07 37.16 65.09 38.14Q65.11 39.12 65.11 39.93Q65.11 40.75 65.14 41.73Q65.17 42.71 65.30 44.57L65.30 44.57L64.55 44.57Q64.39 43.42 63.95 42.45Q63.51 41.47 62.69 40.86Q61.88 40.26 60.57 40.26L60.57 40.26L59.53 40.26L59.53 48.48Q59.53 49.49 59.69 49.98Q59.86 50.47 60.35 50.63Q60.83 50.80 61.78 50.80L61.78 50.80L63.38 50.80Q64.85 50.80 65.97 50.16Q67.10 49.52 67.90 47.99Q68.70 46.46 69.12 43.85L69.12 43.85L69.87 43.85Q69.77 44.89 69.77 46.59L69.77 46.59Q69.77 47.34 69.80 48.71Q69.84 50.08 70 51.55L70 51.55Q68.34 51.48 66.25 51.47Q64.16 51.45 62.53 51.45L62.53 51.45L60.44 51.45Q59.17 51.45 57.70 51.47Q56.24 51.48 54.73 51.50Q53.23 51.51 51.90 51.55L51.90 51.55L51.90 50.89Q52.94 50.83 53.46 50.63Q53.98 50.44 54.16 49.85Q54.34 49.26 54.34 48.09L54.34 48.09L54.34 31.91Q54.34 30.70 54.16 30.13Q53.98 29.56 53.45 29.35Q52.91 29.14 51.90 29.11L51.90 29.11L51.90 28.45Q53.23 28.49 54.73 28.50Q56.24 28.52 57.70 28.53Q59.17 28.55 60.44 28.55L60.44 28.55L62.53 28.55Q64.03 28.55 65.94 28.53Q67.85 28.52 69.35 28.45Z" fill="#FFFFFF"/></svg>
