<svg xmlns="http://www.w3.org/2000/svg" viewBox="0 0 80 80" role="img"><path d="M18.82 27.76L18.82 27.76L18.82 28.45Q17.64 28.48 17.04 28.71Q16.43 28.93 16.23 29.54Q16.02 30.14 16.02 31.42L16.02 31.42L16.02 48.58Q16.02 49.82 16.23 50.45Q16.43 51.07 17.04 51.26Q17.64 51.45 18.82 51.45L18.82 51.45L21.34 51.45Q22.97 51.45 23.99 51.10Q25.01 50.76 25.62 50.01Q26.22 49.27 26.53 48.02Q26.84 46.78 27.02 44.98L27.02 44.98L27.81 44.98Q27.71 46.05 27.71 47.82L27.71 47.82Q27.71 48.47 27.76 49.70Q27.81 50.93 27.95 52.24L27.95 52.24Q26.19 52.17 23.97 52.16Q21.76 52.14 20.03 52.14L20.03 52.14Q19.27 52.14 18.08 52.14Q16.88 52.14 15.50 52.16Q14.12 52.17 12.70 52.19Q11.28 52.21 10.00 52.24L10.00 52.24L10.00 51.55Q11.18 51.48 11.78 51.28Q12.39 51.07 12.59 50.45Q12.80 49.82 12.80 48.58L12.80 48.58L12.80 31.42Q12.80 30.14 12.59 29.54Q12.39 28.93 11.78 28.71Q11.18 28.48 10.00 28.45L10.00 28.45L10.00 27.76Q10.73 27.79 11.90 27.83Q13.08 27.86 14.43 27.86L14.43 27.86Q15.64 27.86 16.83 27.83Q18.02 27.79 18.82 27.76Z" fill="#0F172A"/><path d="M36.85 30.97L36.85 30.97Q37.83 30.97 38.48 31.19Q39.13 31.41 39.55 31.75L39.55 31.75Q39.88 32.01 40.09 32.32Q40.30 32.63 40.40 32.94Q40.51 33.26 40.51 33.54L40.51 33.54Q40.51 34.19 40.05 34.55Q39.60 34.92 39.05 34.92L39.05 34.92Q38.53 34.92 38.12 34.58Q37.70 34.24 37.70 33.62L37.70 33.62Q37.70 33.05 38.09 32.65Q38.48 32.24 39.08 32.19L39.08 32.19Q38.98 31.85 38.44 31.61Q37.91 31.36 37.11 31.36L37.11 31.36Q35.78 31.36 34.94 32.15Q34.10 32.94 34.10 34.45L34.10 34.45Q34.10 35.18 34.37 35.93Q34.64 36.68 35.42 37.41L35.42 37.41Q35.86 37.33 36.33 37.29Q36.80 37.25 37.03 37.25L37.03 37.25Q37.50 37.25 37.78 37.41Q38.07 37.56 38.07 37.85L38.07 37.85Q38.07 38.08 37.87 38.21Q37.68 38.34 37.34 38.34L37.34 38.34Q36.85 38.34 36.30 38.12Q35.76 37.90 35.45 37.77L35.45 37.77Q33.94 38.21 33.01 39.21Q32.08 40.21 32.08 42.02L32.08 42.02Q32.08 43.81 33.01 45.06Q33.94 46.30 35.51 46.96Q37.08 47.63 39.03 47.63L39.03 47.63Q40.40 47.63 41.63 47.30Q42.87 46.98 43.81 46.36Q44.76 45.73 45.30 44.86Q45.85 43.99 45.85 42.88L45.85 42.88Q45.85 42.39 45.64 41.62Q45.43 40.86 44.79 40.12Q44.14 39.38 42.79 38.96L42.79 38.96L43.10 38.70Q44.99 39.27 45.80 40.53Q46.60 41.79 46.60 43.35L46.60 43.35Q46.60 44.90 45.67 46.33Q44.73 47.76 42.97 48.65Q41.21 49.55 38.69 49.55L38.69 49.55Q37.00 49.55 35.49 49.11Q33.97 48.66 32.80 47.82Q31.63 46.98 30.96 45.78Q30.29 44.59 30.29 43.09L30.29 43.09Q30.29 41.69 30.83 40.69Q31.37 39.69 32.18 39.04Q32.98 38.39 33.79 38.04Q34.59 37.69 35.08 37.56L35.08 37.56Q34.23 37.17 33.64 36.64Q33.06 36.11 32.76 35.47Q32.46 34.84 32.46 34.22L32.46 34.22Q32.46 33.59 32.75 33.01Q33.04 32.43 33.58 31.96Q34.12 31.49 34.94 31.23Q35.76 30.97 36.85 30.97ZM46.29 30.45L46.29 30.45Q47.90 30.45 48.99 31.37Q50.08 32.30 50.08 33.96L50.08 33.96Q50.08 34.84 49.75 35.53Q49.43 36.21 48.87 36.73Q48.31 37.25 47.61 37.59L47.61 37.59Q47.02 37.87 46.04 38.21Q45.07 38.55 43.97 38.88Q42.87 39.22 41.87 39.55Q40.87 39.87 40.25 40.10L40.25 40.10Q39.29 40.47 38.63 41.00Q37.96 41.53 37.96 42.36L37.96 42.36Q37.96 43.04 38.35 43.50Q38.74 43.97 39.30 44.20Q39.86 44.44 40.35 44.44L40.35 44.44Q40.58 44.44 40.93 44.37Q41.28 44.31 41.57 44.18Q41.85 44.05 41.91 43.87L41.91 43.87Q41.49 43.79 41.09 43.49Q40.69 43.19 40.69 42.54L40.69 42.54Q40.69 41.92 41.10 41.56Q41.52 41.19 42.11 41.19L42.11 41.19Q42.74 41.19 43.11 41.58Q43.49 41.97 43.49 42.59L43.49 42.59Q43.49 43.32 43.01 43.83Q42.53 44.33 41.82 44.58Q41.10 44.82 40.40 44.82L40.40 44.82Q39.68 44.82 38.92 44.51Q38.17 44.20 37.68 43.54Q37.19 42.88 37.19 41.79L37.19 41.79Q37.19 40.88 37.59 40.18Q37.99 39.48 38.79 38.94Q39.60 38.39 40.77 38.00L40.77 38.00Q41.54 37.74 42.66 37.43Q43.77 37.12 44.95 36.76Q46.13 36.39 47.09 35.95L47.09 35.95Q48.39 35.36 48.86 34.73Q49.33 34.11 49.33 33.46L49.33 33.46Q49.33 32.71 48.91 32.13Q48.50 31.54 47.81 31.19Q47.12 30.84 46.32 30.84L46.32 30.84Q46.01 30.84 45.80 30.89Q45.59 30.95 45.54 31.08L45.54 31.08Q45.90 31.26 46.08 31.60Q46.26 31.93 46.26 32.27L46.26 32.27Q46.26 32.81 45.84 33.18Q45.41 33.54 44.81 33.54L44.81 33.54Q44.32 33.54 43.88 33.22Q43.44 32.89 43.44 32.24L43.44 32.24Q43.44 31.57 43.89 31.18Q44.35 30.79 45.01 30.62Q45.67 30.45 46.29 30.45Z" fill="#CC9A14"/><path d="M69.31 27.76L69.31 27.76Q69.17 28.97 69.12 30.11Q69.07 31.25 69.07 31.84L69.07 31.84Q69.07 32.46 69.10 33.03Q69.14 33.60 69.17 33.98L69.17 33.98L68.37 33.98Q68.17 31.94 67.79 30.75Q67.41 29.55 66.49 29.05Q65.57 28.55 63.74 28.55L63.74 28.55L60.87 28.55Q59.69 28.55 59.09 28.74Q58.48 28.93 58.27 29.54Q58.07 30.14 58.07 31.42L58.07 31.42L58.07 48.58Q58.07 49.82 58.27 50.45Q58.48 51.07 59.09 51.26Q59.69 51.45 60.87 51.45L60.87 51.45L63.39 51.45Q65.57 51.45 66.70 50.86Q67.82 50.27 68.32 48.94Q68.82 47.61 69.07 45.33L69.07 45.33L69.86 45.33Q69.76 46.26 69.76 47.82L69.76 47.82Q69.76 48.47 69.81 49.70Q69.86 50.93 70.00 52.24L70.00 52.24Q68.24 52.17 66.02 52.16Q63.81 52.14 62.08 52.14L62.08 52.14Q61.32 52.14 60.13 52.14Q58.93 52.14 57.55 52.16Q56.17 52.17 54.75 52.19Q53.33 52.21 52.05 52.24L52.05 52.24L52.05 51.55Q53.23 51.48 53.83 51.28Q54.44 51.07 54.64 50.45Q54.85 49.82 54.85 48.58L54.85 48.58L54.85 31.42Q54.85 30.14 54.64 29.54Q54.44 28.93 53.83 28.71Q53.23 28.48 52.05 28.45L52.05 28.45L52.05 27.76Q53.33 27.79 54.75 27.81Q56.17 27.83 57.55 27.84Q58.93 27.86 60.13 27.86Q61.32 27.86 62.08 27.86L62.08 27.86Q63.67 27.86 65.69 27.84Q67.72 27.83 69.31 27.76ZM57.03 39.58L63.36 39.58Q63.36 39.58 63.36 39.93Q63.36 40.28 63.36 40.28L63.36 40.28L57.03 40.28Q57.03 40.28 57.03 39.93Q57.03 39.58 57.03 39.58L57.03 39.58ZM63.57 35.02L64.36 35.02Q64.22 36.99 64.24 38.03Q64.26 39.07 64.26 39.93L64.26 39.93Q64.26 40.80 64.29 41.83Q64.33 42.87 64.47 44.84L64.47 44.84L63.67 44.84Q63.53 43.74 63.34 42.68Q63.15 41.63 62.51 40.95Q61.87 40.28 60.35 40.28L60.35 40.28L60.35 39.58Q61.49 39.58 62.10 39.12Q62.70 38.65 62.98 37.92Q63.26 37.20 63.36 36.42Q63.46 35.64 63.57 35.02L63.57 35.02Z" fill="#0F172A"/></svg>
