<svg xmlns="http://www.w3.org/2000/svg" viewBox="0 0 80 80" role="img"><path d="M17.87 29.07L17.87 29.07L17.87 29.69Q16.82 29.72 16.28 29.92Q15.74 30.12 15.56 30.66Q15.37 31.20 15.37 32.35L15.37 32.35L15.37 47.65Q15.37 48.77 15.56 49.32Q15.74 49.88 16.28 50.05Q16.82 50.22 17.87 50.22L17.87 50.22L20.12 50.22Q21.57 50.22 22.48 49.91Q23.40 49.60 23.94 48.94Q24.48 48.27 24.75 47.16Q25.03 46.05 25.19 44.44L25.19 44.44L25.90 44.44Q25.80 45.40 25.80 46.98L25.80 46.98Q25.80 47.56 25.85 48.66Q25.90 49.75 26.02 50.93L26.02 50.93Q24.44 50.86 22.47 50.85Q20.49 50.83 18.95 50.83L18.95 50.83Q18.27 50.83 17.21 50.83Q16.14 50.83 14.91 50.85Q13.67 50.86 12.41 50.88Q11.14 50.90 10.00 50.93L10.00 50.93L10.00 50.31Q11.05 50.25 11.59 50.06Q12.13 49.88 12.31 49.32Q12.50 48.77 12.50 47.65L12.50 47.65L12.50 32.35Q12.50 31.20 12.31 30.66Q12.13 30.12 11.59 29.92Q11.05 29.72 10.00 29.69L10.00 29.69L10.00 29.07Q10.65 29.10 11.70 29.14Q12.75 29.17 13.95 29.17L13.95 29.17Q15.03 29.17 16.10 29.14Q17.16 29.10 17.87 29.07Z" fill="#0F172A"/><path d="M36.33 29.26L36.33 29.26Q37.50 29.26 38.27 29.52Q39.04 29.78 39.54 30.19L39.54 30.19Q39.94 30.49 40.19 30.86Q40.43 31.23 40.56 31.60Q40.68 31.98 40.68 32.31L40.68 32.31Q40.68 33.09 40.14 33.52Q39.60 33.95 38.95 33.95L38.95 33.95Q38.33 33.95 37.84 33.55Q37.35 33.15 37.35 32.41L37.35 32.41Q37.35 31.73 37.81 31.25Q38.27 30.77 38.98 30.71L38.98 30.71Q38.86 30.31 38.23 30.02Q37.59 29.72 36.64 29.72L36.64 29.72Q35.06 29.72 34.06 30.66Q33.06 31.60 33.06 33.40L33.06 33.40Q33.06 34.26 33.38 35.15Q33.70 36.05 34.63 36.91L34.63 36.91Q35.15 36.82 35.71 36.77Q36.27 36.73 36.54 36.73L36.54 36.73Q37.10 36.73 37.44 36.91Q37.78 37.10 37.78 37.44L37.78 37.44Q37.78 37.72 37.55 37.87Q37.31 38.02 36.91 38.02L36.91 38.02Q36.33 38.02 35.68 37.76Q35.03 37.50 34.66 37.35L34.66 37.35Q32.87 37.87 31.76 39.06Q30.65 40.25 30.65 42.41L30.65 42.41Q30.65 44.54 31.76 46.02Q32.87 47.50 34.74 48.29Q36.60 49.07 38.92 49.07L38.92 49.07Q40.56 49.07 42.02 48.69Q43.49 48.30 44.61 47.56Q45.74 46.82 46.39 45.79Q47.04 44.75 47.04 43.43L47.04 43.43Q47.04 42.84 46.79 41.93Q46.54 41.02 45.77 40.14Q45 39.26 43.40 38.77L43.40 38.77L43.77 38.46Q46.02 39.14 46.98 40.63Q47.93 42.13 47.93 43.98L47.93 43.98Q47.93 45.83 46.82 47.53Q45.71 49.23 43.61 50.29Q41.51 51.36 38.52 51.36L38.52 51.36Q36.51 51.36 34.71 50.83Q32.90 50.31 31.51 49.31Q30.12 48.30 29.32 46.88Q28.52 45.46 28.52 43.67L28.52 43.67Q28.52 42.01 29.17 40.82Q29.81 39.63 30.77 38.86Q31.73 38.09 32.69 37.67Q33.64 37.25 34.23 37.10L34.23 37.10Q33.21 36.64 32.52 36.00Q31.82 35.37 31.47 34.61Q31.11 33.86 31.11 33.12L31.11 33.12Q31.11 32.38 31.45 31.68Q31.79 30.99 32.44 30.43Q33.09 29.88 34.06 29.57Q35.03 29.26 36.33 29.26ZM47.56 28.64L47.56 28.64Q49.48 28.64 50.77 29.74Q52.07 30.83 52.07 32.81L52.07 32.81Q52.07 33.86 51.68 34.68Q51.30 35.49 50.63 36.11Q49.97 36.73 49.14 37.13L49.14 37.13Q48.43 37.47 47.27 37.87Q46.11 38.27 44.80 38.67Q43.49 39.07 42.30 39.46Q41.11 39.85 40.37 40.12L40.37 40.12Q39.23 40.56 38.44 41.19Q37.65 41.82 37.65 42.81L37.65 42.81Q37.65 43.61 38.12 44.17Q38.58 44.72 39.24 45Q39.91 45.28 40.49 45.28L40.49 45.28Q40.77 45.28 41.19 45.20Q41.60 45.12 41.94 44.97Q42.28 44.81 42.35 44.60L42.35 44.60Q41.85 44.51 41.37 44.15Q40.90 43.80 40.90 43.02L40.90 43.02Q40.90 42.28 41.39 41.85Q41.88 41.42 42.59 41.42L42.59 41.42Q43.33 41.42 43.78 41.88Q44.23 42.35 44.23 43.09L44.23 43.09Q44.23 43.95 43.66 44.55Q43.09 45.15 42.24 45.45Q41.39 45.74 40.56 45.74L40.56 45.74Q39.69 45.74 38.80 45.37Q37.90 45 37.31 44.21Q36.73 43.43 36.73 42.13L36.73 42.13Q36.73 41.05 37.21 40.22Q37.69 39.38 38.64 38.73Q39.60 38.09 40.99 37.62L40.99 37.62Q41.91 37.31 43.24 36.94Q44.57 36.57 45.97 36.14Q47.38 35.71 48.52 35.19L48.52 35.19Q50.06 34.48 50.62 33.73Q51.17 32.99 51.17 32.22L51.17 32.22Q51.17 31.33 50.68 30.63Q50.19 29.94 49.37 29.52Q48.55 29.10 47.59 29.10L47.59 29.10Q47.22 29.10 46.98 29.17Q46.73 29.23 46.67 29.38L46.67 29.38Q47.10 29.60 47.31 30.00Q47.53 30.40 47.53 30.80L47.53 30.80Q47.53 31.45 47.02 31.88Q46.51 32.31 45.80 32.31L45.80 32.31Q45.22 32.31 44.69 31.93Q44.17 31.54 44.17 30.77L44.17 30.77Q44.17 29.97 44.71 29.51Q45.25 29.04 46.03 28.84Q46.82 28.64 47.56 28.64Z" fill="#CC9A14"/><path d="M69.38 29.07L69.38 29.07Q69.26 30.15 69.21 31.17Q69.17 32.19 69.17 32.72L69.17 32.72Q69.17 33.27 69.20 33.78Q69.23 34.29 69.26 34.63L69.26 34.63L68.55 34.63Q68.36 32.81 68.02 31.74Q67.69 30.68 66.87 30.23Q66.05 29.78 64.41 29.78L64.41 29.78L61.85 29.78Q60.80 29.78 60.26 29.95Q59.72 30.12 59.54 30.66Q59.35 31.20 59.35 32.35L59.35 32.35L59.35 47.65Q59.35 48.77 59.54 49.32Q59.72 49.88 60.26 50.05Q60.80 50.22 61.85 50.22L61.85 50.22L64.10 50.22Q66.05 50.22 67.05 49.69Q68.06 49.17 68.50 47.98Q68.95 46.79 69.17 44.75L69.17 44.75L69.88 44.75Q69.78 45.59 69.78 46.98L69.78 46.98Q69.78 47.56 69.83 48.66Q69.88 49.75 70 50.93L70 50.93Q68.43 50.86 66.45 50.85Q64.48 50.83 62.93 50.83L62.93 50.83Q62.25 50.83 61.19 50.83Q60.12 50.83 58.89 50.85Q57.65 50.86 56.39 50.88Q55.12 50.90 53.98 50.93L53.98 50.93L53.98 50.31Q55.03 50.25 55.57 50.06Q56.11 49.88 56.30 49.32Q56.48 48.77 56.48 47.65L56.48 47.65L56.48 32.35Q56.48 31.20 56.30 30.66Q56.11 30.12 55.57 29.92Q55.03 29.72 53.98 29.69L53.98 29.69L53.98 29.07Q55.12 29.10 56.39 29.12Q57.65 29.14 58.89 29.15Q60.12 29.17 61.19 29.17Q62.25 29.17 62.93 29.17L62.93 29.17Q64.35 29.17 66.16 29.15Q67.96 29.14 69.38 29.07ZM58.43 39.63L64.07 39.63Q64.07 39.63 64.07 39.94Q64.07 40.25 64.07 40.25L64.07 40.25L58.43 40.25Q58.43 40.25 58.43 39.94Q58.43 39.63 58.43 39.63L58.43 39.63ZM64.26 35.56L64.97 35.56Q64.85 37.31 64.86 38.24Q64.88 39.17 64.88 39.94L64.88 39.94Q64.88 40.71 64.91 41.64Q64.94 42.56 65.06 44.32L65.06 44.32L64.35 44.32Q64.23 43.33 64.06 42.39Q63.89 41.45 63.32 40.85Q62.75 40.25 61.39 40.25L61.39 40.25L61.39 39.63Q62.41 39.63 62.95 39.21Q63.49 38.80 63.73 38.15Q63.98 37.50 64.07 36.81Q64.17 36.11 64.26 35.56L64.26 35.56Z" fill="#0F172A"/></svg>
