<svg xmlns="http://www.w3.org/2000/svg" viewBox="0 0 80 80" role="img"><path d="M18.82 27.76L18.82 27.76L18.82 28.45Q17.64 28.48 17.04 28.71Q16.43 28.93 16.23 29.54Q16.02 30.14 16.02 31.42L16.02 31.42L16.02 48.58Q16.02 49.82 16.23 50.45Q16.43 51.07 17.04 51.26Q17.64 51.45 18.82 51.45L18.82 51.45L21.34 51.45Q22.97 51.45 23.99 51.10Q25.01 50.76 25.62 50.01Q26.22 49.27 26.53 48.02Q26.84 46.78 27.02 44.98L27.02 44.98L27.81 44.98Q27.71 46.05 27.71 47.82L27.71 47.82Q27.71 48.47 27.76 49.70Q27.81 50.93 27.95 52.24L27.95 52.24Q26.19 52.17 23.97 52.16Q21.76 52.14 20.03 52.14L20.03 52.14Q19.27 52.14 18.08 52.14Q16.88 52.14 15.50 52.16Q14.12 52.17 12.70 52.19Q11.28 52.21 10.00 52.24L10.00 52.24L10.00 51.55Q11.18 51.48 11.78 51.28Q12.39 51.07 12.59 50.45Q12.80 49.82 12.80 48.58L12.80 48.58L12.80 31.42Q12.80 30.14 12.59 29.54Q12.39 28.93 11.78 28.71Q11.18 28.48 10.00 28.45L10.00 28.45L10.00 27.76Q10.73 27.79 11.90 27.83Q13.08 27.86 14.43 27.86L14.43 27.86Q15.64 27.86 16.83 27.83Q18.02 27.79 18.82 27.76Z" fill="#FFFFFF"/><path d="M40.47 30.97L40.47 30.97Q41.45 30.97 42.10 31.19Q42.75 31.41 43.16 31.75L43.16 31.75Q43.50 32.01 43.71 32.32Q43.92 32.63 44.02 32.94Q44.12 33.26 44.12 33.54L44.12 33.54Q44.12 34.19 43.67 34.55Q43.22 34.92 42.67 34.92L42.67 34.92Q42.15 34.92 41.74 34.58Q41.32 34.24 41.32 33.62L41.32 33.62Q41.32 33.05 41.71 32.65Q42.10 32.24 42.70 32.19L42.70 32.19Q42.59 31.85 42.06 31.61Q41.53 31.36 40.73 31.36L40.73 31.36Q39.40 31.36 38.56 32.15Q37.72 32.94 37.72 34.45L37.72 34.45Q37.72 35.18 37.99 35.93Q38.26 36.68 39.04 37.41L39.04 37.41Q39.48 37.33 39.95 37.29Q40.42 37.25 40.65 37.25L40.65 37.25Q41.12 37.25 41.40 37.41Q41.69 37.56 41.69 37.85L41.69 37.85Q41.69 38.08 41.49 38.21Q41.30 38.34 40.96 38.34L40.96 38.34Q40.47 38.34 39.92 38.12Q39.38 37.90 39.07 37.77L39.07 37.77Q37.56 38.21 36.63 39.21Q35.69 40.21 35.69 42.02L35.69 42.02Q35.69 43.81 36.63 45.06Q37.56 46.30 39.13 46.96Q40.70 47.63 42.65 47.63L42.65 47.63Q44.02 47.63 45.25 47.30Q46.49 46.98 47.43 46.36Q48.38 45.73 48.92 44.86Q49.47 43.99 49.47 42.88L49.47 42.88Q49.47 42.39 49.26 41.62Q49.05 40.86 48.40 40.12Q47.76 39.38 46.41 38.96L46.41 38.96L46.72 38.70Q48.61 39.27 49.42 40.53Q50.22 41.79 50.22 43.35L50.22 43.35Q50.22 44.90 49.29 46.33Q48.35 47.76 46.59 48.65Q44.82 49.55 42.31 49.55L42.31 49.55Q40.62 49.55 39.11 49.11Q37.59 48.66 36.42 47.82Q35.25 46.98 34.58 45.78Q33.90 44.59 33.90 43.09L33.90 43.09Q33.90 41.69 34.45 40.69Q34.99 39.69 35.80 39.04Q36.60 38.39 37.41 38.04Q38.21 37.69 38.70 37.56L38.70 37.56Q37.85 37.17 37.26 36.64Q36.68 36.11 36.38 35.47Q36.08 34.84 36.08 34.22L36.08 34.22Q36.08 33.59 36.37 33.01Q36.65 32.43 37.20 31.96Q37.74 31.49 38.56 31.23Q39.38 30.97 40.47 30.97ZM49.91 30.45L49.91 30.45Q51.52 30.45 52.61 31.37Q53.70 32.30 53.70 33.96L53.70 33.96Q53.70 34.84 53.37 35.53Q53.05 36.21 52.49 36.73Q51.93 37.25 51.23 37.59L51.23 37.59Q50.64 37.87 49.66 38.21Q48.69 38.55 47.59 38.88Q46.49 39.22 45.49 39.55Q44.49 39.87 43.87 40.10L43.87 40.10Q42.91 40.47 42.24 41.00Q41.58 41.53 41.58 42.36L41.58 42.36Q41.58 43.04 41.97 43.50Q42.36 43.97 42.92 44.20Q43.48 44.44 43.97 44.44L43.97 44.44Q44.20 44.44 44.55 44.37Q44.90 44.31 45.19 44.18Q45.47 44.05 45.53 43.87L45.53 43.87Q45.11 43.79 44.71 43.49Q44.31 43.19 44.31 42.54L44.31 42.54Q44.31 41.92 44.72 41.56Q45.14 41.19 45.73 41.19L45.73 41.19Q46.36 41.19 46.73 41.58Q47.11 41.97 47.11 42.59L47.11 42.59Q47.11 43.32 46.63 43.83Q46.15 44.33 45.43 44.58Q44.72 44.82 44.02 44.82L44.02 44.82Q43.29 44.82 42.54 44.51Q41.79 44.20 41.30 43.54Q40.80 42.88 40.80 41.79L40.80 41.79Q40.80 40.88 41.21 40.18Q41.61 39.48 42.41 38.94Q43.22 38.39 44.38 38.00L44.38 38.00Q45.16 37.74 46.28 37.43Q47.39 37.12 48.57 36.76Q49.75 36.39 50.71 35.95L50.71 35.95Q52.01 35.36 52.48 34.73Q52.94 34.11 52.94 33.46L52.94 33.46Q52.94 32.71 52.53 32.13Q52.11 31.54 51.43 31.19Q50.74 30.84 49.94 30.84L49.94 30.84Q49.62 30.84 49.42 30.89Q49.21 30.95 49.16 31.08L49.16 31.08Q49.52 31.26 49.70 31.60Q49.88 31.93 49.88 32.27L49.88 32.27Q49.88 32.81 49.46 33.18Q49.03 33.54 48.43 33.54L48.43 33.54Q47.94 33.54 47.50 33.22Q47.06 32.89 47.06 32.24L47.06 32.24Q47.06 31.57 47.51 31.18Q47.96 30.79 48.63 30.62Q49.29 30.45 49.91 30.45Z" fill="#CC9A14"/><path d="M69.31 27.76L69.31 27.76Q69.17 28.97 69.12 30.11Q69.07 31.25 69.07 31.84L69.07 31.84Q69.07 32.46 69.10 33.03Q69.14 33.60 69.17 33.98L69.17 33.98L68.37 33.98Q68.17 31.94 67.79 30.75Q67.41 29.55 66.49 29.05Q65.57 28.55 63.74 28.55L63.74 28.55L60.87 28.55Q59.69 28.55 59.09 28.74Q58.48 28.93 58.27 29.54Q58.07 30.14 58.07 31.42L58.07 31.42L58.07 48.58Q58.07 49.82 58.27 50.45Q58.48 51.07 59.09 51.26Q59.69 51.45 60.87 51.45L60.87 51.45L63.39 51.45Q65.57 51.45 66.70 50.86Q67.82 50.27 68.32 48.94Q68.82 47.61 69.07 45.33L69.07 45.33L69.86 45.33Q69.76 46.26 69.76 47.82L69.76 47.82Q69.76 48.47 69.81 49.70Q69.86 50.93 70.00 52.24L70.00 52.24Q68.24 52.17 66.02 52.16Q63.81 52.14 62.08 52.14L62.08 52.14Q61.32 52.14 60.13 52.14Q58.93 52.14 57.55 52.16Q56.17 52.17 54.75 52.19Q53.33 52.21 52.05 52.24L52.05 52.24L52.05 51.55Q53.23 51.48 53.83 51.28Q54.44 51.07 54.64 50.45Q54.85 49.82 54.85 48.58L54.85 48.58L54.85 31.42Q54.85 30.14 54.64 29.54Q54.44 28.93 53.83 28.71Q53.23 28.48 52.05 28.45L52.05 28.45L52.05 27.76Q53.33 27.79 54.75 27.81Q56.17 27.83 57.55 27.84Q58.93 27.86 60.13 27.86Q61.32 27.86 62.08 27.86L62.08 27.86Q63.67 27.86 65.69 27.84Q67.72 27.83 69.31 27.76ZM57.03 39.58L63.36 39.58Q63.36 39.58 63.36 39.93Q63.36 40.28 63.36 40.28L63.36 40.28L57.03 40.28Q57.03 40.28 57.03 39.93Q57.03 39.58 57.03 39.58L57.03 39.58ZM63.57 35.02L64.36 35.02Q64.22 36.99 64.24 38.03Q64.26 39.07 64.26 39.93L64.26 39.93Q64.26 40.80 64.29 41.83Q64.33 42.87 64.47 44.84L64.47 44.84L63.67 44.84Q63.53 43.74 63.34 42.68Q63.15 41.63 62.51 40.95Q61.87 40.28 60.35 40.28L60.35 40.28L60.35 39.58Q61.49 39.58 62.10 39.12Q62.70 38.65 62.98 37.92Q63.26 37.20 63.36 36.42Q63.46 35.64 63.57 35.02L63.57 35.02Z" fill="#FFFFFF"/></svg>
