<svg xmlns="http://www.w3.org/2000/svg" viewBox="0 0 380 51" width="380" height="51" role="img"><path d="M18.32 2L18.32 2L18.32 3.28Q16.14 3.34 15.02 3.76Q13.90 4.18 13.52 5.30Q13.14 6.42 13.14 8.78L13.14 8.78L13.14 40.53Q13.14 42.83 13.52 43.98Q13.90 45.14 15.02 45.49Q16.14 45.84 18.32 45.84L18.32 45.84L22.99 45.84Q26 45.84 27.89 45.20Q29.78 44.56 30.90 43.18Q32.02 41.81 32.59 39.50Q33.17 37.20 33.49 33.87L33.49 33.87L34.96 33.87Q34.77 35.86 34.77 39.12L34.77 39.12Q34.77 40.34 34.86 42.61Q34.96 44.88 35.22 47.31L35.22 47.31Q31.95 47.18 27.86 47.15Q23.76 47.12 20.56 47.12L20.56 47.12Q19.15 47.12 16.94 47.12Q14.74 47.12 12.18 47.15Q9.62 47.18 6.99 47.22Q4.37 47.25 2 47.31L2 47.31L2 46.03Q4.18 45.90 5.30 45.52Q6.42 45.14 6.80 43.98Q7.18 42.83 7.18 40.53L7.18 40.53L7.18 8.78Q7.18 6.42 6.80 5.30Q6.42 4.18 5.30 3.76Q4.18 3.34 2 3.28L2 3.28L2 2Q3.34 2.06 5.52 2.13Q7.70 2.19 10.19 2.19L10.19 2.19Q12.43 2.19 14.64 2.13Q16.85 2.06 18.32 2Z" fill="#0F172A"/><path d="M58.38 7.95L58.38 7.95Q60.20 7.95 61.40 8.36Q62.60 8.77 63.37 9.39L63.37 9.39Q63.99 9.87 64.38 10.45Q64.76 11.02 64.95 11.60Q65.14 12.18 65.14 12.70L65.14 12.70Q65.14 13.90 64.30 14.58Q63.46 15.25 62.46 15.25L62.46 15.25Q61.50 15.25 60.73 14.62Q59.96 14.00 59.96 12.85L59.96 12.85Q59.96 11.79 60.68 11.05Q61.40 10.30 62.50 10.21L62.50 10.21Q62.31 9.58 61.33 9.13Q60.34 8.67 58.86 8.67L58.86 8.67Q56.41 8.67 54.85 10.14Q53.29 11.60 53.29 14.38L53.29 14.38Q53.29 15.73 53.79 17.12Q54.30 18.51 55.74 19.86L55.74 19.86Q56.55 19.71 57.42 19.64Q58.28 19.57 58.71 19.57L58.71 19.57Q59.58 19.57 60.10 19.86Q60.63 20.14 60.63 20.67L60.63 20.67Q60.63 21.10 60.27 21.34Q59.91 21.58 59.29 21.58L59.29 21.58Q58.38 21.58 57.37 21.18Q56.36 20.77 55.78 20.53L55.78 20.53Q53.00 21.34 51.27 23.19Q49.54 25.04 49.54 28.40L49.54 28.40Q49.54 31.71 51.27 34.02Q53.00 36.32 55.90 37.54Q58.81 38.77 62.41 38.77L62.41 38.77Q64.95 38.77 67.23 38.17Q69.51 37.57 71.26 36.42Q73.02 35.26 74.02 33.66Q75.03 32.05 75.03 29.98L75.03 29.98Q75.03 29.07 74.65 27.66Q74.26 26.24 73.06 24.87Q71.86 23.50 69.37 22.74L69.37 22.74L69.94 22.26Q73.45 23.31 74.94 25.64Q76.42 27.97 76.42 30.85L76.42 30.85Q76.42 33.73 74.70 36.37Q72.97 39.01 69.70 40.66Q66.44 42.32 61.78 42.32L61.78 42.32Q58.66 42.32 55.86 41.50Q53.05 40.69 50.89 39.13Q48.73 37.57 47.48 35.36Q46.23 33.15 46.23 30.37L46.23 30.37Q46.23 27.78 47.24 25.93Q48.25 24.08 49.74 22.88Q51.22 21.68 52.71 21.03Q54.20 20.38 55.11 20.14L55.11 20.14Q53.53 19.42 52.45 18.44Q51.37 17.46 50.82 16.28Q50.26 15.10 50.26 13.95L50.26 13.95Q50.26 12.80 50.79 11.72Q51.32 10.64 52.33 9.78Q53.34 8.91 54.85 8.43Q56.36 7.95 58.38 7.95ZM75.85 6.99L75.85 6.99Q78.82 6.99 80.84 8.70Q82.86 10.40 82.86 13.47L82.86 13.47Q82.86 15.10 82.26 16.38Q81.66 17.65 80.62 18.61Q79.59 19.57 78.30 20.19L78.30 20.19Q77.19 20.72 75.39 21.34Q73.59 21.97 71.55 22.59Q69.51 23.22 67.66 23.82Q65.82 24.42 64.66 24.85L64.66 24.85Q62.89 25.52 61.66 26.50Q60.44 27.49 60.44 29.02L60.44 29.02Q60.44 30.27 61.16 31.14Q61.88 32.00 62.91 32.43Q63.94 32.86 64.86 32.86L64.86 32.86Q65.29 32.86 65.94 32.74Q66.58 32.62 67.11 32.38Q67.64 32.14 67.74 31.81L67.74 31.81Q66.97 31.66 66.22 31.11Q65.48 30.56 65.48 29.36L65.48 29.36Q65.48 28.21 66.25 27.54Q67.02 26.86 68.12 26.86L68.12 26.86Q69.27 26.86 69.97 27.58Q70.66 28.30 70.66 29.46L70.66 29.46Q70.66 30.80 69.78 31.74Q68.89 32.67 67.57 33.13Q66.25 33.58 64.95 33.58L64.95 33.58Q63.61 33.58 62.22 33.01Q60.82 32.43 59.91 31.21Q59.00 29.98 59.00 27.97L59.00 27.97Q59.00 26.29 59.74 24.99Q60.49 23.70 61.98 22.69Q63.46 21.68 65.62 20.96L65.62 20.96Q67.06 20.48 69.13 19.90Q71.19 19.33 73.38 18.66Q75.56 17.98 77.34 17.17L77.34 17.17Q79.74 16.06 80.60 14.91Q81.46 13.76 81.46 12.56L81.46 12.56Q81.46 11.17 80.70 10.09Q79.93 9.01 78.66 8.36Q77.38 7.71 75.90 7.71L75.90 7.71Q75.32 7.71 74.94 7.81Q74.55 7.90 74.46 8.14L74.46 8.14Q75.13 8.48 75.46 9.10Q75.80 9.73 75.80 10.35L75.80 10.35Q75.80 11.36 75.01 12.03Q74.22 12.70 73.11 12.70L73.11 12.70Q72.20 12.70 71.38 12.10Q70.57 11.50 70.57 10.30L70.57 10.30Q70.57 9.06 71.41 8.34Q72.25 7.62 73.47 7.30Q74.70 6.99 75.85 6.99Z" fill="#CC9A14"/><path d="M111.74 2L111.74 2Q111.49 4.24 111.39 6.35Q111.30 8.46 111.30 9.55L111.30 9.55Q111.30 10.70 111.36 11.76Q111.42 12.82 111.49 13.52L111.49 13.52L110.02 13.52Q109.63 9.74 108.93 7.54Q108.22 5.33 106.53 4.40Q104.83 3.47 101.44 3.47L101.44 3.47L96.13 3.47Q93.95 3.47 92.83 3.82Q91.71 4.18 91.33 5.30Q90.94 6.42 90.94 8.78L90.94 8.78L90.94 40.53Q90.94 42.83 91.33 43.98Q91.71 45.14 92.83 45.49Q93.95 45.84 96.13 45.84L96.13 45.84L100.80 45.84Q104.83 45.84 106.91 44.75Q108.99 43.66 109.92 41.20Q110.85 38.74 111.30 34.51L111.30 34.51L112.77 34.51Q112.58 36.24 112.58 39.12L112.58 39.12Q112.58 40.34 112.67 42.61Q112.77 44.88 113.02 47.31L113.02 47.31Q109.76 47.18 105.66 47.15Q101.57 47.12 98.37 47.12L98.37 47.12Q96.96 47.12 94.75 47.12Q92.54 47.12 89.98 47.15Q87.42 47.18 84.80 47.22Q82.18 47.25 79.81 47.31L79.81 47.31L79.81 46.03Q81.98 45.90 83.10 45.52Q84.22 45.14 84.61 43.98Q84.99 42.83 84.99 40.53L84.99 40.53L84.99 8.78Q84.99 6.42 84.61 5.30Q84.22 4.18 83.10 3.76Q81.98 3.34 79.81 3.28L79.81 3.28L79.81 2Q82.18 2.06 84.80 2.10Q87.42 2.13 89.98 2.16Q92.54 2.19 94.75 2.19Q96.96 2.19 98.37 2.19L98.37 2.19Q101.31 2.19 105.06 2.16Q108.80 2.13 111.74 2ZM89.02 23.89L100.74 23.89Q100.74 23.89 100.74 24.53Q100.74 25.17 100.74 25.17L100.74 25.17L89.02 25.17Q89.02 25.17 89.02 24.53Q89.02 23.89 89.02 23.89L89.02 23.89ZM101.12 15.44L102.59 15.44Q102.34 19.09 102.37 21.01Q102.40 22.93 102.40 24.53L102.40 24.53Q102.40 26.13 102.46 28.05Q102.53 29.97 102.78 33.62L102.78 33.62L101.31 33.62Q101.06 31.57 100.70 29.62Q100.35 27.66 99.17 26.42Q97.98 25.17 95.17 25.17L95.17 25.17L95.17 23.89Q97.28 23.89 98.40 23.02Q99.52 22.16 100.03 20.82Q100.54 19.47 100.74 18.03Q100.93 16.59 101.12 15.44L101.12 15.44ZM134.72 3.28L134.72 2Q136.06 2.06 138.24 2.13Q140.42 2.19 142.53 2.19L142.53 2.19Q145.54 2.19 148.29 2.13Q151.04 2.06 152.19 2.06L152.19 2.06Q159.94 2.06 163.78 5.58Q167.62 9.10 167.62 14.67L167.62 14.67Q167.62 16.98 166.85 19.50Q166.08 22.03 164.19 24.18Q162.30 26.32 159.04 27.66Q155.78 29.01 150.78 29.01L150.78 29.01L144.64 29.01L144.64 27.73L150.14 27.73Q154.69 27.73 157.09 26.00Q159.49 24.27 160.35 21.46Q161.22 18.64 161.22 15.38L161.22 15.38Q161.22 9.30 158.82 6.29Q156.42 3.28 150.59 3.28L150.59 3.28Q147.65 3.28 146.75 4.37Q145.86 5.46 145.86 8.78L145.86 8.78L145.86 40.53Q145.86 42.83 146.34 43.98Q146.82 45.14 148.22 45.52Q149.63 45.90 152.32 46.03L152.32 46.03L152.32 47.31Q150.66 47.18 148.10 47.15Q145.54 47.12 142.91 47.12L142.91 47.12Q140.42 47.12 138.24 47.15Q136.06 47.18 134.72 47.31L134.72 47.31L134.72 46.03Q136.90 45.90 138.02 45.52Q139.14 45.14 139.52 43.98Q139.90 42.83 139.90 40.53L139.90 40.53L139.90 8.78Q139.90 6.42 139.52 5.30Q139.14 4.18 138.02 3.76Q136.90 3.34 134.72 3.28L134.72 3.28ZM180.42 47.76L180.42 47.76Q177.79 47.76 175.87 46.77Q173.95 45.78 172.96 43.98Q171.97 42.19 171.97 39.82L171.97 39.82Q171.97 37.01 173.28 35.22Q174.59 33.42 176.64 32.34Q178.69 31.25 180.96 30.51Q183.23 29.78 185.28 29.10Q187.33 28.43 188.64 27.54Q189.95 26.64 189.95 25.17L189.95 25.17L189.95 21.20Q189.95 18.51 189.15 17.10Q188.35 15.70 187.01 15.22Q185.66 14.74 184.00 14.74L184.00 14.74Q182.40 14.74 180.58 15.18Q178.75 15.63 177.66 17.04L177.66 17.04Q178.88 17.30 179.78 18.32Q180.67 19.34 180.67 20.94L180.67 20.94Q180.67 22.54 179.65 23.47Q178.62 24.40 177.02 24.40L177.02 24.40Q175.17 24.40 174.30 23.22Q173.44 22.03 173.44 20.56L173.44 20.56Q173.44 18.90 174.27 17.87Q175.10 16.85 176.38 15.95L176.38 15.95Q177.86 14.93 180.19 14.19Q182.53 13.46 185.47 13.46L185.47 13.46Q188.10 13.46 189.95 14.06Q191.81 14.67 193.02 15.82L193.02 15.82Q194.69 17.36 195.20 19.57Q195.71 21.78 195.71 24.85L195.71 24.85L195.71 42.64Q195.71 44.24 196.19 44.94Q196.67 45.65 197.70 45.65L197.70 45.65Q198.40 45.65 199.04 45.33Q199.68 45.01 200.58 44.30L200.58 44.30L201.28 45.39Q199.94 46.42 198.72 47.09Q197.50 47.76 195.46 47.76L195.46 47.76Q193.60 47.76 192.38 47.12Q191.17 46.48 190.56 45.23Q189.95 43.98 189.95 42.06L189.95 42.06Q188.22 44.94 185.82 46.35Q183.42 47.76 180.42 47.76ZM182.72 45.20L182.72 45.20Q184.83 45.20 186.66 43.98Q188.48 42.77 189.95 40.34L189.95 40.34L189.95 27.79Q189.18 28.88 187.71 29.62Q186.24 30.35 184.51 31.09Q182.78 31.82 181.22 32.82Q179.65 33.81 178.62 35.41Q177.60 37.01 177.60 39.57L177.60 39.57Q177.60 42.13 178.98 43.66Q180.35 45.20 182.72 45.20ZM223.10 13.46L223.10 13.46Q224.83 13.46 226.14 14.16Q227.46 14.86 228.19 15.98Q228.93 17.10 228.93 18.51L228.93 18.51Q228.93 20.11 227.94 21.33Q226.94 22.54 225.28 22.54L225.28 22.54Q223.94 22.54 222.91 21.68Q221.89 20.82 221.89 19.22L221.89 19.22Q221.89 18.00 222.56 17.14Q223.23 16.27 224.06 15.76L224.06 15.76Q223.62 15.12 222.72 15.12L222.72 15.12Q220.74 15.12 219.07 16.30Q217.41 17.49 216.26 19.34Q215.10 21.20 214.46 23.28Q213.82 25.36 213.82 27.15L213.82 27.15L213.82 40.72Q213.82 43.86 215.65 44.91Q217.47 45.97 220.61 45.97L220.61 45.97L220.61 47.31Q219.14 47.25 216.45 47.15Q213.76 47.06 210.75 47.06L210.75 47.06Q208.58 47.06 206.43 47.15Q204.29 47.25 203.20 47.31L203.20 47.31L203.20 45.97Q205.82 45.97 206.94 45.01Q208.06 44.05 208.06 41.36L208.06 41.36L208.06 21.33Q208.06 18.45 207.04 17.07Q206.02 15.70 203.20 15.70L203.20 15.70L203.20 14.35Q205.25 14.54 207.17 14.54L207.17 14.54Q209.02 14.54 210.72 14.32Q212.42 14.10 213.82 13.65L213.82 13.65L213.82 21.65Q214.53 19.79 215.84 17.90Q217.15 16.02 219.01 14.74Q220.86 13.46 223.10 13.46ZM241.98 3.73L241.98 3.73L241.98 14.42L251.46 14.42L251.46 15.70L241.98 15.70L241.98 40.46Q241.98 43.47 243.07 44.69Q244.16 45.90 246.08 45.90L246.08 45.90Q248 45.90 249.41 44.34Q250.82 42.77 251.84 39.06L251.84 39.06L253.12 39.38Q252.48 43.09 250.59 45.65Q248.70 48.21 244.80 48.21L244.80 48.21Q242.62 48.21 241.22 47.66Q239.81 47.12 238.72 46.10L238.72 46.10Q237.31 44.62 236.77 42.58Q236.22 40.53 236.22 37.14L236.22 37.14L236.22 15.70L230.08 15.70L230.08 14.42L236.22 14.42L236.22 4.62Q237.82 4.56 239.30 4.37Q240.77 4.18 241.98 3.73ZM275.84 13.46L275.84 13.46Q278.27 13.46 279.90 14.10Q281.54 14.74 282.62 15.89L282.62 15.89Q283.84 17.17 284.35 19.09Q284.86 21.01 284.86 24.27L284.86 24.27L284.86 41.36Q284.86 44.05 285.98 45.01Q287.10 45.97 289.73 45.97L289.73 45.97L289.73 47.31Q288.64 47.25 286.40 47.15Q284.16 47.06 282.05 47.06L282.05 47.06Q279.94 47.06 277.92 47.15Q275.90 47.25 274.88 47.31L274.88 47.31L274.88 45.97Q277.18 45.97 278.14 45.01Q279.10 44.05 279.10 41.36L279.10 41.36L279.10 22.86Q279.10 20.88 278.78 19.22Q278.46 17.55 277.34 16.53Q276.22 15.50 273.92 15.50L273.92 15.50Q271.23 15.50 269.22 17.04Q267.20 18.58 266.08 21.23Q264.96 23.89 264.96 27.15L264.96 27.15L264.96 41.36Q264.96 44.05 265.92 45.01Q266.88 45.97 269.18 45.97L269.18 45.97L269.18 47.31Q268.16 47.25 266.14 47.15Q264.13 47.06 262.02 47.06L262.02 47.06Q259.90 47.06 257.66 47.15Q255.42 47.25 254.34 47.31L254.34 47.31L254.34 45.97Q256.96 45.97 258.08 45.01Q259.20 44.05 259.20 41.36L259.20 41.36L259.20 21.33Q259.20 18.45 258.18 17.07Q257.15 15.70 254.34 15.70L254.34 15.70L254.34 14.35Q256.38 14.54 258.30 14.54L258.30 14.54Q260.16 14.54 261.86 14.32Q263.55 14.10 264.96 13.65L264.96 13.65L264.96 21.20Q266.62 16.85 269.60 15.15Q272.58 13.46 275.84 13.46ZM308.10 13.46L308.10 13.46Q313.73 13.46 316.90 16.88Q320.06 20.30 320.06 27.54L320.06 27.54L297.47 27.54L297.41 26.32L313.92 26.32Q314.05 23.18 313.41 20.53Q312.77 17.87 311.39 16.27Q310.02 14.67 307.84 14.67L307.84 14.67Q304.90 14.67 302.62 17.62Q300.35 20.56 299.90 26.96L299.90 26.96L300.10 27.22Q299.97 28.18 299.90 29.33Q299.84 30.48 299.84 31.63L299.84 31.63Q299.84 35.98 301.25 39.12Q302.66 42.26 304.93 43.89Q307.20 45.52 309.63 45.52L309.63 45.52Q311.55 45.52 313.28 44.91Q315.01 44.30 316.48 42.90Q317.95 41.49 319.04 39.12L319.04 39.12L320.32 39.63Q319.62 41.74 318.02 43.73Q316.42 45.71 313.98 46.96Q311.55 48.21 308.35 48.21L308.35 48.21Q303.74 48.21 300.45 46.10Q297.15 43.98 295.39 40.24Q293.63 36.50 293.63 31.63L293.63 31.63Q293.63 26.00 295.42 21.94Q297.22 17.87 300.48 15.66Q303.74 13.46 308.10 13.46ZM344.83 13.46L344.83 13.46Q346.56 13.46 347.87 14.16Q349.18 14.86 349.92 15.98Q350.66 17.10 350.66 18.51L350.66 18.51Q350.66 20.11 349.66 21.33Q348.67 22.54 347.01 22.54L347.01 22.54Q345.66 22.54 344.64 21.68Q343.62 20.82 343.62 19.22L343.62 19.22Q343.62 18.00 344.29 17.14Q344.96 16.27 345.79 15.76L345.79 15.76Q345.34 15.12 344.45 15.12L344.45 15.12Q342.46 15.12 340.80 16.30Q339.14 17.49 337.98 19.34Q336.83 21.20 336.19 23.28Q335.55 25.36 335.55 27.15L335.55 27.15L335.55 40.72Q335.55 43.86 337.38 44.91Q339.20 45.97 342.34 45.97L342.34 45.97L342.34 47.31Q340.86 47.25 338.18 47.15Q335.49 47.06 332.48 47.06L332.48 47.06Q330.30 47.06 328.16 47.15Q326.02 47.25 324.93 47.31L324.93 47.31L324.93 45.97Q327.55 45.97 328.67 45.01Q329.79 44.05 329.79 41.36L329.79 41.36L329.79 21.33Q329.79 18.45 328.77 17.07Q327.74 15.70 324.93 15.70L324.93 15.70L324.93 14.35Q326.98 14.54 328.90 14.54L328.90 14.54Q330.75 14.54 332.45 14.32Q334.14 14.10 335.55 13.65L335.55 13.65L335.55 21.65Q336.26 19.79 337.57 17.90Q338.88 16.02 340.74 14.74Q342.59 13.46 344.83 13.46ZM364.86 13.46L364.86 13.46Q367.42 13.46 369.22 14.29Q371.01 15.12 371.84 15.82L371.84 15.82Q373.95 17.55 374.40 13.52L374.40 13.52L375.87 13.52Q375.74 15.31 375.68 17.78Q375.62 20.24 375.62 24.40L375.62 24.40L374.14 24.40Q373.76 22.03 372.83 19.79Q371.90 17.55 370.11 16.11Q368.32 14.67 365.44 14.67L365.44 14.67Q363.20 14.67 361.70 15.92Q360.19 17.17 360.19 19.60L360.19 19.60Q360.19 21.52 361.34 22.90Q362.50 24.27 364.35 25.46Q366.21 26.64 368.38 28.05L368.38 28.05Q370.82 29.58 372.80 31.18Q374.78 32.78 375.97 34.70Q377.15 36.62 377.15 39.25L377.15 39.25Q377.15 42.19 375.62 44.18Q374.08 46.16 371.62 47.18Q369.15 48.21 366.21 48.21L366.21 48.21Q364.80 48.21 363.55 47.98Q362.30 47.76 361.15 47.31L361.15 47.31Q360.51 46.99 359.84 46.54Q359.17 46.10 358.53 45.58L358.53 45.58Q357.89 45.07 357.38 45.62Q356.86 46.16 356.61 47.76L356.61 47.76L355.14 47.76Q355.26 45.71 355.33 42.77Q355.39 39.82 355.39 34.96L355.39 34.96L356.86 34.96Q357.31 38.54 358.14 41.23Q358.98 43.92 360.77 45.42Q362.56 46.93 365.76 46.93L365.76 46.93Q367.04 46.93 368.35 46.35Q369.66 45.78 370.56 44.43Q371.46 43.09 371.46 40.85L371.46 40.85Q371.46 38.03 369.41 36.24Q367.36 34.45 364.22 32.46L364.22 32.46Q361.92 30.99 359.90 29.52Q357.89 28.05 356.64 26.19Q355.39 24.34 355.39 21.71L355.39 21.71Q355.39 18.83 356.70 17.01Q358.02 15.18 360.19 14.32Q362.37 13.46 364.86 13.46Z" fill="#0F172A"/></svg>
