<svg xmlns="http://www.w3.org/2000/svg" viewBox="0 0 395 51" width="395" height="51" role="img"><path d="M22.16 2L22.16 2L22.16 3.28Q19.98 3.34 18.86 3.76Q17.74 4.18 17.36 5.30Q16.98 6.42 16.98 8.78L16.98 8.78L16.98 41.30Q16.98 43.28 17.26 44.24Q17.55 45.20 18.42 45.52Q19.28 45.84 21.01 45.84L21.01 45.84L24.14 45.84Q26.32 45.84 28.24 44.82Q30.16 43.79 31.70 41.90Q33.23 40.02 34.26 37.39Q35.28 34.77 35.79 31.57L35.79 31.57L37.26 31.57Q37.07 33.74 37.07 37.20L37.07 37.20Q37.07 38.67 37.14 41.49Q37.20 44.30 37.52 47.31L37.52 47.31Q34.26 47.18 30.16 47.15Q26.06 47.12 22.86 47.12L22.86 47.12L18.77 47.12Q16.27 47.12 13.39 47.15Q10.51 47.18 7.57 47.22Q4.62 47.25 2 47.31L2 47.31L2 46.03Q4.05 45.90 5.07 45.52Q6.10 45.14 6.45 43.98Q6.80 42.83 6.80 40.53L6.80 40.53L6.80 8.78Q6.80 6.42 6.45 5.30Q6.10 4.18 5.04 3.76Q3.98 3.34 2 3.28L2 3.28L2 2Q3.60 2.06 6.32 2.13Q9.04 2.19 12.11 2.19L12.11 2.19Q14.93 2.19 17.65 2.13Q20.37 2.06 22.16 2Z" fill="#FFFFFF"/><path d="M54.77 7.57L54.77 7.57Q56.64 7.57 57.79 7.83Q58.94 8.10 59.76 8.58L59.76 8.58Q60.53 8.91 61.18 9.44Q61.82 9.97 62.26 10.74Q62.69 11.50 62.69 12.46L62.69 12.46Q62.69 13.90 61.58 14.77Q60.48 15.63 58.99 15.63L58.99 15.63Q57.55 15.63 56.52 14.91Q55.49 14.19 55.49 12.66L55.49 12.66Q55.49 11.46 56.35 10.47Q57.22 9.49 58.56 9.25L58.56 9.25Q58.22 8.86 57.34 8.62Q56.45 8.38 55.39 8.38L55.39 8.38Q52.90 8.38 51.14 9.94Q49.39 11.50 49.39 14.67L49.39 14.67Q49.39 15.78 49.78 17.02Q50.16 18.27 51.26 19.57L51.26 19.57Q52.08 19.38 52.78 19.28Q53.47 19.18 53.95 19.18L53.95 19.18Q54.82 19.18 55.27 19.54Q55.73 19.90 55.73 20.48L55.73 20.48Q55.73 20.91 55.34 21.20Q54.96 21.49 54.38 21.49L54.38 21.49Q53.57 21.49 52.70 21.03Q51.84 20.58 51.31 20.24L51.31 20.24Q49.06 21.39 47.64 23.19Q46.22 24.99 46.22 28.02L46.22 28.02Q46.22 31.18 47.95 33.22Q49.68 35.26 52.82 36.30Q55.97 37.33 60.24 37.33L60.24 37.33Q62.64 37.33 64.99 36.80Q67.34 36.27 69.24 35.22Q71.14 34.16 72.29 32.60Q73.44 31.04 73.44 28.98L73.44 28.98Q73.44 28.21 73.22 27.03Q73.01 25.86 72.19 24.66L72.19 24.66Q71.42 23.60 69.79 22.88L69.79 22.88Q68.83 23.17 67.78 23.46L67.78 23.46Q66.72 23.74 65.74 24.03Q64.75 24.32 64.03 24.51L64.03 24.51Q60.29 25.33 58.27 26.36Q56.26 27.39 56.26 29.17L56.26 29.17Q56.26 30.37 57.05 31.23Q57.84 32.10 59.04 32.58Q60.24 33.06 61.44 33.06L61.44 33.06Q61.78 33.06 62.16 32.98Q62.54 32.91 62.88 32.79Q63.22 32.67 63.36 32.58L63.36 32.58Q62.16 32.19 61.56 31.35Q60.96 30.51 60.96 29.41L60.96 29.41Q60.96 27.87 62.06 27.06Q63.17 26.24 64.80 26.24L64.80 26.24Q66.53 26.24 67.51 27.15Q68.50 28.06 68.50 29.50L68.50 29.50Q68.50 30.99 67.58 31.98Q66.67 32.96 65.14 33.42Q63.60 33.87 61.68 33.87L61.68 33.87Q59.81 33.87 58.15 33.20Q56.50 32.53 55.51 31.16Q54.53 29.79 54.53 27.73L54.53 27.73Q54.53 25.18 55.82 23.48Q57.12 21.78 59.54 20.65Q61.97 19.52 65.28 18.90L65.28 18.90Q66.29 18.66 67.51 18.34Q68.74 18.03 70.03 17.70Q71.33 17.36 72.43 16.98L72.43 16.98Q75.89 16.11 77.78 15.06Q79.68 14.00 79.68 12.22L79.68 12.22Q79.68 10.93 78.89 9.94Q78.10 8.96 76.85 8.41Q75.60 7.86 74.26 7.86L74.26 7.86Q73.82 7.86 73.46 7.90Q73.10 7.95 72.86 8.10L72.86 8.10Q74.06 8.53 74.64 9.39Q75.22 10.26 75.22 11.12L75.22 11.12Q75.22 12.61 74.11 13.40Q73.01 14.19 71.38 14.19Q69.74 14.19 68.69 13.35Q67.63 12.51 67.63 11.02L67.63 11.02Q67.63 9.73 68.38 8.84Q69.12 7.95 70.46 7.47Q71.81 6.99 73.63 6.99L73.63 6.99Q77.04 6.99 79.15 8.77Q81.26 10.54 81.26 13.76L81.26 13.76Q81.26 16.21 80.09 17.89Q78.91 19.57 76.73 20.62Q74.54 21.68 71.52 22.30L71.52 22.30Q71.14 22.45 70.66 22.59L70.66 22.59Q72.62 23.50 73.78 25.38L73.78 25.38Q75.12 27.63 75.12 30.56L75.12 30.56Q75.12 33.92 73.06 36.58Q70.99 39.25 67.27 40.78Q63.55 42.32 58.56 42.32L58.56 42.32Q54.58 42.32 51.34 41.50Q48.10 40.69 45.77 39.13Q43.44 37.57 42.17 35.36Q40.90 33.15 40.90 30.37L40.90 30.37Q40.90 27.68 42.02 25.78Q43.15 23.89 44.78 22.66Q46.42 21.44 48.05 20.77Q49.68 20.10 50.64 19.86L50.64 19.86Q49.15 19.23 47.93 18.39Q46.70 17.55 45.96 16.40Q45.22 15.25 45.22 13.81L45.22 13.81Q45.22 12.27 46.03 11.10Q46.85 9.92 48.22 9.15Q49.58 8.38 51.29 7.98Q52.99 7.57 54.77 7.57Z" fill="#CC9A14"/><path d="M118.45 2L118.45 2Q118.19 4.82 118.10 7.44Q118 10.06 118 11.47L118 11.47Q118 12.75 118.06 13.90Q118.13 15.06 118.19 15.82L118.19 15.82L116.72 15.82Q116.08 11.15 114.74 8.43Q113.39 5.71 111.25 4.59Q109.10 3.47 106.22 3.47L106.22 3.47L103.60 3.47Q101.74 3.47 100.78 3.79Q99.82 4.11 99.50 5.07Q99.18 6.03 99.18 8.02L99.18 8.02L99.18 23.89L101.23 23.89Q103.15 23.89 104.50 23.09Q105.84 22.29 106.70 20.98Q107.57 19.66 108.08 18.19Q108.59 16.72 108.85 15.44L108.85 15.44L110.32 15.44Q110.06 19.09 110.10 21.01Q110.13 22.93 110.13 24.53Q110.13 26.13 110.19 28.05Q110.26 29.97 110.51 33.62L110.51 33.62L109.04 33.62Q108.72 31.38 107.86 29.46Q106.99 27.54 105.39 26.35Q103.79 25.17 101.23 25.17L101.23 25.17L99.18 25.17L99.18 41.30Q99.18 43.28 99.50 44.24Q99.82 45.20 100.78 45.52Q101.74 45.84 103.60 45.84L103.60 45.84L106.74 45.84Q109.62 45.84 111.82 44.59Q114.03 43.34 115.60 40.34Q117.17 37.33 118 32.21L118 32.21L119.47 32.21Q119.28 34.26 119.28 37.58L119.28 37.58Q119.28 39.06 119.34 41.74Q119.41 44.43 119.73 47.31L119.73 47.31Q116.46 47.18 112.37 47.15Q108.27 47.12 105.07 47.12L105.07 47.12L100.98 47.12Q98.48 47.12 95.60 47.15Q92.72 47.18 89.78 47.22Q86.83 47.25 84.21 47.31L84.21 47.31L84.21 46.03Q86.26 45.90 87.28 45.52Q88.30 45.14 88.66 43.98Q89.01 42.83 89.01 40.53L89.01 40.53L89.01 8.78Q89.01 6.42 88.66 5.30Q88.30 4.18 87.25 3.76Q86.19 3.34 84.21 3.28L84.21 3.28L84.21 2Q86.83 2.06 89.78 2.10Q92.72 2.13 95.60 2.16Q98.48 2.19 100.98 2.19L100.98 2.19L105.07 2.19Q108.02 2.19 111.76 2.16Q115.50 2.13 118.45 2ZM139.70 3.28L139.70 2Q141.30 2.06 144.02 2.13Q146.74 2.19 149.42 2.19L149.42 2.19Q152.50 2.19 155.38 2.13Q158.26 2.06 159.47 2.06L159.47 2.06Q168.37 2.06 172.78 5.58Q177.20 9.10 177.20 14.67L177.20 14.67Q177.20 16.98 176.30 19.50Q175.41 22.03 173.26 24.18Q171.12 26.32 167.41 27.66Q163.70 29.01 158.06 29.01L158.06 29.01L154.67 29.01L154.67 40.14Q154.67 42.64 155.18 43.86Q155.70 45.07 157.17 45.46Q158.64 45.84 161.52 45.90L161.52 45.90L161.52 47.31Q159.54 47.25 156.40 47.18Q153.26 47.12 149.81 47.12L149.81 47.12Q147.06 47.12 144.43 47.18Q141.81 47.25 139.70 47.31L139.70 47.31L139.70 46.03Q141.74 45.90 142.77 45.52Q143.79 45.14 144.14 43.98Q144.50 42.83 144.50 40.53L144.50 40.53L144.50 8.78Q144.50 6.42 144.14 5.30Q143.79 4.18 142.74 3.76Q141.68 3.34 139.70 3.28L139.70 3.28ZM154.67 8.78L154.67 27.73L157.42 27.73Q161.20 27.73 163.15 26.00Q165.10 24.27 165.84 21.46Q166.58 18.64 166.58 15.38L166.58 15.38Q166.58 9.30 164.78 6.29Q162.99 3.28 158.64 3.28L158.64 3.28Q156.14 3.28 155.41 4.37Q154.67 5.46 154.67 8.78L154.67 8.78ZM188.91 47.76L188.91 47.76Q186.03 47.76 184.11 46.67Q182.19 45.58 181.30 43.76Q180.40 41.94 180.40 39.76L180.40 39.76Q180.40 37.01 181.65 35.28Q182.90 33.55 184.88 32.46Q186.86 31.38 189.07 30.67Q191.28 29.97 193.30 29.30Q195.31 28.62 196.56 27.70Q197.81 26.77 197.81 25.30L197.81 25.30L197.81 20.30Q197.81 18.64 197.26 17.33Q196.72 16.02 195.60 15.31Q194.48 14.61 192.69 14.61L192.69 14.61Q191.41 14.61 190.13 14.96Q188.85 15.31 188.02 16.14L188.02 16.14Q189.81 16.78 190.80 18.10Q191.79 19.41 191.79 21.07L191.79 21.07Q191.79 23.25 190.29 24.53Q188.78 25.81 186.74 25.81L186.74 25.81Q184.43 25.81 183.25 24.37Q182.06 22.93 182.06 20.88L182.06 20.88Q182.06 19.02 182.99 17.81Q183.92 16.59 185.58 15.50L185.58 15.50Q187.38 14.48 189.90 13.90Q192.43 13.33 195.38 13.33L195.38 13.33Q198.32 13.33 200.69 13.94Q203.06 14.54 204.66 16.14L204.66 16.14Q206.13 17.62 206.58 19.76Q207.02 21.90 207.02 25.17L207.02 25.17L207.02 42.58Q207.02 44.18 207.34 44.78Q207.66 45.39 208.43 45.39L208.43 45.39Q209.01 45.39 209.55 45.07Q210.10 44.75 210.74 44.30L210.74 44.30L211.38 45.39Q210.03 46.54 208.27 47.15Q206.51 47.76 204.34 47.76L204.34 47.76Q201.97 47.76 200.56 47.09Q199.15 46.42 198.54 45.26Q197.94 44.11 197.94 42.58L197.94 42.58Q196.40 45.01 194.22 46.38Q192.05 47.76 188.91 47.76ZM193.46 43.66L193.46 43.66Q194.74 43.66 195.79 43.06Q196.85 42.45 197.81 41.04L197.81 41.04L197.81 27.92Q197.23 28.88 196.21 29.65Q195.18 30.42 194.03 31.22Q192.88 32.02 191.82 32.98Q190.77 33.94 190.13 35.34Q189.49 36.75 189.49 38.74L189.49 38.74Q189.49 41.23 190.58 42.45Q191.66 43.66 193.46 43.66ZM235.25 13.33L235.25 13.33Q237.30 13.33 238.58 14.19Q239.86 15.06 240.46 16.40Q241.07 17.74 241.07 19.22L241.07 19.22Q241.07 21.58 239.70 23.09Q238.32 24.59 236.08 24.59L236.08 24.59Q233.84 24.59 232.59 23.47Q231.34 22.35 231.34 20.50L231.34 20.50Q231.34 18.70 232.14 17.52Q232.94 16.34 234.16 15.50L234.16 15.50Q233.26 15.25 232.37 15.57L232.37 15.57Q231.15 15.76 230.06 16.56Q228.98 17.36 228.21 18.54Q227.44 19.73 226.99 21.10Q226.54 22.48 226.54 23.76L226.54 23.76L226.54 40.72Q226.54 43.79 228.05 44.88Q229.55 45.97 232.56 45.97L232.56 45.97L232.56 47.31Q231.09 47.25 228.27 47.15Q225.46 47.06 222.38 47.06L222.38 47.06Q219.82 47.06 217.20 47.15Q214.58 47.25 213.23 47.31L213.23 47.31L213.23 45.97Q215.47 45.97 216.40 45.01Q217.33 44.05 217.33 41.36L217.33 41.36L217.33 21.20Q217.33 18.32 216.46 16.94Q215.60 15.57 213.23 15.57L213.23 15.57L213.23 14.22Q215.28 14.42 217.20 14.42L217.20 14.42Q219.89 14.42 222.22 14.19Q224.56 13.97 226.54 13.52L226.54 13.52L226.54 19.47Q227.31 17.74 228.59 16.34Q229.87 14.93 231.54 14.13Q233.20 13.33 235.25 13.33ZM256.11 3.73L256.11 3.73L256.11 14.22L263.66 14.22L263.66 15.50L256.11 15.50L256.11 41.36Q256.11 43.28 256.82 44.08Q257.52 44.88 258.93 44.88L258.93 44.88Q260.08 44.88 261.23 44.02Q262.38 43.15 263.28 41.04L263.28 41.04L264.37 41.62Q263.34 44.50 261.26 46.35Q259.18 48.21 255.60 48.21L255.60 48.21Q253.49 48.21 251.89 47.66Q250.29 47.12 249.20 46.03L249.20 46.03Q247.79 44.62 247.34 42.54Q246.90 40.46 246.90 37.14L246.90 37.14L246.90 15.50L241.52 15.50L241.52 14.22L246.90 14.22L246.90 5.78Q249.58 5.78 251.86 5.30Q254.13 4.82 256.11 3.73ZM289.46 13.33L289.46 13.33Q292.14 13.33 293.84 14Q295.54 14.67 296.50 15.82L296.50 15.82Q297.52 17.04 298 18.96Q298.48 20.88 298.48 24.14L298.48 24.14L298.48 41.36Q298.48 44.05 299.41 45.01Q300.34 45.97 302.58 45.97L302.58 45.97L302.58 47.31Q301.36 47.25 298.93 47.15Q296.50 47.06 294.13 47.06L294.13 47.06Q291.70 47.06 289.36 47.15Q287.02 47.25 285.81 47.31L285.81 47.31L285.81 45.97Q287.73 45.97 288.50 45.01Q289.26 44.05 289.26 41.36L289.26 41.36L289.26 21.46Q289.26 19.86 288.94 18.67Q288.62 17.49 287.79 16.82Q286.96 16.14 285.30 16.14L285.30 16.14Q283.57 16.14 282.13 17.10Q280.69 18.06 279.82 19.76Q278.96 21.46 278.96 23.57L278.96 23.57L278.96 41.36Q278.96 44.05 279.76 45.01Q280.56 45.97 282.42 45.97L282.42 45.97L282.42 47.31Q281.26 47.25 279.06 47.15Q276.85 47.06 274.48 47.06L274.48 47.06Q272.05 47.06 269.49 47.15Q266.93 47.25 265.65 47.31L265.65 47.31L265.65 45.97Q267.89 45.97 268.82 45.01Q269.74 44.05 269.74 41.36L269.74 41.36L269.74 21.20Q269.74 18.32 268.88 16.94Q268.02 15.57 265.65 15.57L265.65 15.57L265.65 14.22Q267.70 14.42 269.62 14.42L269.62 14.42Q272.30 14.42 274.64 14.19Q276.98 13.97 278.96 13.52L278.96 13.52L278.96 19.28Q280.56 16.02 283.31 14.67Q286.06 13.33 289.46 13.33ZM321.46 13.33L321.46 13.33Q327.09 13.33 330.29 16.66Q333.49 19.98 333.49 27.54L333.49 27.54L315.57 27.54Q315.50 28.18 315.50 28.82L315.50 28.82Q315.44 29.65 315.44 30.54L315.44 30.54Q315.44 34.96 316.69 37.71Q317.94 40.46 319.86 41.71Q321.78 42.96 323.76 42.96L323.76 42.96Q325.10 42.96 326.54 42.54Q327.98 42.13 329.46 41.01Q330.93 39.89 332.21 37.84L332.21 37.84L333.36 38.22Q332.59 40.66 330.93 42.96Q329.26 45.26 326.70 46.74Q324.14 48.21 320.56 48.21L320.56 48.21Q316.21 48.21 312.88 46.35Q309.55 44.50 307.66 40.72Q305.78 36.94 305.78 31.12L305.78 31.12Q305.78 25.17 307.79 21.20Q309.81 17.23 313.36 15.28Q316.91 13.33 321.46 13.33ZM315.38 26.32L315.38 26.32L325.42 26.32Q325.49 23.18 325.04 20.53Q324.59 17.87 323.63 16.27Q322.67 14.67 321.07 14.67L321.07 14.67Q318.83 14.67 317.30 17.49L317.30 17.49Q315.76 20.18 315.38 26.32ZM359.22 13.33L359.22 13.33Q361.26 13.33 362.54 14.19Q363.82 15.06 364.43 16.40Q365.04 17.74 365.04 19.22L365.04 19.22Q365.04 21.58 363.66 23.09Q362.29 24.59 360.05 24.59L360.05 24.59Q357.81 24.59 356.56 23.47Q355.31 22.35 355.31 20.50L355.31 20.50Q355.31 18.70 356.11 17.52Q356.91 16.34 358.13 15.50L358.13 15.50Q357.23 15.25 356.34 15.57L356.34 15.57Q355.12 15.76 354.03 16.56Q352.94 17.36 352.18 18.54Q351.41 19.73 350.96 21.10Q350.51 22.48 350.51 23.76L350.51 23.76L350.51 40.72Q350.51 43.79 352.02 44.88Q353.52 45.97 356.53 45.97L356.53 45.97L356.53 47.31Q355.06 47.25 352.24 47.15Q349.42 47.06 346.35 47.06L346.35 47.06Q343.79 47.06 341.17 47.15Q338.54 47.25 337.20 47.31L337.20 47.31L337.20 45.97Q339.44 45.97 340.37 45.01Q341.30 44.05 341.30 41.36L341.30 41.36L341.30 21.20Q341.30 18.32 340.43 16.94Q339.57 15.57 337.20 15.57L337.20 15.57L337.20 14.22Q339.25 14.42 341.17 14.42L341.17 14.42Q343.86 14.42 346.19 14.19Q348.53 13.97 350.51 13.52L350.51 13.52L350.51 19.47Q351.28 17.74 352.56 16.34Q353.84 14.93 355.50 14.13Q357.17 13.33 359.22 13.33ZM379.76 13.33L379.76 13.33Q382.45 13.33 384.46 14Q386.48 14.67 387.38 15.31L387.38 15.31Q388.27 15.89 388.85 15.70L388.85 15.70Q389.74 15.38 390.06 13.39L390.06 13.39L391.41 13.39Q391.28 15.18 391.22 17.78Q391.15 20.37 391.15 24.66L391.15 24.66L389.81 24.66Q389.49 22.29 388.59 19.98Q387.70 17.68 386.00 16.21Q384.30 14.74 381.62 14.74L381.62 14.74Q379.76 14.74 378.48 15.79Q377.20 16.85 377.20 18.83L377.20 18.83Q377.20 20.75 378.35 22.19Q379.50 23.63 381.33 24.94Q383.15 26.26 385.14 27.73L385.14 27.73Q387.25 29.33 388.98 30.90Q390.70 32.46 391.73 34.32Q392.75 36.18 392.75 38.74L392.75 38.74Q392.75 41.62 391.09 43.76Q389.42 45.90 386.70 47.06Q383.98 48.21 380.66 48.21L380.66 48.21Q378.74 48.21 377.23 47.82Q375.73 47.44 374.64 46.86L374.64 46.86Q373.81 46.48 373.07 46.13Q372.34 45.78 371.70 45.52L371.70 45.52Q371.06 45.33 370.58 45.97Q370.10 46.61 369.84 47.76L369.84 47.76L368.50 47.76Q368.62 45.71 368.69 42.77Q368.75 39.82 368.75 34.96L368.75 34.96L370.10 34.96Q370.48 38.42 371.50 41.07Q372.53 43.73 374.29 45.23Q376.05 46.74 378.74 46.74L378.74 46.74Q379.82 46.74 380.85 46.29Q381.87 45.84 382.54 44.82Q383.22 43.79 383.22 42.19L383.22 42.19Q383.22 39.38 381.39 37.52Q379.57 35.66 376.75 33.49L376.75 33.49Q374.70 31.82 372.88 30.19Q371.06 28.56 369.90 26.61Q368.75 24.66 368.75 22.16L368.75 22.16Q368.75 19.28 370.29 17.30Q371.82 15.31 374.35 14.32Q376.88 13.33 379.76 13.33Z" fill="#FFFFFF"/></svg>
