<svg xmlns="http://www.w3.org/2000/svg" viewBox="0 0 396 52" width="396" height="52" role="img"><path d="M18.32 2.90L18.32 2.90L18.32 4.18Q16.14 4.24 15.02 4.66Q13.90 5.07 13.52 6.19Q13.14 7.31 13.14 9.68L13.14 9.68L13.14 41.42Q13.14 43.73 13.52 44.88Q13.90 46.03 15.02 46.38Q16.14 46.74 18.32 46.74L18.32 46.74L22.99 46.74Q26 46.74 27.89 46.10Q29.78 45.46 30.90 44.08Q32.02 42.70 32.59 40.40Q33.17 38.10 33.49 34.77L33.49 34.77L34.96 34.77Q34.77 36.75 34.77 40.02L34.77 40.02Q34.77 41.23 34.86 43.50Q34.96 45.78 35.22 48.21L35.22 48.21Q31.95 48.08 27.86 48.05Q23.76 48.02 20.56 48.02L20.56 48.02Q19.15 48.02 16.94 48.02Q14.74 48.02 12.18 48.05Q9.62 48.08 6.99 48.11Q4.37 48.14 2 48.21L2 48.21L2 46.93Q4.18 46.80 5.30 46.42Q6.42 46.03 6.80 44.88Q7.18 43.73 7.18 41.42L7.18 41.42L7.18 9.68Q7.18 7.31 6.80 6.19Q6.42 5.07 5.30 4.66Q4.18 4.24 2 4.18L2 4.18L2 2.90Q3.34 2.96 5.52 3.02Q7.70 3.09 10.19 3.09L10.19 3.09Q12.43 3.09 14.64 3.02Q16.85 2.96 18.32 2.90Z" fill="#FFFFFF"/><path d="M56.59 3.28L56.59 3.28Q59.02 3.28 60.62 3.82Q62.22 4.37 63.25 5.20L63.25 5.20Q64.08 5.84 64.59 6.61Q65.10 7.38 65.36 8.14Q65.62 8.91 65.62 9.62L65.62 9.62Q65.62 11.22 64.50 12.11Q63.38 13.01 62.03 13.01L62.03 13.01Q60.75 13.01 59.73 12.18Q58.70 11.34 58.70 9.81L58.70 9.81Q58.70 8.40 59.66 7.41Q60.62 6.42 62.10 6.29L62.10 6.29Q61.84 5.46 60.53 4.85Q59.22 4.24 57.23 4.24L57.23 4.24Q53.97 4.24 51.89 6.19Q49.81 8.14 49.81 11.86L49.81 11.86Q49.81 13.65 50.48 15.50Q51.15 17.36 53.07 19.15L53.07 19.15Q54.16 18.96 55.31 18.86Q56.46 18.77 57.04 18.77L57.04 18.77Q58.19 18.77 58.90 19.15Q59.60 19.54 59.60 20.24L59.60 20.24Q59.60 20.82 59.12 21.14Q58.64 21.46 57.81 21.46L57.81 21.46Q56.59 21.46 55.25 20.91Q53.90 20.37 53.14 20.05L53.14 20.05Q49.42 21.14 47.12 23.60Q44.82 26.06 44.82 30.54L44.82 30.54Q44.82 34.96 47.12 38.03Q49.42 41.10 53.30 42.74Q57.17 44.37 61.97 44.37L61.97 44.37Q65.36 44.37 68.40 43.57Q71.44 42.77 73.78 41.23Q76.11 39.70 77.46 37.55Q78.80 35.41 78.80 32.66L78.80 32.66Q78.80 31.44 78.29 29.55Q77.78 27.66 76.18 25.84Q74.58 24.02 71.25 22.99L71.25 22.99L72.02 22.35Q76.69 23.76 78.67 26.86Q80.66 29.97 80.66 33.81L80.66 33.81Q80.66 37.65 78.35 41.17Q76.05 44.69 71.70 46.90Q67.34 49.10 61.14 49.10L61.14 49.10Q56.98 49.10 53.23 48.02Q49.49 46.93 46.61 44.85Q43.73 42.77 42.06 39.82Q40.40 36.88 40.40 33.17L40.40 33.17Q40.40 29.71 41.74 27.25Q43.09 24.78 45.07 23.18Q47.06 21.58 49.04 20.72Q51.02 19.86 52.24 19.54L52.24 19.54Q50.13 18.58 48.69 17.26Q47.25 15.95 46.51 14.38Q45.78 12.82 45.78 11.28L45.78 11.28Q45.78 9.74 46.48 8.30Q47.18 6.86 48.53 5.71Q49.87 4.56 51.89 3.92Q53.90 3.28 56.59 3.28ZM79.89 2L79.89 2Q83.86 2 86.54 4.27Q89.23 6.54 89.23 10.64L89.23 10.64Q89.23 12.82 88.43 14.51Q87.63 16.21 86.26 17.49Q84.88 18.77 83.15 19.60L83.15 19.60Q81.68 20.30 79.28 21.14Q76.88 21.97 74.16 22.80Q71.44 23.63 68.98 24.43Q66.51 25.23 64.98 25.81L64.98 25.81Q62.61 26.70 60.98 28.02Q59.34 29.33 59.34 31.38L59.34 31.38Q59.34 33.04 60.30 34.19Q61.26 35.34 62.64 35.92Q64.02 36.50 65.23 36.50L65.23 36.50Q65.81 36.50 66.67 36.34Q67.54 36.18 68.24 35.86Q68.94 35.54 69.07 35.09L69.07 35.09Q68.05 34.90 67.06 34.16Q66.06 33.42 66.06 31.82L66.06 31.82Q66.06 30.29 67.09 29.39Q68.11 28.50 69.58 28.50L69.58 28.50Q71.12 28.50 72.05 29.46Q72.98 30.42 72.98 31.95L72.98 31.95Q72.98 33.74 71.79 34.99Q70.61 36.24 68.85 36.85Q67.09 37.46 65.36 37.46L65.36 37.46Q63.57 37.46 61.71 36.69Q59.86 35.92 58.64 34.29Q57.42 32.66 57.42 29.97L57.42 29.97Q57.42 27.73 58.42 26.00Q59.41 24.27 61.39 22.93Q63.38 21.58 66.26 20.62L66.26 20.62Q68.18 19.98 70.93 19.22Q73.68 18.45 76.59 17.55Q79.50 16.66 81.87 15.57L81.87 15.57Q85.07 14.10 86.22 12.56Q87.38 11.02 87.38 9.42L87.38 9.42Q87.38 7.57 86.35 6.13Q85.33 4.69 83.63 3.82Q81.94 2.96 79.95 2.96L79.95 2.96Q79.18 2.96 78.67 3.09Q78.16 3.22 78.03 3.54L78.03 3.54Q78.93 3.98 79.38 4.82Q79.82 5.65 79.82 6.48L79.82 6.48Q79.82 7.82 78.77 8.72Q77.71 9.62 76.24 9.62L76.24 9.62Q75.02 9.62 73.94 8.82Q72.85 8.02 72.85 6.42L72.85 6.42Q72.85 4.75 73.97 3.79Q75.09 2.83 76.72 2.42Q78.35 2 79.89 2Z" fill="#FFFFFF" fill-opacity="0.4"/><path d="M125.14 2.90L125.14 2.90Q124.88 5.14 124.78 7.25Q124.69 9.36 124.69 10.45L124.69 10.45Q124.69 11.60 124.75 12.66Q124.82 13.71 124.88 14.42L124.88 14.42L123.41 14.42Q123.02 10.64 122.32 8.43Q121.62 6.22 119.92 5.30Q118.22 4.37 114.83 4.37L114.83 4.37L109.52 4.37Q107.34 4.37 106.22 4.72Q105.10 5.07 104.72 6.19Q104.34 7.31 104.34 9.68L104.34 9.68L104.34 41.42Q104.34 43.73 104.72 44.88Q105.10 46.03 106.22 46.38Q107.34 46.74 109.52 46.74L109.52 46.74L114.19 46.74Q118.22 46.74 120.30 45.65Q122.38 44.56 123.31 42.10Q124.24 39.63 124.69 35.41L124.69 35.41L126.16 35.41Q125.97 37.14 125.97 40.02L125.97 40.02Q125.97 41.23 126.06 43.50Q126.16 45.78 126.42 48.21L126.42 48.21Q123.15 48.08 119.06 48.05Q114.96 48.02 111.76 48.02L111.76 48.02Q110.35 48.02 108.14 48.02Q105.94 48.02 103.38 48.05Q100.82 48.08 98.19 48.11Q95.57 48.14 93.20 48.21L93.20 48.21L93.20 46.93Q95.38 46.80 96.50 46.42Q97.62 46.03 98.00 44.88Q98.38 43.73 98.38 41.42L98.38 41.42L98.38 9.68Q98.38 7.31 98.00 6.19Q97.62 5.07 96.50 4.66Q95.38 4.24 93.20 4.18L93.20 4.18L93.20 2.90Q95.57 2.96 98.19 2.99Q100.82 3.02 103.38 3.06Q105.94 3.09 108.14 3.09Q110.35 3.09 111.76 3.09L111.76 3.09Q114.70 3.09 118.45 3.06Q122.19 3.02 125.14 2.90ZM102.42 24.78L114.13 24.78Q114.13 24.78 114.13 25.42Q114.13 26.06 114.13 26.06L114.13 26.06L102.42 26.06Q102.42 26.06 102.42 25.42Q102.42 24.78 102.42 24.78L102.42 24.78ZM114.51 16.34L115.98 16.34Q115.73 19.98 115.76 21.90Q115.79 23.82 115.79 25.42L115.79 25.42Q115.79 27.02 115.86 28.94Q115.92 30.86 116.18 34.51L116.18 34.51L114.70 34.51Q114.45 32.46 114.10 30.51Q113.74 28.56 112.56 27.31Q111.38 26.06 108.56 26.06L108.56 26.06L108.56 24.78Q110.67 24.78 111.79 23.92Q112.91 23.06 113.42 21.71Q113.94 20.37 114.13 18.93Q114.32 17.49 114.51 16.34L114.51 16.34ZM148.11 4.18L148.11 2.90Q149.46 2.96 151.63 3.02Q153.81 3.09 155.92 3.09L155.92 3.09Q158.93 3.09 161.68 3.02Q164.43 2.96 165.58 2.96L165.58 2.96Q173.33 2.96 177.17 6.48Q181.01 10 181.01 15.57L181.01 15.57Q181.01 17.87 180.24 20.40Q179.47 22.93 177.58 25.07Q175.70 27.22 172.43 28.56Q169.17 29.90 164.18 29.90L164.18 29.90L158.03 29.90L158.03 28.62L163.54 28.62Q168.08 28.62 170.48 26.90Q172.88 25.17 173.74 22.35Q174.61 19.54 174.61 16.27L174.61 16.27Q174.61 10.19 172.21 7.18Q169.81 4.18 163.98 4.18L163.98 4.18Q161.04 4.18 160.14 5.26Q159.25 6.35 159.25 9.68L159.25 9.68L159.25 41.42Q159.25 43.73 159.73 44.88Q160.21 46.03 161.62 46.42Q163.02 46.80 165.71 46.93L165.71 46.93L165.71 48.21Q164.05 48.08 161.49 48.05Q158.93 48.02 156.30 48.02L156.30 48.02Q153.81 48.02 151.63 48.05Q149.46 48.08 148.11 48.21L148.11 48.21L148.11 46.93Q150.29 46.80 151.41 46.42Q152.53 46.03 152.91 44.88Q153.30 43.73 153.30 41.42L153.30 41.42L153.30 9.68Q153.30 7.31 152.91 6.19Q152.53 5.07 151.41 4.66Q150.29 4.24 148.11 4.18L148.11 4.18ZM193.81 48.66L193.81 48.66Q191.18 48.66 189.26 47.66Q187.34 46.67 186.35 44.88Q185.36 43.09 185.36 40.72L185.36 40.72Q185.36 37.90 186.67 36.11Q187.98 34.32 190.03 33.23Q192.08 32.14 194.35 31.41Q196.62 30.67 198.67 30.00Q200.72 29.33 202.03 28.43Q203.34 27.54 203.34 26.06L203.34 26.06L203.34 22.10Q203.34 19.41 202.54 18.00Q201.74 16.59 200.40 16.11Q199.06 15.63 197.39 15.63L197.39 15.63Q195.79 15.63 193.97 16.08Q192.14 16.53 191.06 17.94L191.06 17.94Q192.27 18.19 193.17 19.22Q194.06 20.24 194.06 21.84L194.06 21.84Q194.06 23.44 193.04 24.37Q192.02 25.30 190.42 25.30L190.42 25.30Q188.56 25.30 187.70 24.11Q186.83 22.93 186.83 21.46L186.83 21.46Q186.83 19.79 187.66 18.77Q188.50 17.74 189.78 16.85L189.78 16.85Q191.25 15.82 193.58 15.09Q195.92 14.35 198.86 14.35L198.86 14.35Q201.49 14.35 203.34 14.96Q205.20 15.57 206.42 16.72L206.42 16.72Q208.08 18.26 208.59 20.46Q209.10 22.67 209.10 25.74L209.10 25.74L209.10 43.54Q209.10 45.14 209.58 45.84Q210.06 46.54 211.09 46.54L211.09 46.54Q211.79 46.54 212.43 46.22Q213.07 45.90 213.97 45.20L213.97 45.20L214.67 46.29Q213.33 47.31 212.11 47.98Q210.90 48.66 208.85 48.66L208.85 48.66Q206.99 48.66 205.78 48.02Q204.56 47.38 203.95 46.13Q203.34 44.88 203.34 42.96L203.34 42.96Q201.62 45.84 199.22 47.25Q196.82 48.66 193.81 48.66ZM196.11 46.10L196.11 46.10Q198.22 46.10 200.05 44.88Q201.87 43.66 203.34 41.23L203.34 41.23L203.34 28.69Q202.58 29.78 201.10 30.51Q199.63 31.25 197.90 31.98Q196.18 32.72 194.61 33.71Q193.04 34.70 192.02 36.30Q190.99 37.90 190.99 40.46L190.99 40.46Q190.99 43.02 192.37 44.56Q193.74 46.10 196.11 46.10ZM236.50 14.35L236.50 14.35Q238.22 14.35 239.54 15.06Q240.85 15.76 241.58 16.88Q242.32 18.00 242.32 19.41L242.32 19.41Q242.32 21.01 241.33 22.22Q240.34 23.44 238.67 23.44L238.67 23.44Q237.33 23.44 236.30 22.58Q235.28 21.71 235.28 20.11L235.28 20.11Q235.28 18.90 235.95 18.03Q236.62 17.17 237.46 16.66L237.46 16.66Q237.01 16.02 236.11 16.02L236.11 16.02Q234.13 16.02 232.46 17.20Q230.80 18.38 229.65 20.24Q228.50 22.10 227.86 24.18Q227.22 26.26 227.22 28.05L227.22 28.05L227.22 41.62Q227.22 44.75 229.04 45.81Q230.86 46.86 234 46.86L234 46.86L234 48.21Q232.53 48.14 229.84 48.05Q227.15 47.95 224.14 47.95L224.14 47.95Q221.97 47.95 219.82 48.05Q217.68 48.14 216.59 48.21L216.59 48.21L216.59 46.86Q219.22 46.86 220.34 45.90Q221.46 44.94 221.46 42.26L221.46 42.26L221.46 22.22Q221.46 19.34 220.43 17.97Q219.41 16.59 216.59 16.59L216.59 16.59L216.59 15.25Q218.64 15.44 220.56 15.44L220.56 15.44Q222.42 15.44 224.11 15.22Q225.81 14.99 227.22 14.54L227.22 14.54L227.22 22.54Q227.92 20.69 229.23 18.80Q230.54 16.91 232.40 15.63Q234.26 14.35 236.50 14.35ZM255.38 4.62L255.38 4.62L255.38 15.31L264.85 15.31L264.85 16.59L255.38 16.59L255.38 41.36Q255.38 44.37 256.46 45.58Q257.55 46.80 259.47 46.80L259.47 46.80Q261.39 46.80 262.80 45.23Q264.21 43.66 265.23 39.95L265.23 39.95L266.51 40.27Q265.87 43.98 263.98 46.54Q262.10 49.10 258.19 49.10L258.19 49.10Q256.02 49.10 254.61 48.56Q253.20 48.02 252.11 46.99L252.11 46.99Q250.70 45.52 250.16 43.47Q249.62 41.42 249.62 38.03L249.62 38.03L249.62 16.59L243.47 16.59L243.47 15.31L249.62 15.31L249.62 5.52Q251.22 5.46 252.69 5.26Q254.16 5.07 255.38 4.62ZM289.23 14.35L289.23 14.35Q291.66 14.35 293.30 14.99Q294.93 15.63 296.02 16.78L296.02 16.78Q297.23 18.06 297.74 19.98Q298.26 21.90 298.26 25.17L298.26 25.17L298.26 42.26Q298.26 44.94 299.38 45.90Q300.50 46.86 303.12 46.86L303.12 46.86L303.12 48.21Q302.03 48.14 299.79 48.05Q297.55 47.95 295.44 47.95L295.44 47.95Q293.33 47.95 291.31 48.05Q289.30 48.14 288.27 48.21L288.27 48.21L288.27 46.86Q290.58 46.86 291.54 45.90Q292.50 44.94 292.50 42.26L292.50 42.26L292.50 23.76Q292.50 21.78 292.18 20.11Q291.86 18.45 290.74 17.42Q289.62 16.40 287.31 16.40L287.31 16.40Q284.62 16.40 282.61 17.94Q280.59 19.47 279.47 22.13Q278.35 24.78 278.35 28.05L278.35 28.05L278.35 42.26Q278.35 44.94 279.31 45.90Q280.27 46.86 282.58 46.86L282.58 46.86L282.58 48.21Q281.55 48.14 279.54 48.05Q277.52 47.95 275.41 47.95L275.41 47.95Q273.30 47.95 271.06 48.05Q268.82 48.14 267.73 48.21L267.73 48.21L267.73 46.86Q270.35 46.86 271.47 45.90Q272.59 44.94 272.59 42.26L272.59 42.26L272.59 22.22Q272.59 19.34 271.57 17.97Q270.54 16.59 267.73 16.59L267.73 16.59L267.73 15.25Q269.78 15.44 271.70 15.44L271.70 15.44Q273.55 15.44 275.25 15.22Q276.94 14.99 278.35 14.54L278.35 14.54L278.35 22.10Q280.02 17.74 282.99 16.05Q285.97 14.35 289.23 14.35ZM321.49 14.35L321.49 14.35Q327.12 14.35 330.29 17.78Q333.46 21.20 333.46 28.43L333.46 28.43L310.86 28.43L310.80 27.22L327.31 27.22Q327.44 24.08 326.80 21.42Q326.16 18.77 324.78 17.17Q323.41 15.57 321.23 15.57L321.23 15.57Q318.29 15.57 316.02 18.51Q313.74 21.46 313.30 27.86L313.30 27.86L313.49 28.11Q313.36 29.07 313.30 30.22Q313.23 31.38 313.23 32.53L313.23 32.53Q313.23 36.88 314.64 40.02Q316.05 43.15 318.32 44.78Q320.59 46.42 323.02 46.42L323.02 46.42Q324.94 46.42 326.67 45.81Q328.40 45.20 329.87 43.79Q331.34 42.38 332.43 40.02L332.43 40.02L333.71 40.53Q333.01 42.64 331.41 44.62Q329.81 46.61 327.38 47.86Q324.94 49.10 321.74 49.10L321.74 49.10Q317.14 49.10 313.84 46.99Q310.54 44.88 308.78 41.14Q307.02 37.39 307.02 32.53L307.02 32.53Q307.02 26.90 308.82 22.83Q310.61 18.77 313.87 16.56Q317.14 14.35 321.49 14.35ZM358.22 14.35L358.22 14.35Q359.95 14.35 361.26 15.06Q362.58 15.76 363.31 16.88Q364.05 18.00 364.05 19.41L364.05 19.41Q364.05 21.01 363.06 22.22Q362.06 23.44 360.40 23.44L360.40 23.44Q359.06 23.44 358.03 22.58Q357.01 21.71 357.01 20.11L357.01 20.11Q357.01 18.90 357.68 18.03Q358.35 17.17 359.18 16.66L359.18 16.66Q358.74 16.02 357.84 16.02L357.84 16.02Q355.86 16.02 354.19 17.20Q352.53 18.38 351.38 20.24Q350.22 22.10 349.58 24.18Q348.94 26.26 348.94 28.05L348.94 28.05L348.94 41.62Q348.94 44.75 350.77 45.81Q352.59 46.86 355.73 46.86L355.73 46.86L355.73 48.21Q354.26 48.14 351.57 48.05Q348.88 47.95 345.87 47.95L345.87 47.95Q343.70 47.95 341.55 48.05Q339.41 48.14 338.32 48.21L338.32 48.21L338.32 46.86Q340.94 46.86 342.06 45.90Q343.18 44.94 343.18 42.26L343.18 42.26L343.18 22.22Q343.18 19.34 342.16 17.97Q341.14 16.59 338.32 16.59L338.32 16.59L338.32 15.25Q340.37 15.44 342.29 15.44L342.29 15.44Q344.14 15.44 345.84 15.22Q347.54 14.99 348.94 14.54L348.94 14.54L348.94 22.54Q349.65 20.69 350.96 18.80Q352.27 16.91 354.13 15.63Q355.98 14.35 358.22 14.35ZM378.26 14.35L378.26 14.35Q380.82 14.35 382.61 15.18Q384.40 16.02 385.23 16.72L385.23 16.72Q387.34 18.45 387.79 14.42L387.79 14.42L389.26 14.42Q389.14 16.21 389.07 18.67Q389.01 21.14 389.01 25.30L389.01 25.30L387.54 25.30Q387.15 22.93 386.22 20.69Q385.30 18.45 383.50 17.01Q381.71 15.57 378.83 15.57L378.83 15.57Q376.59 15.57 375.09 16.82Q373.58 18.06 373.58 20.50L373.58 20.50Q373.58 22.42 374.74 23.79Q375.89 25.17 377.74 26.35Q379.60 27.54 381.78 28.94L381.78 28.94Q384.21 30.48 386.19 32.08Q388.18 33.68 389.36 35.60Q390.54 37.52 390.54 40.14L390.54 40.14Q390.54 43.09 389.01 45.07Q387.47 47.06 385.01 48.08Q382.54 49.10 379.60 49.10L379.60 49.10Q378.19 49.10 376.94 48.88Q375.70 48.66 374.54 48.21L374.54 48.21Q373.90 47.89 373.23 47.44Q372.56 46.99 371.92 46.48L371.92 46.48Q371.28 45.97 370.77 46.51Q370.26 47.06 370.00 48.66L370.00 48.66L368.53 48.66Q368.66 46.61 368.72 43.66Q368.78 40.72 368.78 35.86L368.78 35.86L370.26 35.86Q370.70 39.44 371.54 42.13Q372.37 44.82 374.16 46.32Q375.95 47.82 379.15 47.82L379.15 47.82Q380.43 47.82 381.74 47.25Q383.06 46.67 383.95 45.33Q384.85 43.98 384.85 41.74L384.85 41.74Q384.85 38.93 382.80 37.14Q380.75 35.34 377.62 33.36L377.62 33.36Q375.31 31.89 373.30 30.42Q371.28 28.94 370.03 27.09Q368.78 25.23 368.78 22.61L368.78 22.61Q368.78 19.73 370.10 17.90Q371.41 16.08 373.58 15.22Q375.76 14.35 378.26 14.35Z" fill="#FFFFFF"/></svg>
